<?xml version="1.0" encoding="utf-8" standalone="no"?>
<!DOCTYPE svg PUBLIC "-//W3C//DTD SVG 1.1//EN"
  "http://www.w3.org/Graphics/SVG/1.1/DTD/svg11.dtd">
<!-- Created with matplotlib (http://matplotlib.sourceforge.net/) -->
<svg height="204pt" version="1.1" viewBox="0 0 564 204" width="564pt" xmlns="http://www.w3.org/2000/svg" xmlns:xlink="http://www.w3.org/1999/xlink">
 <defs>
  <style type="text/css">
*{stroke-linecap:square;stroke-linejoin:round;}
  </style>
 </defs>
 <g id="figure_1">
  <g id="patch_1">
   <path d="
M0 204.201
L564.48 204.201
L564.48 0
L0 0
z
" style="fill:#ffffff;"/>
  </g>
  <g id="axes_1">
   <g id="patch_2">
    <path d="
M7.2 196.863
L557.28 196.863
L557.28 7.3373
L7.2 7.3373
z
" style="fill:#ffffff;"/>
   </g>
   <g id="line2d_1">
    <path clip-path="url(#p192cf5743b)" d="
M17.7785 102.1
L20.2293 102.126
L22.3212 102.189
L27.0291 102.468
L32.5015 103.034
L38.1874 103.904
L42.7561 104.815
L46.4396 105.693
L50.5599 106.832
L54.6304 108.127
L58.8411 109.653
L64.2642 111.917
L69.3514 114.376
L73.4308 116.607
L77.4691 119.067
L81.3107 121.669
L84.6523 124.164
L88.8148 127.617
L91.253 129.841
L94.2119 132.769
L97.853 136.768
L100.687 140.233
L103.522 144.066
L105.855 147.539
L108.606 152.073
L111.313 157.085
L114.018 162.758
L116.004 167.434
L118.09 172.913
L119.999 178.531
L121.823 184.546
L123.503 190.766
L125.442 198.927
L126.758 205.201
M150.026 205.201
L150.027 -1
M173.26 -1
L174.976 7.05395
L176.938 15.0644
L178.924 22.1394
L181.105 28.9439
L183.18 34.6509
L185.286 39.8158
L187.421 44.5144
L190.023 49.6308
L192.473 53.9367
L195.167 58.1949
L197.345 61.3244
L200.084 64.9204
L203.228 68.6486
L205.429 71.0385
L208.479 74.0873
L211.64 76.9656
L214.657 79.4773
L218.877 82.6522
L222.794 85.2902
L226.893 87.7698
L231.743 90.3736
L235.867 92.3341
L241.118 94.525
L245.856 96.2316
L249.67 97.431
L255.437 98.9664
L259.335 99.8229
L264.178 100.691
L269.653 101.419
L275.018 101.877
L280.373 102.085
L285.023 102.067
L290.003 101.842
L295.863 101.301
L302.13 100.389
L308.319 99.1363
L312.835 97.9936
L317.008 96.758
L322.622 94.8077
L326.975 93.0528
L331.844 90.8167
L336.377 88.4514
L340.989 85.7309
L344.329 83.5407
L348.324 80.6474
L351.728 77.9162
L355.544 74.5207
L358.809 71.2911
L361.884 67.9303
L364.171 65.2005
L367.526 60.7805
L370.259 56.7509
L372.684 52.7914
L375.313 48.0151
L378.073 42.3431
L380.213 37.3869
L382.471 31.5133
L384.321 26.1026
L386.373 19.3416
L388.145 12.7216
L389.917 5.21315
L391.22 -1
M414.446 -1
L414.446 205.201
M437.721 205.201
L439.369 197.452
L441.142 190.123
L442.951 183.531
L444.736 177.742
L446.674 172.128
L448.414 167.589
L450.496 162.682
L452.568 158.279
L454.84 153.916
L457.477 149.369
L459.856 145.668
L462.815 141.512
L465.411 138.214
L467.614 135.637
L470.404 132.628
L474.047 129.075
L477.421 126.11
L480.936 123.311
L484.618 120.656
L488.303 118.251
L491.654 116.26
L495.889 113.986
L499.99 112.019
L503.859 110.358
L509.338 108.302
L515.319 106.427
L520.062 105.196
L525.998 103.957
L530.61 103.217
L536.228 102.572
L540.907 102.244
L546.702 102.1
L546.702 102.1" style="fill:none;stroke:#0000ff;"/>
   </g>
   <g id="matplotlib.axis_1">
    <g id="xtick_1">
     <g id="line2d_2">
      <defs>
       <path d="
M0 0
L0 -4" id="m4546a79a5f"/>
      </defs>
      <g>
       <use style="stroke:#000000;stroke-linecap:butt;stroke-width:0.5;" x="29.697833377" xlink:href="#m4546a79a5f" y="102.100374445"/>
      </g>
     </g>
     <g id="text_1">
      <!-- -3 -->
      <defs>
       <path d="
M40.5781 39.3125
Q47.6562 37.7969 51.625 33
Q55.6094 28.2188 55.6094 21.1875
Q55.6094 10.4062 48.1875 4.48438
Q40.7656 -1.42188 27.0938 -1.42188
Q22.5156 -1.42188 17.6562 -0.515625
Q12.7969 0.390625 7.625 2.20312
L7.625 11.7188
Q11.7188 9.32812 16.5938 8.10938
Q21.4844 6.89062 26.8125 6.89062
Q36.0781 6.89062 40.9375 10.5469
Q45.7969 14.2031 45.7969 21.1875
Q45.7969 27.6406 41.2812 31.2656
Q36.7656 34.9062 28.7188 34.9062
L20.2188 34.9062
L20.2188 43.0156
L29.1094 43.0156
Q36.375 43.0156 40.2344 45.9219
Q44.0938 48.8281 44.0938 54.2969
Q44.0938 59.9062 40.1094 62.9062
Q36.1406 65.9219 28.7188 65.9219
Q24.6562 65.9219 20.0156 65.0312
Q15.375 64.1562 9.8125 62.3125
L9.8125 71.0938
Q15.4375 72.6562 20.3438 73.4375
Q25.25 74.2188 29.5938 74.2188
Q40.8281 74.2188 47.3594 69.1094
Q53.9062 64.0156 53.9062 55.3281
Q53.9062 49.2656 50.4375 45.0938
Q46.9688 40.9219 40.5781 39.3125" id="BitstreamVeraSans-Roman-33"/>
       <path d="
M4.89062 31.3906
L31.2031 31.3906
L31.2031 23.3906
L4.89062 23.3906
z
" id="BitstreamVeraSans-Roman-2d"/>
      </defs>
      <g transform="translate(25.357989627 113.522249445)scale(0.1 -0.1)">
       <use xlink:href="#BitstreamVeraSans-Roman-2d"/>
       <use x="36.083984375" xlink:href="#BitstreamVeraSans-Roman-33"/>
      </g>
     </g>
    </g>
    <g id="xtick_2">
     <g id="line2d_3">
      <defs>
       <path d="
M0 0
L0 -4" id="m4546a79a5f"/>
      </defs>
      <g>
       <use style="stroke:#000000;stroke-linecap:butt;stroke-width:0.5;" x="113.878555585" xlink:href="#m4546a79a5f" y="102.100374445"/>
      </g>
     </g>
     <g id="text_2">
      <!-- -2 -->
      <defs>
       <path d="
M19.1875 8.29688
L53.6094 8.29688
L53.6094 0
L7.32812 0
L7.32812 8.29688
Q12.9375 14.1094 22.625 23.8906
Q32.3281 33.6875 34.8125 36.5312
Q39.5469 41.8438 41.4219 45.5312
Q43.3125 49.2188 43.3125 52.7812
Q43.3125 58.5938 39.2344 62.25
Q35.1562 65.9219 28.6094 65.9219
Q23.9688 65.9219 18.8125 64.3125
Q13.6719 62.7031 7.8125 59.4219
L7.8125 69.3906
Q13.7656 71.7812 18.9375 73
Q24.125 74.2188 28.4219 74.2188
Q39.75 74.2188 46.4844 68.5469
Q53.2188 62.8906 53.2188 53.4219
Q53.2188 48.9219 51.5312 44.8906
Q49.8594 40.875 45.4062 35.4062
Q44.1875 33.9844 37.6406 27.2188
Q31.1094 20.4531 19.1875 8.29688" id="BitstreamVeraSans-Roman-32"/>
      </defs>
      <g transform="translate(109.638711835 113.522249445)scale(0.1 -0.1)">
       <use xlink:href="#BitstreamVeraSans-Roman-2d"/>
       <use x="36.083984375" xlink:href="#BitstreamVeraSans-Roman-32"/>
      </g>
     </g>
    </g>
    <g id="xtick_3">
     <g id="line2d_4">
      <defs>
       <path d="
M0 0
L0 -4" id="m4546a79a5f"/>
      </defs>
      <g>
       <use style="stroke:#000000;stroke-linecap:butt;stroke-width:0.5;" x="198.059277792" xlink:href="#m4546a79a5f" y="102.100374445"/>
      </g>
     </g>
     <g id="text_3">
      <!-- -1 -->
      <defs>
       <path d="
M12.4062 8.29688
L28.5156 8.29688
L28.5156 63.9219
L10.9844 60.4062
L10.9844 69.3906
L28.4219 72.9062
L38.2812 72.9062
L38.2812 8.29688
L54.3906 8.29688
L54.3906 0
L12.4062 0
z
" id="BitstreamVeraSans-Roman-31"/>
      </defs>
      <g transform="translate(193.780371542 113.390999445)scale(0.1 -0.1)">
       <use xlink:href="#BitstreamVeraSans-Roman-2d"/>
       <use x="36.083984375" xlink:href="#BitstreamVeraSans-Roman-31"/>
      </g>
     </g>
    </g>
    <g id="xtick_4">
     <g id="line2d_5">
      <defs>
       <path d="
M0 0
L0 -4" id="m4546a79a5f"/>
      </defs>
      <g>
       <use style="stroke:#000000;stroke-linecap:butt;stroke-width:0.5;" x="282.24" xlink:href="#m4546a79a5f" y="102.100374445"/>
      </g>
     </g>
    </g>
    <g id="xtick_5">
     <g id="line2d_6">
      <defs>
       <path d="
M0 0
L0 -4" id="m4546a79a5f"/>
      </defs>
      <g>
       <use style="stroke:#000000;stroke-linecap:butt;stroke-width:0.5;" x="366.420722208" xlink:href="#m4546a79a5f" y="102.100374445"/>
      </g>
     </g>
     <g id="text_4">
      <!-- 1 -->
      <g transform="translate(364.250409708 113.390999445)scale(0.1 -0.1)">
       <use xlink:href="#BitstreamVeraSans-Roman-31"/>
      </g>
     </g>
    </g>
    <g id="xtick_6">
     <g id="line2d_7">
      <defs>
       <path d="
M0 0
L0 -4" id="m4546a79a5f"/>
      </defs>
      <g>
       <use style="stroke:#000000;stroke-linecap:butt;stroke-width:0.5;" x="450.601444415" xlink:href="#m4546a79a5f" y="102.100374445"/>
      </g>
     </g>
     <g id="text_5">
      <!-- 2 -->
      <g transform="translate(448.287381915 113.522249445)scale(0.1 -0.1)">
       <use xlink:href="#BitstreamVeraSans-Roman-32"/>
      </g>
     </g>
    </g>
    <g id="xtick_7">
     <g id="line2d_8">
      <defs>
       <path d="
M0 0
L0 -4" id="m4546a79a5f"/>
      </defs>
      <g>
       <use style="stroke:#000000;stroke-linecap:butt;stroke-width:0.5;" x="534.782166623" xlink:href="#m4546a79a5f" y="102.100374445"/>
      </g>
     </g>
     <g id="text_6">
      <!-- 3 -->
      <g transform="translate(532.382947873 113.522249445)scale(0.1 -0.1)">
       <use xlink:href="#BitstreamVeraSans-Roman-33"/>
      </g>
     </g>
    </g>
    <g id="xtick_8">
     <g id="line2d_9">
      <defs>
       <path d="
M0 0
L0 -2" id="m414e1af992"/>
      </defs>
      <g>
       <use style="stroke:#000000;stroke-linecap:butt;stroke-width:0.5;" x="12.8616889354" xlink:href="#m414e1af992" y="102.100374445"/>
      </g>
     </g>
    </g>
    <g id="xtick_9">
     <g id="line2d_10">
      <defs>
       <path d="
M0 0
L0 -2" id="m414e1af992"/>
      </defs>
      <g>
       <use style="stroke:#000000;stroke-linecap:butt;stroke-width:0.5;" x="46.5339778185" xlink:href="#m414e1af992" y="102.100374445"/>
      </g>
     </g>
    </g>
    <g id="xtick_10">
     <g id="line2d_11">
      <defs>
       <path d="
M0 0
L0 -2" id="m414e1af992"/>
      </defs>
      <g>
       <use style="stroke:#000000;stroke-linecap:butt;stroke-width:0.5;" x="63.37012226" xlink:href="#m414e1af992" y="102.100374445"/>
      </g>
     </g>
    </g>
    <g id="xtick_11">
     <g id="line2d_12">
      <defs>
       <path d="
M0 0
L0 -2" id="m414e1af992"/>
      </defs>
      <g>
       <use style="stroke:#000000;stroke-linecap:butt;stroke-width:0.5;" x="80.2062667016" xlink:href="#m414e1af992" y="102.100374445"/>
      </g>
     </g>
    </g>
    <g id="xtick_12">
     <g id="line2d_13">
      <defs>
       <path d="
M0 0
L0 -2" id="m414e1af992"/>
      </defs>
      <g>
       <use style="stroke:#000000;stroke-linecap:butt;stroke-width:0.5;" x="97.0424111431" xlink:href="#m414e1af992" y="102.100374445"/>
      </g>
     </g>
    </g>
    <g id="xtick_13">
     <g id="line2d_14">
      <defs>
       <path d="
M0 0
L0 -2" id="m414e1af992"/>
      </defs>
      <g>
       <use style="stroke:#000000;stroke-linecap:butt;stroke-width:0.5;" x="130.714700026" xlink:href="#m414e1af992" y="102.100374445"/>
      </g>
     </g>
    </g>
    <g id="xtick_14">
     <g id="line2d_15">
      <defs>
       <path d="
M0 0
L0 -2" id="m414e1af992"/>
      </defs>
      <g>
       <use style="stroke:#000000;stroke-linecap:butt;stroke-width:0.5;" x="147.550844468" xlink:href="#m414e1af992" y="102.100374445"/>
      </g>
     </g>
    </g>
    <g id="xtick_15">
     <g id="line2d_16">
      <defs>
       <path d="
M0 0
L0 -2" id="m414e1af992"/>
      </defs>
      <g>
       <use style="stroke:#000000;stroke-linecap:butt;stroke-width:0.5;" x="164.386988909" xlink:href="#m414e1af992" y="102.100374445"/>
      </g>
     </g>
    </g>
    <g id="xtick_16">
     <g id="line2d_17">
      <defs>
       <path d="
M0 0
L0 -2" id="m414e1af992"/>
      </defs>
      <g>
       <use style="stroke:#000000;stroke-linecap:butt;stroke-width:0.5;" x="181.223133351" xlink:href="#m414e1af992" y="102.100374445"/>
      </g>
     </g>
    </g>
    <g id="xtick_17">
     <g id="line2d_18">
      <defs>
       <path d="
M0 0
L0 -2" id="m414e1af992"/>
      </defs>
      <g>
       <use style="stroke:#000000;stroke-linecap:butt;stroke-width:0.5;" x="198.059277792" xlink:href="#m414e1af992" y="102.100374445"/>
      </g>
     </g>
    </g>
    <g id="xtick_18">
     <g id="line2d_19">
      <defs>
       <path d="
M0 0
L0 -2" id="m414e1af992"/>
      </defs>
      <g>
       <use style="stroke:#000000;stroke-linecap:butt;stroke-width:0.5;" x="214.895422234" xlink:href="#m414e1af992" y="102.100374445"/>
      </g>
     </g>
    </g>
    <g id="xtick_19">
     <g id="line2d_20">
      <defs>
       <path d="
M0 0
L0 -2" id="m414e1af992"/>
      </defs>
      <g>
       <use style="stroke:#000000;stroke-linecap:butt;stroke-width:0.5;" x="231.731566675" xlink:href="#m414e1af992" y="102.100374445"/>
      </g>
     </g>
    </g>
    <g id="xtick_20">
     <g id="line2d_21">
      <defs>
       <path d="
M0 0
L0 -2" id="m414e1af992"/>
      </defs>
      <g>
       <use style="stroke:#000000;stroke-linecap:butt;stroke-width:0.5;" x="248.567711117" xlink:href="#m414e1af992" y="102.100374445"/>
      </g>
     </g>
    </g>
    <g id="xtick_21">
     <g id="line2d_22">
      <defs>
       <path d="
M0 0
L0 -2" id="m414e1af992"/>
      </defs>
      <g>
       <use style="stroke:#000000;stroke-linecap:butt;stroke-width:0.5;" x="265.403855558" xlink:href="#m414e1af992" y="102.100374445"/>
      </g>
     </g>
    </g>
    <g id="xtick_22">
     <g id="line2d_23">
      <defs>
       <path d="
M0 0
L0 -2" id="m414e1af992"/>
      </defs>
      <g>
       <use style="stroke:#000000;stroke-linecap:butt;stroke-width:0.5;" x="282.24" xlink:href="#m414e1af992" y="102.100374445"/>
      </g>
     </g>
    </g>
    <g id="xtick_23">
     <g id="line2d_24">
      <defs>
       <path d="
M0 0
L0 -2" id="m414e1af992"/>
      </defs>
      <g>
       <use style="stroke:#000000;stroke-linecap:butt;stroke-width:0.5;" x="299.076144442" xlink:href="#m414e1af992" y="102.100374445"/>
      </g>
     </g>
    </g>
    <g id="xtick_24">
     <g id="line2d_25">
      <defs>
       <path d="
M0 0
L0 -2" id="m414e1af992"/>
      </defs>
      <g>
       <use style="stroke:#000000;stroke-linecap:butt;stroke-width:0.5;" x="315.912288883" xlink:href="#m414e1af992" y="102.100374445"/>
      </g>
     </g>
    </g>
    <g id="xtick_25">
     <g id="line2d_26">
      <defs>
       <path d="
M0 0
L0 -2" id="m414e1af992"/>
      </defs>
      <g>
       <use style="stroke:#000000;stroke-linecap:butt;stroke-width:0.5;" x="332.748433325" xlink:href="#m414e1af992" y="102.100374445"/>
      </g>
     </g>
    </g>
    <g id="xtick_26">
     <g id="line2d_27">
      <defs>
       <path d="
M0 0
L0 -2" id="m414e1af992"/>
      </defs>
      <g>
       <use style="stroke:#000000;stroke-linecap:butt;stroke-width:0.5;" x="349.584577766" xlink:href="#m414e1af992" y="102.100374445"/>
      </g>
     </g>
    </g>
    <g id="xtick_27">
     <g id="line2d_28">
      <defs>
       <path d="
M0 0
L0 -2" id="m414e1af992"/>
      </defs>
      <g>
       <use style="stroke:#000000;stroke-linecap:butt;stroke-width:0.5;" x="366.420722208" xlink:href="#m414e1af992" y="102.100374445"/>
      </g>
     </g>
    </g>
    <g id="xtick_28">
     <g id="line2d_29">
      <defs>
       <path d="
M0 0
L0 -2" id="m414e1af992"/>
      </defs>
      <g>
       <use style="stroke:#000000;stroke-linecap:butt;stroke-width:0.5;" x="383.256866649" xlink:href="#m414e1af992" y="102.100374445"/>
      </g>
     </g>
    </g>
    <g id="xtick_29">
     <g id="line2d_30">
      <defs>
       <path d="
M0 0
L0 -2" id="m414e1af992"/>
      </defs>
      <g>
       <use style="stroke:#000000;stroke-linecap:butt;stroke-width:0.5;" x="400.093011091" xlink:href="#m414e1af992" y="102.100374445"/>
      </g>
     </g>
    </g>
    <g id="xtick_30">
     <g id="line2d_31">
      <defs>
       <path d="
M0 0
L0 -2" id="m414e1af992"/>
      </defs>
      <g>
       <use style="stroke:#000000;stroke-linecap:butt;stroke-width:0.5;" x="416.929155532" xlink:href="#m414e1af992" y="102.100374445"/>
      </g>
     </g>
    </g>
    <g id="xtick_31">
     <g id="line2d_32">
      <defs>
       <path d="
M0 0
L0 -2" id="m414e1af992"/>
      </defs>
      <g>
       <use style="stroke:#000000;stroke-linecap:butt;stroke-width:0.5;" x="433.765299974" xlink:href="#m414e1af992" y="102.100374445"/>
      </g>
     </g>
    </g>
    <g id="xtick_32">
     <g id="line2d_33">
      <defs>
       <path d="
M0 0
L0 -2" id="m414e1af992"/>
      </defs>
      <g>
       <use style="stroke:#000000;stroke-linecap:butt;stroke-width:0.5;" x="450.601444415" xlink:href="#m414e1af992" y="102.100374445"/>
      </g>
     </g>
    </g>
    <g id="xtick_33">
     <g id="line2d_34">
      <defs>
       <path d="
M0 0
L0 -2" id="m414e1af992"/>
      </defs>
      <g>
       <use style="stroke:#000000;stroke-linecap:butt;stroke-width:0.5;" x="467.437588857" xlink:href="#m414e1af992" y="102.100374445"/>
      </g>
     </g>
    </g>
    <g id="xtick_34">
     <g id="line2d_35">
      <defs>
       <path d="
M0 0
L0 -2" id="m414e1af992"/>
      </defs>
      <g>
       <use style="stroke:#000000;stroke-linecap:butt;stroke-width:0.5;" x="484.273733298" xlink:href="#m414e1af992" y="102.100374445"/>
      </g>
     </g>
    </g>
    <g id="xtick_35">
     <g id="line2d_36">
      <defs>
       <path d="
M0 0
L0 -2" id="m414e1af992"/>
      </defs>
      <g>
       <use style="stroke:#000000;stroke-linecap:butt;stroke-width:0.5;" x="501.10987774" xlink:href="#m414e1af992" y="102.100374445"/>
      </g>
     </g>
    </g>
    <g id="xtick_36">
     <g id="line2d_37">
      <defs>
       <path d="
M0 0
L0 -2" id="m414e1af992"/>
      </defs>
      <g>
       <use style="stroke:#000000;stroke-linecap:butt;stroke-width:0.5;" x="517.946022182" xlink:href="#m414e1af992" y="102.100374445"/>
      </g>
     </g>
    </g>
    <g id="xtick_37">
     <g id="line2d_38">
      <defs>
       <path d="
M0 0
L0 -2" id="m414e1af992"/>
      </defs>
      <g>
       <use style="stroke:#000000;stroke-linecap:butt;stroke-width:0.5;" x="534.782166623" xlink:href="#m414e1af992" y="102.100374445"/>
      </g>
     </g>
    </g>
   </g>
   <g id="matplotlib.axis_2">
    <g id="ytick_1">
     <g id="line2d_39">
      <defs>
       <path d="
M0 0
L4 0" id="mcc38795cb5"/>
      </defs>
      <g>
       <use style="stroke:#000000;stroke-linecap:butt;stroke-width:0.5;" x="282.24" xlink:href="#mcc38795cb5" y="193.218717641"/>
      </g>
     </g>
     <g id="text_7">
      <!-- -3 -->
      <g transform="translate(269.5603125 196.858561391)scale(0.1 -0.1)">
       <use xlink:href="#BitstreamVeraSans-Roman-2d"/>
       <use x="36.083984375" xlink:href="#BitstreamVeraSans-Roman-33"/>
      </g>
     </g>
    </g>
    <g id="ytick_2">
     <g id="line2d_40">
      <defs>
       <path d="
M0 0
L4 0" id="mcc38795cb5"/>
      </defs>
      <g>
       <use style="stroke:#000000;stroke-linecap:butt;stroke-width:0.5;" x="282.24" xlink:href="#mcc38795cb5" y="162.845936575"/>
      </g>
     </g>
     <g id="text_8">
      <!-- -2 -->
      <g transform="translate(269.7603125 166.556874075)scale(0.1 -0.1)">
       <use xlink:href="#BitstreamVeraSans-Roman-2d"/>
       <use x="36.083984375" xlink:href="#BitstreamVeraSans-Roman-32"/>
      </g>
     </g>
    </g>
    <g id="ytick_3">
     <g id="line2d_41">
      <defs>
       <path d="
M0 0
L4 0" id="mcc38795cb5"/>
      </defs>
      <g>
       <use style="stroke:#000000;stroke-linecap:butt;stroke-width:0.5;" x="282.24" xlink:href="#mcc38795cb5" y="132.47315551"/>
      </g>
     </g>
     <g id="text_9">
      <!-- -1 -->
      <g transform="translate(269.6821875 136.11846801)scale(0.1 -0.1)">
       <use xlink:href="#BitstreamVeraSans-Roman-2d"/>
       <use x="36.083984375" xlink:href="#BitstreamVeraSans-Roman-31"/>
      </g>
     </g>
    </g>
    <g id="ytick_4">
     <g id="line2d_42">
      <defs>
       <path d="
M0 0
L4 0" id="mcc38795cb5"/>
      </defs>
      <g>
       <use style="stroke:#000000;stroke-linecap:butt;stroke-width:0.5;" x="282.24" xlink:href="#mcc38795cb5" y="102.100374445"/>
      </g>
     </g>
    </g>
    <g id="ytick_5">
     <g id="line2d_43">
      <defs>
       <path d="
M0 0
L4 0" id="mcc38795cb5"/>
      </defs>
      <g>
       <use style="stroke:#000000;stroke-linecap:butt;stroke-width:0.5;" x="282.24" xlink:href="#mcc38795cb5" y="71.7275933802"/>
      </g>
     </g>
     <g id="text_10">
      <!-- 1 -->
      <g transform="translate(273.899375 75.3729058802)scale(0.1 -0.1)">
       <use xlink:href="#BitstreamVeraSans-Roman-31"/>
      </g>
     </g>
    </g>
    <g id="ytick_6">
     <g id="line2d_44">
      <defs>
       <path d="
M0 0
L4 0" id="mcc38795cb5"/>
      </defs>
      <g>
       <use style="stroke:#000000;stroke-linecap:butt;stroke-width:0.5;" x="282.24" xlink:href="#mcc38795cb5" y="41.3548123151"/>
      </g>
     </g>
     <g id="text_11">
      <!-- 2 -->
      <g transform="translate(273.611875 45.0657498151)scale(0.1 -0.1)">
       <use xlink:href="#BitstreamVeraSans-Roman-32"/>
      </g>
     </g>
    </g>
    <g id="ytick_7">
     <g id="line2d_45">
      <defs>
       <path d="
M0 0
L4 0" id="mcc38795cb5"/>
      </defs>
      <g>
       <use style="stroke:#000000;stroke-linecap:butt;stroke-width:0.5;" x="282.24" xlink:href="#mcc38795cb5" y="10.98203125"/>
      </g>
     </g>
     <g id="text_12">
      <!-- 3 -->
      <g transform="translate(273.4415625 14.621875)scale(0.1 -0.1)">
       <use xlink:href="#BitstreamVeraSans-Roman-33"/>
      </g>
     </g>
    </g>
    <g id="ytick_8">
     <g id="line2d_46">
      <defs>
       <path d="
M0 0
L2 0" id="md6f4eddc85"/>
      </defs>
      <g>
       <use style="stroke:#000000;stroke-linecap:butt;stroke-width:0.5;" x="282.24" xlink:href="#md6f4eddc85" y="187.144161428"/>
      </g>
     </g>
    </g>
    <g id="ytick_9">
     <g id="line2d_47">
      <defs>
       <path d="
M0 0
L2 0" id="md6f4eddc85"/>
      </defs>
      <g>
       <use style="stroke:#000000;stroke-linecap:butt;stroke-width:0.5;" x="282.24" xlink:href="#md6f4eddc85" y="181.069605214"/>
      </g>
     </g>
    </g>
    <g id="ytick_10">
     <g id="line2d_48">
      <defs>
       <path d="
M0 0
L2 0" id="md6f4eddc85"/>
      </defs>
      <g>
       <use style="stroke:#000000;stroke-linecap:butt;stroke-width:0.5;" x="282.24" xlink:href="#md6f4eddc85" y="174.995049001"/>
      </g>
     </g>
    </g>
    <g id="ytick_11">
     <g id="line2d_49">
      <defs>
       <path d="
M0 0
L2 0" id="md6f4eddc85"/>
      </defs>
      <g>
       <use style="stroke:#000000;stroke-linecap:butt;stroke-width:0.5;" x="282.24" xlink:href="#md6f4eddc85" y="168.920492788"/>
      </g>
     </g>
    </g>
    <g id="ytick_12">
     <g id="line2d_50">
      <defs>
       <path d="
M0 0
L2 0" id="md6f4eddc85"/>
      </defs>
      <g>
       <use style="stroke:#000000;stroke-linecap:butt;stroke-width:0.5;" x="282.24" xlink:href="#md6f4eddc85" y="156.771380362"/>
      </g>
     </g>
    </g>
    <g id="ytick_13">
     <g id="line2d_51">
      <defs>
       <path d="
M0 0
L2 0" id="md6f4eddc85"/>
      </defs>
      <g>
       <use style="stroke:#000000;stroke-linecap:butt;stroke-width:0.5;" x="282.24" xlink:href="#md6f4eddc85" y="150.696824149"/>
      </g>
     </g>
    </g>
    <g id="ytick_14">
     <g id="line2d_52">
      <defs>
       <path d="
M0 0
L2 0" id="md6f4eddc85"/>
      </defs>
      <g>
       <use style="stroke:#000000;stroke-linecap:butt;stroke-width:0.5;" x="282.24" xlink:href="#md6f4eddc85" y="144.622267936"/>
      </g>
     </g>
    </g>
    <g id="ytick_15">
     <g id="line2d_53">
      <defs>
       <path d="
M0 0
L2 0" id="md6f4eddc85"/>
      </defs>
      <g>
       <use style="stroke:#000000;stroke-linecap:butt;stroke-width:0.5;" x="282.24" xlink:href="#md6f4eddc85" y="138.547711723"/>
      </g>
     </g>
    </g>
    <g id="ytick_16">
     <g id="line2d_54">
      <defs>
       <path d="
M0 0
L2 0" id="md6f4eddc85"/>
      </defs>
      <g>
       <use style="stroke:#000000;stroke-linecap:butt;stroke-width:0.5;" x="282.24" xlink:href="#md6f4eddc85" y="132.47315551"/>
      </g>
     </g>
    </g>
    <g id="ytick_17">
     <g id="line2d_55">
      <defs>
       <path d="
M0 0
L2 0" id="md6f4eddc85"/>
      </defs>
      <g>
       <use style="stroke:#000000;stroke-linecap:butt;stroke-width:0.5;" x="282.24" xlink:href="#md6f4eddc85" y="126.398599297"/>
      </g>
     </g>
    </g>
    <g id="ytick_18">
     <g id="line2d_56">
      <defs>
       <path d="
M0 0
L2 0" id="md6f4eddc85"/>
      </defs>
      <g>
       <use style="stroke:#000000;stroke-linecap:butt;stroke-width:0.5;" x="282.24" xlink:href="#md6f4eddc85" y="120.324043084"/>
      </g>
     </g>
    </g>
    <g id="ytick_19">
     <g id="line2d_57">
      <defs>
       <path d="
M0 0
L2 0" id="md6f4eddc85"/>
      </defs>
      <g>
       <use style="stroke:#000000;stroke-linecap:butt;stroke-width:0.5;" x="282.24" xlink:href="#md6f4eddc85" y="114.249486871"/>
      </g>
     </g>
    </g>
    <g id="ytick_20">
     <g id="line2d_58">
      <defs>
       <path d="
M0 0
L2 0" id="md6f4eddc85"/>
      </defs>
      <g>
       <use style="stroke:#000000;stroke-linecap:butt;stroke-width:0.5;" x="282.24" xlink:href="#md6f4eddc85" y="108.174930658"/>
      </g>
     </g>
    </g>
    <g id="ytick_21">
     <g id="line2d_59">
      <defs>
       <path d="
M0 0
L2 0" id="md6f4eddc85"/>
      </defs>
      <g>
       <use style="stroke:#000000;stroke-linecap:butt;stroke-width:0.5;" x="282.24" xlink:href="#md6f4eddc85" y="102.100374445"/>
      </g>
     </g>
    </g>
    <g id="ytick_22">
     <g id="line2d_60">
      <defs>
       <path d="
M0 0
L2 0" id="md6f4eddc85"/>
      </defs>
      <g>
       <use style="stroke:#000000;stroke-linecap:butt;stroke-width:0.5;" x="282.24" xlink:href="#md6f4eddc85" y="96.0258182322"/>
      </g>
     </g>
    </g>
    <g id="ytick_23">
     <g id="line2d_61">
      <defs>
       <path d="
M0 0
L2 0" id="md6f4eddc85"/>
      </defs>
      <g>
       <use style="stroke:#000000;stroke-linecap:butt;stroke-width:0.5;" x="282.24" xlink:href="#md6f4eddc85" y="89.9512620192"/>
      </g>
     </g>
    </g>
    <g id="ytick_24">
     <g id="line2d_62">
      <defs>
       <path d="
M0 0
L2 0" id="md6f4eddc85"/>
      </defs>
      <g>
       <use style="stroke:#000000;stroke-linecap:butt;stroke-width:0.5;" x="282.24" xlink:href="#md6f4eddc85" y="83.8767058062"/>
      </g>
     </g>
    </g>
    <g id="ytick_25">
     <g id="line2d_63">
      <defs>
       <path d="
M0 0
L2 0" id="md6f4eddc85"/>
      </defs>
      <g>
       <use style="stroke:#000000;stroke-linecap:butt;stroke-width:0.5;" x="282.24" xlink:href="#md6f4eddc85" y="77.8021495932"/>
      </g>
     </g>
    </g>
    <g id="ytick_26">
     <g id="line2d_64">
      <defs>
       <path d="
M0 0
L2 0" id="md6f4eddc85"/>
      </defs>
      <g>
       <use style="stroke:#000000;stroke-linecap:butt;stroke-width:0.5;" x="282.24" xlink:href="#md6f4eddc85" y="71.7275933802"/>
      </g>
     </g>
    </g>
    <g id="ytick_27">
     <g id="line2d_65">
      <defs>
       <path d="
M0 0
L2 0" id="md6f4eddc85"/>
      </defs>
      <g>
       <use style="stroke:#000000;stroke-linecap:butt;stroke-width:0.5;" x="282.24" xlink:href="#md6f4eddc85" y="65.6530371672"/>
      </g>
     </g>
    </g>
    <g id="ytick_28">
     <g id="line2d_66">
      <defs>
       <path d="
M0 0
L2 0" id="md6f4eddc85"/>
      </defs>
      <g>
       <use style="stroke:#000000;stroke-linecap:butt;stroke-width:0.5;" x="282.24" xlink:href="#md6f4eddc85" y="59.5784809541"/>
      </g>
     </g>
    </g>
    <g id="ytick_29">
     <g id="line2d_67">
      <defs>
       <path d="
M0 0
L2 0" id="md6f4eddc85"/>
      </defs>
      <g>
       <use style="stroke:#000000;stroke-linecap:butt;stroke-width:0.5;" x="282.24" xlink:href="#md6f4eddc85" y="53.5039247411"/>
      </g>
     </g>
    </g>
    <g id="ytick_30">
     <g id="line2d_68">
      <defs>
       <path d="
M0 0
L2 0" id="md6f4eddc85"/>
      </defs>
      <g>
       <use style="stroke:#000000;stroke-linecap:butt;stroke-width:0.5;" x="282.24" xlink:href="#md6f4eddc85" y="47.4293685281"/>
      </g>
     </g>
    </g>
    <g id="ytick_31">
     <g id="line2d_69">
      <defs>
       <path d="
M0 0
L2 0" id="md6f4eddc85"/>
      </defs>
      <g>
       <use style="stroke:#000000;stroke-linecap:butt;stroke-width:0.5;" x="282.24" xlink:href="#md6f4eddc85" y="41.3548123151"/>
      </g>
     </g>
    </g>
    <g id="ytick_32">
     <g id="line2d_70">
      <defs>
       <path d="
M0 0
L2 0" id="md6f4eddc85"/>
      </defs>
      <g>
       <use style="stroke:#000000;stroke-linecap:butt;stroke-width:0.5;" x="282.24" xlink:href="#md6f4eddc85" y="35.2802561021"/>
      </g>
     </g>
    </g>
    <g id="ytick_33">
     <g id="line2d_71">
      <defs>
       <path d="
M0 0
L2 0" id="md6f4eddc85"/>
      </defs>
      <g>
       <use style="stroke:#000000;stroke-linecap:butt;stroke-width:0.5;" x="282.24" xlink:href="#md6f4eddc85" y="29.2056998891"/>
      </g>
     </g>
    </g>
    <g id="ytick_34">
     <g id="line2d_72">
      <defs>
       <path d="
M0 0
L2 0" id="md6f4eddc85"/>
      </defs>
      <g>
       <use style="stroke:#000000;stroke-linecap:butt;stroke-width:0.5;" x="282.24" xlink:href="#md6f4eddc85" y="23.131143676"/>
      </g>
     </g>
    </g>
    <g id="ytick_35">
     <g id="line2d_73">
      <defs>
       <path d="
M0 0
L2 0" id="md6f4eddc85"/>
      </defs>
      <g>
       <use style="stroke:#000000;stroke-linecap:butt;stroke-width:0.5;" x="282.24" xlink:href="#md6f4eddc85" y="17.056587463"/>
      </g>
     </g>
    </g>
   </g>
   <g id="patch_3">
    <path d="
M7.2 102.1
L557.28 102.1" style="fill:none;stroke:#000000;stroke-width:0.8;"/>
   </g>
   <g id="patch_4">
    <path d="
M282.24 196.863
L282.24 7.3373" style="fill:none;stroke:#000000;stroke-width:0.8;"/>
   </g>
  </g>
 </g>
 <defs>
  <clipPath id="p192cf5743b">
   <rect height="189.526153846" width="550.08" x="7.2" y="7.33729752219"/>
  </clipPath>
 </defs>
</svg>
