<?xml version="1.0" encoding="utf-8" standalone="no"?>
<!DOCTYPE svg PUBLIC "-//W3C//DTD SVG 1.1//EN"
  "http://www.w3.org/Graphics/SVG/1.1/DTD/svg11.dtd">
<!-- Created with matplotlib (http://matplotlib.sourceforge.net/) -->
<svg height="289pt" version="1.1" viewBox="0 0 564 289" width="564pt" xmlns="http://www.w3.org/2000/svg" xmlns:xlink="http://www.w3.org/1999/xlink">
 <defs>
  <style type="text/css">
*{stroke-linecap:square;stroke-linejoin:round;}
  </style>
 </defs>
 <g id="figure_1">
  <g id="patch_1">
   <path d="
M0 289.44
L564.48 289.44
L564.48 0
L0 0
z
" style="fill:#ffffff;"/>
  </g>
  <g id="axes_1">
   <g id="patch_2">
    <path d="
M7.2 282.24
L557.28 282.24
L557.28 7.2
L7.2 7.2
z
" style="fill:#ffffff;"/>
   </g>
   <g id="patch_3">
    <path clip-path="url(#p4c9e24ada2)" d="
M546.702 130.028
L546.7 129.467
L546.689 128.514
L546.682 128.193
L546.661 127.367
L546.637 126.664
L546.605 125.903
L546.569 125.187
L546.52 124.371
L546.457 123.47
L546.438 123.217
L546.34 122.055
L546.318 121.816
L546.27 121.314
L546.165 120.314
L546.089 119.65
L546.038 119.23
L545.947 118.521
L545.789 117.374
L545.723 116.932
L545.563 115.906
L545.54 115.765
L545.341 114.602
L545.307 114.411
L545.17 113.669
L545.058 113.083
L544.885 112.224
L544.706 111.379
L544.614 110.959
L544.361 109.849
L544.285 109.528
L544.156 108.998
L543.924 108.073
L543.729 107.33
L543.552 106.675
L543.375 106.041
L543.175 105.344
L542.869 104.317
L542.676 103.692
L542.568 103.351
L542.322 102.587
L542.187 102.178
L541.938 101.442
L541.56 100.361
L541.457 100.075
L541.166 99.2815
L540.964 98.7441
L540.705 98.0692
L540.444 97.4079
L540.235 96.8865
L539.828 95.9009
L539.577 95.3104
L539.364 94.8158
L539.059 94.1251
L538.887 93.7419
L538.553 93.0106
L538.267 92.3992
L538.058 91.9597
L537.726 91.2729
L537.159 90.1357
L537.019 89.8602
L536.527 88.9133
L536.338 88.5585
L536.064 88.0476
L535.76 87.4919
L535.271 86.6161
L534.937 86.0307
L534.542 85.3511
L534.264 84.8816
L533.829 84.1595
L533.711 83.9679
L533.161 83.0821
L532.753 82.4392
L532.358 81.8288
L532.007 81.2949
L531.572 80.6461
L531.421 80.4234
L530.944 79.7294
L530.447 79.0222
L529.912 78.2756
L529.729 78.0246
L529.4 77.5774
L528.662 76.5946
L528.562 76.464
L528.033 75.7792
L527.718 75.3776
L527.047 74.5392
L526.522 73.8976
L526.137 73.4344
L525.934 73.1924
L525.37 72.5308
L524.806 71.882
L524.292 71.3013
L524.028 71.0071
L523.714 70.6603
L522.954 69.8373
L522.657 69.5209
L521.935 68.7651
L521.512 68.3298
L521.239 68.0525
L520.473 67.2869
L519.94 66.7657
L519.661 66.4957
L519.366 66.214
L518.374 65.2831
L518.116 65.0451
L517.781 64.7396
L517.167 64.1876
L516.609 63.6954
L515.954 63.1274
L515.475 62.7199
L514.887 62.227
L514.525 61.9273
L513.985 61.4875
L513.319 60.9537
L512.597 60.3872
L512.034 59.9543
L511.463 59.5219
L510.996 59.1736
L510.437 58.7635
L509.974 58.4283
L509.726 58.2507
L508.999 57.7381
L508.23 57.2077
L507.486 56.7054
L507.118 56.4612
L506.591 56.1158
L505.818 55.6193
L505.321 55.3055
L504.727 54.9372
L504.084 54.5454
L503.84 54.3987
L503.099 53.9601
L502.347 53.5244
L502.053 53.3572
L501.169 52.862
L500.367 52.4247
L500.096 52.279
L499.294 51.8559
L498.458 51.4257
L498.039 51.2144
L497.747 51.069
L496.977 50.6912
L496.38 50.4046
L495.384 49.9389
L495.017 49.7715
L494.564 49.5671
L493.859 49.2549
L493.149 48.9483
L492.152 48.5303
L492.047 48.4869
L491.254 48.1656
L490.283 47.7842
L490.17 47.741
L489.057 47.3218
L488.316 47.0523
L487.786 46.864
L487.246 46.6759
L486.833 46.5349
L486.173 46.3141
L485.251 46.0157
L484.319 45.7251
L483.789 45.5648
L483.155 45.3778
L482.601 45.2188
L481.95 45.0368
L480.94 44.7651
L480.688 44.6994
L480.079 44.5437
L479.223 44.3327
L478.274 44.1092
L477.775 43.9963
L477.265 43.8838
L476.633 43.749
L476.006 43.6199
L475.325 43.485
L474.4 43.311
L474.047 43.2472
L473.198 43.0998
L472.644 43.0082
L471.412 42.8175
L470.767 42.7249
L470.377 42.6712
L469.693 42.5812
L469.204 42.5203
L468.367 42.4225
L467.711 42.3514
L466.66 42.2479
L466.186 42.2054
L465.569 42.1539
L464.62 42.0832
L463.957 42.0399
L463.508 42.0135
L462.77 41.975
L462.292 41.9534
L461.674 41.9293
L460.358 41.8924
L459.79 41.8826
L459.569 41.8798
L458.548 41.8738
L546.702 130.028" style="fill:#008000;opacity:0.5;"/>
   </g>
   <g id="patch_4">
    <path clip-path="url(#p4c9e24ada2)" d="
M458.548 130.028
L546.702 130.028
L458.548 41.8738
L458.548 130.028" style="fill:#008000;opacity:0.5;"/>
   </g>
   <g id="patch_5">
    <path clip-path="url(#p4c9e24ada2)" d="
M370.394 130.028
L370.396 130.617
L370.405 131.43
L370.412 131.794
L370.443 132.975
L370.465 133.564
L370.508 134.51
L370.516 134.672
L370.582 135.788
L370.607 136.154
L370.659 136.863
L370.703 137.408
L370.808 138.565
L370.829 138.781
L370.94 139.83
L371.025 140.556
L371.14 141.473
L371.216 142.037
L371.256 142.327
L371.435 143.535
L371.531 144.141
L371.65 144.854
L371.766 145.523
L371.835 145.9
L372.034 146.955
L372.085 147.21
L372.176 147.662
L372.426 148.848
L372.523 149.287
L372.741 150.235
L372.82 150.567
L373.074 151.602
L373.278 152.393
L373.288 152.43
L373.593 153.561
L373.749 154.116
L374.017 155.04
L374.068 155.213
L374.298 155.97
L374.537 156.735
L374.819 157.607
L374.894 157.833
L375.092 158.422
L375.426 159.385
L375.714 160.189
L375.853 160.567
L376.091 161.206
L376.422 162.065
L376.753 162.903
L376.862 163.171
L377.253 164.119
L377.527 164.766
L377.759 165.303
L377.857 165.525
L378.395 166.723
L378.492 166.936
L378.944 167.901
L379.063 168.149
L379.34 168.722
L379.76 169.571
L380.105 170.25
L380.421 170.86
L380.713 171.415
L381.136 172.201
L381.525 172.907
L381.722 173.259
L381.948 173.658
L382.397 174.437
L382.877 175.25
L383.297 175.945
L383.443 176.184
L383.811 176.777
L384.273 177.509
L384.622 178.049
L385.12 178.807
L385.542 179.438
L385.828 179.857
L386.268 180.493
L386.5 180.823
L387.033 181.571
L387.341 181.996
L387.998 182.885
L388.308 183.296
L388.843 183.994
L389.157 184.398
L389.45 184.77
L389.821 185.235
L390.463 186.024
L390.696 186.306
L391.487 187.247
L391.652 187.439
L392.215 188.089
L392.61 188.537
L392.997 188.971
L393.687 189.729
L394.25 190.334
L394.338 190.429
L395.059 191.186
L395.56 191.702
L396.097 192.245
L396.513 192.66
L396.876 193.018
L397.427 193.552
L397.821 193.929
L398.563 194.626
L398.86 194.9
L399.708 195.67
L399.824 195.774
L400.327 196.22
L400.865 196.689
L401.486 197.222
L402.336 197.934
L402.859 198.364
L403.399 198.801
L403.758 199.087
L404.317 199.527
L404.991 200.047
L405.391 200.351
L405.884 200.721
L406.537 201.204
L406.938 201.495
L407.854 202.147
L408.136 202.345
L408.717 202.746
L409.218 203.087
L409.884 203.532
L410.408 203.876
L410.837 204.155
L411.833 204.786
L412.322 205.089
L412.945 205.469
L413.447 205.771
L413.818 205.991
L414.765 206.54
L415.22 206.799
L415.944 207.203
L416.38 207.442
L417.398 207.988
L417.453 208.017
L418.144 208.377
L419.193 208.91
L419.875 209.246
L420.333 209.468
L420.693 209.64
L421.639 210.083
L422.313 210.39
L422.63 210.532
L423.683 210.994
L423.776 211.034
L424.362 211.283
L425.272 211.66
L425.755 211.855
L426.738 212.242
L427.525 212.543
L427.941 212.698
L428.336 212.843
L428.873 213.037
L429.768 213.351
L430.567 213.623
L431.224 213.84
L431.978 214.082
L432.303 214.184
L433.01 214.401
L434.048 214.709
L434.746 214.907
L435.071 214.998
L435.561 215.132
L436.249 215.315
L436.872 215.475
L437.775 215.699
L438.578 215.89
L439.385 216.073
L439.76 216.156
L440.683 216.352
L441.307 216.479
L442.068 216.628
L442.911 216.784
L443.292 216.851
L443.826 216.944
L445.025 217.138
L445.619 217.228
L446.27 217.322
L446.728 217.386
L447.177 217.445
L448.152 217.566
L448.618 217.62
L449.815 217.748
L449.916 217.758
L451.048 217.862
L451.812 217.924
L452.445 217.97
L453.287 218.024
L453.69 218.048
L454.164 218.072
L455.118 218.115
L455.582 218.132
L456.393 218.155
L457.42 218.174
L457.603 218.176
L458.548 218.182
L370.394 130.028" style="fill:#008000;opacity:0.5;"/>
   </g>
   <g id="patch_6">
    <path clip-path="url(#p4c9e24ada2)" d="
M458.548 130.028
L370.394 130.028
L458.548 218.182
L458.548 130.028" style="fill:#008000;opacity:0.5;"/>
   </g>
   <g id="patch_7">
    <path clip-path="url(#p4c9e24ada2)" d="
M138.882 185.232
L138.445 184.798
L138.125 184.484
L137.39 183.775
L136.852 183.266
L136.555 182.989
L136.015 182.491
L135.55 182.069
L134.812 181.412
L134.441 181.087
L133.517 180.294
L133.45 180.237
L132.582 179.513
L132.282 179.267
L131.486 178.625
L131.204 178.401
L130.775 178.064
L130.134 177.569
L129.69 177.231
L128.985 176.704
L128.507 176.353
L127.552 175.666
L127.18 175.403
L126.522 174.946
L125.793 174.45
L125.449 174.219
L124.835 173.814
L124.01 173.28
L123.657 173.056
L122.964 172.622
L122.435 172.297
L122.065 172.073
L121.348 171.645
L120.965 171.42
L120.087 170.915
L119.396 170.526
L118.993 170.304
L118.335 169.946
L117.88 169.703
L117.103 169.295
L116.347 168.908
L116.018 168.742
L115.43 168.451
L114.306 167.908
L113.824 167.681
L113.576 167.566
L112.724 167.177
L111.984 166.848
L111.435 166.609
L110.847 166.358
L110.045 166.025
L109.567 165.83
L109.104 165.644
L107.912 165.181
L107.694 165.098
L106.786 164.761
L106.076 164.505
L105.698 164.372
L104.802 164.063
L104.534 163.973
L103.419 163.608
L102.987 163.471
L102.384 163.283
L101.773 163.098
L101.249 162.944
L100.066 162.607
L99.3431 162.411
L99.1044 162.347
L98.035 162.071
L97.6173 161.967
L97.0113 161.82
L96.4156 161.68
L95.2115 161.411
L94.585 161.277
L94.0284 161.163
L93.531 161.064
L92.6033 160.887
L92.4554 160.859
L91.1677 160.633
L90.8499 160.58
L90.144 160.467
L89.0481 160.303
L88.4588 160.221
L88.3367 160.204
L87.019 160.036
L86.7728 160.007
L85.7794 159.897
L85.3059 159.848
L84.8214 159.801
L83.9431 159.723
L83.0775 159.654
L82.7855 159.633
L81.4794 159.55
L80.7673 159.513
L80.1964 159.488
L79.3343 159.456
L78.9094 159.444
L78.0421 159.425
L77.3244 159.416
L77.2111 159.415
L75.8799 159.415
L75.527 159.418
L74.788 159.43
L73.9262 159.451
L73.2124 159.475
L72.9927 159.484
L72.1764 159.521
L71.5711 159.553
L70.5495 159.617
L69.8883 159.664
L69.0935 159.728
L68.6092 159.77
L68.0969 159.818
L67.2035 159.909
L66.4344 159.994
L65.8562 160.063
L65.4017 160.12
L64.6221 160.223
L63.5398 160.377
L63.0078 160.458
L62.6024 160.522
L61.8995 160.638
L60.856 160.82
L60.5709 160.872
L59.7496 161.028
L58.8474 161.208
L58.2639 161.329
L57.232 161.554
L57.1874 161.565
L56.4692 161.729
L55.304 162.01
L54.5809 162.193
L54.1236 162.312
L53.357 162.517
L52.5869 162.731
L51.8848 162.933
L51.385 163.08
L50.8574 163.239
L50.4246 163.372
L49.8097 163.565
L48.9173 163.854
L47.9772 164.171
L47.7585 164.246
L47.142 164.461
L46.1888 164.805
L45.3626 165.113
L45.0945 165.214
L43.9925 165.644
L43.7881 165.725
L42.7619 166.144
L42.6456 166.192
L41.6228 166.626
L40.7435 167.011
L40.2112 167.25
L39.9602 167.364
L38.9952 167.811
L38.2753 168.154
L38.0945 168.241
L37.3408 168.611
L36.5666 169
L35.8002 169.395
L35.4272 169.59
L34.9888 169.823
L34.1751 170.264
L33.5205 170.626
L33.1099 170.857
L32.2228 171.366
L31.5333 171.772
L31.1274 172.014
L30.3243 172.503
L30.1672 172.6
L29.2762 173.158
L28.913 173.39
L28.1427 173.891
L27.4727 174.335
L26.7974 174.792
L26.536 174.972
L25.7159 175.544
L25.3484 175.804
L25.07 176.004
L24.2295 176.616
L23.5073 177.154
L22.9512 177.577
L22.6962 177.773
L21.9589 178.348
L21.4761 178.731
L20.9718 179.138
L20.4775 179.542
L19.9469 179.983
L19.3451 180.492
L18.8005 180.96
L18.3693 181.336
L17.9597 181.699
L17.0644 182.506
L16.8172 182.733
L16.4196 183.101
L15.7582 183.725
L15.2193 184.242
L14.5416 184.906
L14.2135 185.232
L138.882 185.232" style="fill:#008000;opacity:0.5;"/>
   </g>
   <g id="patch_8">
    <path clip-path="url(#p4c9e24ada2)" d="
M76.5477 247.566
L138.882 185.232
L14.2135 185.232
L76.5477 247.566" style="fill:#008000;opacity:0.5;"/>
   </g>
   <g id="patch_9">
    <path clip-path="url(#p4c9e24ada2)" d="
M263.55 185.232
L262.971 184.658
L262.542 184.24
L261.964 183.685
L261.475 183.224
L260.883 182.675
L260.699 182.506
L260.098 181.962
L259.307 181.26
L259.001 180.993
L258.652 180.691
L257.901 180.054
L257.175 179.451
L256.874 179.205
L256.225 178.681
L255.641 178.219
L254.965 177.693
L254.683 177.478
L254.264 177.16
L253.374 176.498
L253.078 176.282
L252.548 175.899
L252.075 175.563
L251.251 174.988
L250.686 174.602
L249.895 174.071
L249.548 173.843
L248.67 173.275
L248.619 173.242
L248.045 172.879
L247.247 172.384
L246.294 171.809
L245.961 171.612
L245.495 171.34
L245.041 171.078
L243.963 170.47
L243.325 170.12
L243.247 170.078
L242.505 169.68
L241.738 169.278
L240.997 168.899
L240.762 168.78
L240.067 168.435
L239.023 167.931
L238.895 167.871
L238.007 167.457
L237.326 167.147
L236.781 166.905
L236.335 166.71
L235.155 166.207
L234.846 166.079
L234.193 165.813
L233.195 165.417
L233.01 165.345
L232.242 165.053
L231.344 164.721
L231.217 164.674
L230.112 164.283
L229.287 164.001
L229.142 163.953
L228.419 163.715
L227.32 163.366
L226.789 163.203
L226.348 163.071
L225.712 162.884
L224.701 162.598
L224.055 162.422
L223.247 162.21
L222.708 162.072
L222.546 162.032
L221.783 161.845
L221.191 161.705
L219.877 161.41
L219.534 161.336
L218.942 161.213
L218.014 161.028
L217.487 160.927
L217.054 160.847
L216.379 160.726
L215.283 160.542
L214.662 160.444
L213.858 160.323
L213.451 160.265
L212.39 160.123
L211.767 160.046
L211.316 159.993
L210.728 159.927
L210.166 159.868
L209.183 159.773
L208.332 159.7
L207.812 159.659
L207.094 159.608
L206.651 159.58
L206.025 159.544
L204.859 159.488
L204.116 159.46
L203.826 159.451
L202.892 159.428
L202.502 159.422
L201.344 159.412
L201.06 159.412
L200.057 159.42
L199.591 159.427
L199.061 159.439
L197.758 159.48
L197.679 159.483
L196.577 159.534
L196.202 159.555
L195.018 159.63
L194.5 159.669
L193.97 159.711
L193.063 159.79
L192.84 159.811
L191.593 159.939
L191.481 159.951
L190.748 160.036
L189.977 160.132
L188.995 160.264
L188.216 160.376
L187.841 160.433
L187.234 160.528
L186.173 160.705
L185.381 160.846
L185.183 160.883
L183.947 161.12
L183.402 161.231
L183.184 161.276
L182.234 161.48
L181.36 161.678
L180.593 161.859
L180.425 161.899
L179.264 162.189
L178.858 162.295
L178.317 162.438
L177.561 162.645
L176.981 162.809
L175.908 163.123
L175.282 163.314
L175.085 163.374
L174.297 163.623
L173.523 163.875
L172.971 164.06
L172.151 164.342
L171.382 164.614
L170.98 164.76
L170.482 164.943
L169.905 165.16
L168.703 165.627
L168.413 165.743
L167.756 166.009
L167.239 166.223
L166.597 166.495
L165.598 166.928
L165.402 167.015
L164.408 167.465
L163.524 167.877
L163.494 167.891
L162.555 168.342
L161.738 168.746
L161.62 168.806
L160.811 169.217
L160.231 169.519
L159.425 169.948
L158.624 170.385
L158.219 170.609
L157.532 170.997
L157.141 171.222
L156.491 171.601
L155.864 171.973
L155.121 172.424
L154.873 172.577
L154.086 173.069
L153.263 173.596
L152.761 173.924
L152.484 174.107
L151.571 174.721
L151.196 174.978
L150.719 175.309
L149.741 176.002
L149.483 176.188
L149.011 176.533
L148.537 176.884
L147.838 177.41
L147.099 177.978
L146.52 178.433
L146.164 178.716
L145.827 178.987
L145.201 179.497
L144.573 180.019
L143.98 180.521
L143.371 181.045
L142.68 181.652
L142.294 181.998
L142.043 182.224
L141.498 182.722
L141.03 183.156
L140.624 183.537
L139.756 184.37
L139.543 184.577
L138.882 185.232
L263.55 185.232" style="fill:#008000;opacity:0.5;"/>
   </g>
   <g id="patch_10">
    <path clip-path="url(#p4c9e24ada2)" d="
M201.216 247.566
L263.55 185.232
L138.882 185.232
L201.216 247.566" style="fill:#008000;opacity:0.5;"/>
   </g>
   <g id="line2d_1">
    <path clip-path="url(#p4c9e24ada2)" d="
M546.702 130.028
L546.605 125.903
L546.27 121.314
L545.723 116.932
L544.885 112.224
L543.924 108.073
L542.676 103.692
L541.457 100.075
L539.828 95.9009
L538.058 91.9597
L536.064 88.0476
L533.711 83.9679
L531.421 80.4234
L528.662 76.5946
L525.934 73.1924
L522.954 69.8373
L519.94 66.7657
L516.609 63.6954
L513.319 60.9537
L509.726 58.2507
L505.818 55.6193
L502.053 53.3572
L497.747 51.069
L493.859 49.2549
L490.17 47.741
L486.173 46.3141
L481.95 45.0368
L477.265 43.8838
L472.644 43.0082
L467.711 42.3514
L462.77 41.975
L458.548 41.8738
L458.548 41.8738" style="fill:none;stroke:#008000;stroke-width:2.0;"/>
   </g>
   <g id="line2d_2">
    <path clip-path="url(#p4c9e24ada2)" d="
M370.394 130.028
L370.516 134.672
L370.829 138.781
L371.435 143.535
L372.176 147.662
L373.288 152.43
L374.537 156.735
L376.091 161.206
L377.857 165.525
L379.76 169.571
L381.948 173.658
L384.273 177.509
L386.5 180.823
L389.157 184.398
L391.652 187.439
L394.338 190.429
L397.821 193.929
L401.486 197.222
L405.391 200.351
L409.218 203.087
L412.945 205.469
L416.38 207.442
L420.693 209.64
L424.362 211.283
L428.873 213.037
L433.01 214.401
L437.775 215.699
L442.068 216.628
L446.728 217.386
L451.048 217.862
L455.582 218.132
L458.548 218.182
L458.548 218.182" style="fill:none;stroke:#008000;stroke-width:2.0;"/>
   </g>
   <g id="line2d_3">
    <path clip-path="url(#p4c9e24ada2)" d="
M458.548 41.8738
L453.953 41.9937
L449.373 42.3526
L445.624 42.8263
L441.122 43.6132
L436.988 44.5509
L432.875 45.6949
L428.522 47.1449
L424.581 48.6805
L420.97 50.2841
L416.606 52.4905
L412.931 54.5944
L409.187 56.989
L405.446 59.6624
L401.919 62.4682
L398.55 65.4417
L395.204 68.7197
L392.307 71.8621
L389.66 75.0224
L386.966 78.5764
L384.42 82.319
L382.144 86.056
L379.859 90.2888
L377.889 94.4563
L376.442 97.9381
L374.995 101.919
L373.641 106.322
L372.606 110.401
L371.764 114.547
L371.029 119.469
L370.599 124.016
L370.405 128.599
L370.394 130.028
L370.394 130.028" style="fill:none;stroke:#ff0000;stroke-width:2.0;"/>
   </g>
   <g id="line2d_4">
    <path clip-path="url(#p4c9e24ada2)" d="
M458.548 218.182
L462.62 218.087
L466.976 217.778
L471.322 217.251
L475.725 216.492
L480.195 215.482
L484.372 214.314
L488.488 212.941
L492.937 211.197
L496.985 209.361
L501.042 207.263
L504.716 205.125
L508.241 202.841
L511.628 200.409
L515.283 197.497
L518.389 194.759
L521.431 191.808
L524.661 188.338
L527.101 185.449
L529.686 182.09
L532.249 178.392
L534.692 174.448
L537.036 170.162
L539.016 166.027
L540.787 161.774
L542.264 157.643
L543.486 153.619
L544.66 148.888
L545.449 144.836
L546.071 140.548
L546.486 136.191
L546.685 131.725
L546.702 130.028
L546.702 130.028" style="fill:none;stroke:#ff0000;stroke-width:2.0;"/>
   </g>
   <g id="line2d_5">
    <path clip-path="url(#p4c9e24ada2)" d="
M138.882 185.232
L135.55 182.069
L132.282 179.267
L128.507 176.353
L124.835 173.814
L120.965 171.42
L117.103 169.295
L112.724 167.177
L109.104 165.644
L104.534 163.973
L100.066 162.607
L96.4156 161.68
L92.4554 160.859
L88.3367 160.204
L83.9431 159.723
L79.3343 159.456
L74.788 159.43
L70.5495 159.617
L65.8562 160.063
L61.8995 160.638
L57.1874 161.565
L52.5869 162.731
L48.9173 163.854
L45.0945 165.214
L40.7435 167.011
L36.5666 169
L33.1099 170.857
L28.913 173.39
L25.07 176.004
L21.4761 178.731
L17.9597 181.699
L14.5416 184.906
L14.2135 185.232
L14.2135 185.232" style="fill:none;stroke:#008000;stroke-width:2.0;"/>
   </g>
   <g id="line2d_6">
    <path clip-path="url(#p4c9e24ada2)" d="
M263.55 185.232
L260.098 181.962
L256.874 179.205
L253.078 176.282
L249.548 173.843
L245.495 171.34
L241.738 169.278
L238.007 167.457
L234.193 165.813
L230.112 164.283
L225.712 162.884
L221.191 161.705
L216.379 160.726
L211.767 160.046
L207.812 159.659
L203.826 159.451
L199.061 159.439
L193.97 159.711
L189.977 160.132
L185.183 160.883
L180.425 161.899
L175.908 163.123
L171.382 164.614
L167.239 166.223
L163.494 167.891
L159.425 169.948
L155.864 171.973
L152.484 174.107
L148.537 176.884
L145.201 179.497
L142.043 182.224
L138.882 185.232
L138.882 185.232" style="fill:none;stroke:#008000;stroke-width:2.0;"/>
   </g>
   <g id="line2d_7">
    <path clip-path="url(#p4c9e24ada2)" d="
M76.5477 247.566
L79.9895 250.828
L83.2157 253.587
L87.0254 256.52
L90.6827 259.042
L94.2541 261.255
L98.1388 263.406
L101.84 265.226
L105.669 266.89
L110.162 268.576
L114.634 269.985
L118.886 271.088
L123.413 272.018
L127.478 272.645
L131.658 273.089
L135.63 273.326
L140.192 273.376
L144.167 273.227
L148.77 272.829
L153.46 272.172
L157.754 271.342
L162.225 270.239
L165.705 269.206
L170.034 267.698
L174.21 265.997
L178.335 264.064
L181.565 262.364
L185.807 259.859
L189.436 257.45
L193.263 254.614
L196.709 251.768
L199.493 249.243
L201.216 247.566
L201.216 247.566" style="fill:none;stroke:#ff0000;stroke-width:2.0;"/>
   </g>
   <g id="line2d_8">
    <path clip-path="url(#p4c9e24ada2)" d="
M201.216 247.566
L204.178 250.394
L207.241 253.058
L210.791 255.854
L213.924 258.09
L217.351 260.31
L221.41 262.661
L225.235 264.624
L229.186 266.412
L233.512 268.11
L237.658 269.498
L242.176 270.755
L246.537 271.729
L251.147 272.509
L255.263 272.995
L259.997 273.314
L263.968 273.385
L267.841 273.281
L272.275 272.953
L276.392 272.445
L280.449 271.751
L285.063 270.721
L289.5 269.48
L293.166 268.262
L297.761 266.477
L302.181 264.47
L306.03 262.476
L310.18 260.044
L313.495 257.872
L317.441 254.995
L320.688 252.362
L323.663 249.711
L325.884 247.566
L325.884 247.566" style="fill:none;stroke:#ff0000;stroke-width:2.0;"/>
   </g>
   <g id="line2d_9">
    <path clip-path="url(#p4c9e24ada2)" d="
M263.55 185.232
L325.884 247.566" style="fill:none;stroke:#000000;stroke-width:2.0;"/>
   </g>
   <g id="line2d_10">
    <path clip-path="url(#p4c9e24ada2)" d="
M458.548 130.028
L546.702 130.028" style="fill:none;stroke:#000000;stroke-width:2.0;"/>
   </g>
   <g id="matplotlib.axis_1">
    <g id="xtick_1">
     <g id="line2d_11">
      <defs>
       <path d="
M0 0
L0 -4" id="m5cd03fd396"/>
      </defs>
      <g>
       <use style="stroke:#000000;stroke-linecap:butt;stroke-width:0.5;" x="76.5476923077" xlink:href="#m5cd03fd396" y="247.566153846"/>
      </g>
     </g>
    </g>
    <g id="xtick_2">
     <g id="line2d_12">
      <defs>
       <path d="
M0 0
L0 -4" id="m5cd03fd396"/>
      </defs>
      <g>
       <use style="stroke:#000000;stroke-linecap:butt;stroke-width:0.5;" x="223.470769231" xlink:href="#m5cd03fd396" y="247.566153846"/>
      </g>
     </g>
     <g id="text_1">
      <!-- 5 -->
      <defs>
       <path d="
M10.7969 72.9062
L49.5156 72.9062
L49.5156 64.5938
L19.8281 64.5938
L19.8281 46.7344
Q21.9688 47.4688 24.1094 47.8281
Q26.2656 48.1875 28.4219 48.1875
Q40.625 48.1875 47.75 41.5
Q54.8906 34.8125 54.8906 23.3906
Q54.8906 11.625 47.5625 5.09375
Q40.2344 -1.42188 26.9062 -1.42188
Q22.3125 -1.42188 17.5469 -0.640625
Q12.7969 0.140625 7.71875 1.70312
L7.71875 11.625
Q12.1094 9.23438 16.7969 8.0625
Q21.4844 6.89062 26.7031 6.89062
Q35.1562 6.89062 40.0781 11.3281
Q45.0156 15.7656 45.0156 23.3906
Q45.0156 31 40.0781 35.4375
Q35.1562 39.8906 26.7031 39.8906
Q22.75 39.8906 18.8125 39.0156
Q14.8906 38.1406 10.7969 36.2812
z
" id="BitstreamVeraSans-Roman-35"/>
      </defs>
      <g transform="translate(221.112175481 258.856778846)scale(0.1 -0.1)">
       <use xlink:href="#BitstreamVeraSans-Roman-35"/>
      </g>
     </g>
    </g>
    <g id="xtick_3">
     <g id="line2d_13">
      <defs>
       <path d="
M0 0
L0 -4" id="m5cd03fd396"/>
      </defs>
      <g>
       <use style="stroke:#000000;stroke-linecap:butt;stroke-width:0.5;" x="370.393846154" xlink:href="#m5cd03fd396" y="247.566153846"/>
      </g>
     </g>
     <g id="text_2">
      <!-- 10 -->
      <defs>
       <path d="
M31.7812 66.4062
Q24.1719 66.4062 20.3281 58.9062
Q16.5 51.4219 16.5 36.375
Q16.5 21.3906 20.3281 13.8906
Q24.1719 6.39062 31.7812 6.39062
Q39.4531 6.39062 43.2812 13.8906
Q47.125 21.3906 47.125 36.375
Q47.125 51.4219 43.2812 58.9062
Q39.4531 66.4062 31.7812 66.4062
M31.7812 74.2188
Q44.0469 74.2188 50.5156 64.5156
Q56.9844 54.8281 56.9844 36.375
Q56.9844 17.9688 50.5156 8.26562
Q44.0469 -1.42188 31.7812 -1.42188
Q19.5312 -1.42188 13.0625 8.26562
Q6.59375 17.9688 6.59375 36.375
Q6.59375 54.8281 13.0625 64.5156
Q19.5312 74.2188 31.7812 74.2188" id="BitstreamVeraSans-Roman-30"/>
       <path d="
M12.4062 8.29688
L28.5156 8.29688
L28.5156 63.9219
L10.9844 60.4062
L10.9844 69.3906
L28.4219 72.9062
L38.2812 72.9062
L38.2812 8.29688
L54.3906 8.29688
L54.3906 0
L12.4062 0
z
" id="BitstreamVeraSans-Roman-31"/>
      </defs>
      <g transform="translate(364.912596154 258.988028846)scale(0.1 -0.1)">
       <use xlink:href="#BitstreamVeraSans-Roman-31"/>
       <use x="63.623046875" xlink:href="#BitstreamVeraSans-Roman-30"/>
      </g>
     </g>
    </g>
    <g id="xtick_4">
     <g id="line2d_14">
      <defs>
       <path d="
M0 0
L0 -4" id="m5cd03fd396"/>
      </defs>
      <g>
       <use style="stroke:#000000;stroke-linecap:butt;stroke-width:0.5;" x="517.316923077" xlink:href="#m5cd03fd396" y="247.566153846"/>
      </g>
     </g>
     <g id="text_3">
      <!-- 15 -->
      <g transform="translate(511.940360577 258.856778846)scale(0.1 -0.1)">
       <use xlink:href="#BitstreamVeraSans-Roman-31"/>
       <use x="63.623046875" xlink:href="#BitstreamVeraSans-Roman-35"/>
      </g>
     </g>
    </g>
    <g id="xtick_5">
     <g id="line2d_15">
      <defs>
       <path d="
M0 0
L0 -2" id="m4c2fcf32ba"/>
      </defs>
      <g>
       <use style="stroke:#000000;stroke-linecap:butt;stroke-width:0.5;" x="17.7784615385" xlink:href="#m4c2fcf32ba" y="247.566153846"/>
      </g>
     </g>
    </g>
    <g id="xtick_6">
     <g id="line2d_16">
      <defs>
       <path d="
M0 0
L0 -2" id="m4c2fcf32ba"/>
      </defs>
      <g>
       <use style="stroke:#000000;stroke-linecap:butt;stroke-width:0.5;" x="47.1630769231" xlink:href="#m4c2fcf32ba" y="247.566153846"/>
      </g>
     </g>
    </g>
    <g id="xtick_7">
     <g id="line2d_17">
      <defs>
       <path d="
M0 0
L0 -2" id="m4c2fcf32ba"/>
      </defs>
      <g>
       <use style="stroke:#000000;stroke-linecap:butt;stroke-width:0.5;" x="105.932307692" xlink:href="#m4c2fcf32ba" y="247.566153846"/>
      </g>
     </g>
    </g>
    <g id="xtick_8">
     <g id="line2d_18">
      <defs>
       <path d="
M0 0
L0 -2" id="m4c2fcf32ba"/>
      </defs>
      <g>
       <use style="stroke:#000000;stroke-linecap:butt;stroke-width:0.5;" x="135.316923077" xlink:href="#m4c2fcf32ba" y="247.566153846"/>
      </g>
     </g>
    </g>
    <g id="xtick_9">
     <g id="line2d_19">
      <defs>
       <path d="
M0 0
L0 -2" id="m4c2fcf32ba"/>
      </defs>
      <g>
       <use style="stroke:#000000;stroke-linecap:butt;stroke-width:0.5;" x="164.701538462" xlink:href="#m4c2fcf32ba" y="247.566153846"/>
      </g>
     </g>
    </g>
    <g id="xtick_10">
     <g id="line2d_20">
      <defs>
       <path d="
M0 0
L0 -2" id="m4c2fcf32ba"/>
      </defs>
      <g>
       <use style="stroke:#000000;stroke-linecap:butt;stroke-width:0.5;" x="194.086153846" xlink:href="#m4c2fcf32ba" y="247.566153846"/>
      </g>
     </g>
    </g>
    <g id="xtick_11">
     <g id="line2d_21">
      <defs>
       <path d="
M0 0
L0 -2" id="m4c2fcf32ba"/>
      </defs>
      <g>
       <use style="stroke:#000000;stroke-linecap:butt;stroke-width:0.5;" x="252.855384615" xlink:href="#m4c2fcf32ba" y="247.566153846"/>
      </g>
     </g>
    </g>
    <g id="xtick_12">
     <g id="line2d_22">
      <defs>
       <path d="
M0 0
L0 -2" id="m4c2fcf32ba"/>
      </defs>
      <g>
       <use style="stroke:#000000;stroke-linecap:butt;stroke-width:0.5;" x="282.24" xlink:href="#m4c2fcf32ba" y="247.566153846"/>
      </g>
     </g>
    </g>
    <g id="xtick_13">
     <g id="line2d_23">
      <defs>
       <path d="
M0 0
L0 -2" id="m4c2fcf32ba"/>
      </defs>
      <g>
       <use style="stroke:#000000;stroke-linecap:butt;stroke-width:0.5;" x="311.624615385" xlink:href="#m4c2fcf32ba" y="247.566153846"/>
      </g>
     </g>
    </g>
    <g id="xtick_14">
     <g id="line2d_24">
      <defs>
       <path d="
M0 0
L0 -2" id="m4c2fcf32ba"/>
      </defs>
      <g>
       <use style="stroke:#000000;stroke-linecap:butt;stroke-width:0.5;" x="341.009230769" xlink:href="#m4c2fcf32ba" y="247.566153846"/>
      </g>
     </g>
    </g>
    <g id="xtick_15">
     <g id="line2d_25">
      <defs>
       <path d="
M0 0
L0 -2" id="m4c2fcf32ba"/>
      </defs>
      <g>
       <use style="stroke:#000000;stroke-linecap:butt;stroke-width:0.5;" x="399.778461538" xlink:href="#m4c2fcf32ba" y="247.566153846"/>
      </g>
     </g>
    </g>
    <g id="xtick_16">
     <g id="line2d_26">
      <defs>
       <path d="
M0 0
L0 -2" id="m4c2fcf32ba"/>
      </defs>
      <g>
       <use style="stroke:#000000;stroke-linecap:butt;stroke-width:0.5;" x="429.163076923" xlink:href="#m4c2fcf32ba" y="247.566153846"/>
      </g>
     </g>
    </g>
    <g id="xtick_17">
     <g id="line2d_27">
      <defs>
       <path d="
M0 0
L0 -2" id="m4c2fcf32ba"/>
      </defs>
      <g>
       <use style="stroke:#000000;stroke-linecap:butt;stroke-width:0.5;" x="458.547692308" xlink:href="#m4c2fcf32ba" y="247.566153846"/>
      </g>
     </g>
    </g>
    <g id="xtick_18">
     <g id="line2d_28">
      <defs>
       <path d="
M0 0
L0 -2" id="m4c2fcf32ba"/>
      </defs>
      <g>
       <use style="stroke:#000000;stroke-linecap:butt;stroke-width:0.5;" x="487.932307692" xlink:href="#m4c2fcf32ba" y="247.566153846"/>
      </g>
     </g>
    </g>
   </g>
   <g id="matplotlib.axis_2">
    <g id="ytick_1">
     <g id="line2d_29">
      <defs>
       <path d="
M0 0
L4 0" id="m1ac1477bef"/>
      </defs>
      <g>
       <use style="stroke:#000000;stroke-linecap:butt;stroke-width:0.5;" x="76.5476923077" xlink:href="#m1ac1477bef" y="247.566153846"/>
      </g>
     </g>
    </g>
    <g id="ytick_2">
     <g id="line2d_30">
      <defs>
       <path d="
M0 0
L4 0" id="m1ac1477bef"/>
      </defs>
      <g>
       <use style="stroke:#000000;stroke-linecap:butt;stroke-width:0.5;" x="76.5476923077" xlink:href="#m1ac1477bef" y="188.796923077"/>
      </g>
     </g>
     <g id="text_4">
      <!-- 2 -->
      <defs>
       <path d="
M19.1875 8.29688
L53.6094 8.29688
L53.6094 0
L7.32812 0
L7.32812 8.29688
Q12.9375 14.1094 22.625 23.8906
Q32.3281 33.6875 34.8125 36.5312
Q39.5469 41.8438 41.4219 45.5312
Q43.3125 49.2188 43.3125 52.7812
Q43.3125 58.5938 39.2344 62.25
Q35.1562 65.9219 28.6094 65.9219
Q23.9688 65.9219 18.8125 64.3125
Q13.6719 62.7031 7.8125 59.4219
L7.8125 69.3906
Q13.7656 71.7812 18.9375 73
Q24.125 74.2188 28.4219 74.2188
Q39.75 74.2188 46.4844 68.5469
Q53.2188 62.8906 53.2188 53.4219
Q53.2188 48.9219 51.5312 44.8906
Q49.8594 40.875 45.4062 35.4062
Q44.1875 33.9844 37.6406 27.2188
Q31.1094 20.4531 19.1875 8.29688" id="BitstreamVeraSans-Roman-32"/>
      </defs>
      <g transform="translate(67.9195673077 192.507860577)scale(0.1 -0.1)">
       <use xlink:href="#BitstreamVeraSans-Roman-32"/>
      </g>
     </g>
    </g>
    <g id="ytick_3">
     <g id="line2d_31">
      <defs>
       <path d="
M0 0
L4 0" id="m1ac1477bef"/>
      </defs>
      <g>
       <use style="stroke:#000000;stroke-linecap:butt;stroke-width:0.5;" x="76.5476923077" xlink:href="#m1ac1477bef" y="130.027692308"/>
      </g>
     </g>
     <g id="text_5">
      <!-- 4 -->
      <defs>
       <path d="
M37.7969 64.3125
L12.8906 25.3906
L37.7969 25.3906
z

M35.2031 72.9062
L47.6094 72.9062
L47.6094 25.3906
L58.0156 25.3906
L58.0156 17.1875
L47.6094 17.1875
L47.6094 0
L37.7969 0
L37.7969 17.1875
L4.89062 17.1875
L4.89062 26.7031
z
" id="BitstreamVeraSans-Roman-34"/>
      </defs>
      <g transform="translate(67.2351923077 133.673004808)scale(0.1 -0.1)">
       <use xlink:href="#BitstreamVeraSans-Roman-34"/>
      </g>
     </g>
    </g>
    <g id="ytick_4">
     <g id="line2d_32">
      <defs>
       <path d="
M0 0
L4 0" id="m1ac1477bef"/>
      </defs>
      <g>
       <use style="stroke:#000000;stroke-linecap:butt;stroke-width:0.5;" x="76.5476923077" xlink:href="#m1ac1477bef" y="71.2584615385"/>
      </g>
     </g>
     <g id="text_6">
      <!-- 6 -->
      <defs>
       <path d="
M33.0156 40.375
Q26.375 40.375 22.4844 35.8281
Q18.6094 31.2969 18.6094 23.3906
Q18.6094 15.5312 22.4844 10.9531
Q26.375 6.39062 33.0156 6.39062
Q39.6562 6.39062 43.5312 10.9531
Q47.4062 15.5312 47.4062 23.3906
Q47.4062 31.2969 43.5312 35.8281
Q39.6562 40.375 33.0156 40.375
M52.5938 71.2969
L52.5938 62.3125
Q48.875 64.0625 45.0938 64.9844
Q41.3125 65.9219 37.5938 65.9219
Q27.8281 65.9219 22.6719 59.3281
Q17.5312 52.7344 16.7969 39.4062
Q19.6719 43.6562 24.0156 45.9219
Q28.375 48.1875 33.5938 48.1875
Q44.5781 48.1875 50.9531 41.5156
Q57.3281 34.8594 57.3281 23.3906
Q57.3281 12.1562 50.6875 5.35938
Q44.0469 -1.42188 33.0156 -1.42188
Q20.3594 -1.42188 13.6719 8.26562
Q6.98438 17.9688 6.98438 36.375
Q6.98438 53.6562 15.1875 63.9375
Q23.3906 74.2188 37.2031 74.2188
Q40.9219 74.2188 44.7031 73.4844
Q48.4844 72.75 52.5938 71.2969" id="BitstreamVeraSans-Roman-36"/>
      </defs>
      <g transform="translate(67.5133173077 74.8983052885)scale(0.1 -0.1)">
       <use xlink:href="#BitstreamVeraSans-Roman-36"/>
      </g>
     </g>
    </g>
    <g id="ytick_5">
     <g id="line2d_33">
      <defs>
       <path d="
M0 0
L4 0" id="m1ac1477bef"/>
      </defs>
      <g>
       <use style="stroke:#000000;stroke-linecap:butt;stroke-width:0.5;" x="76.5476923077" xlink:href="#m1ac1477bef" y="12.4892307692"/>
      </g>
     </g>
     <g id="text_7">
      <!-- 8 -->
      <defs>
       <path d="
M31.7812 34.625
Q24.75 34.625 20.7188 30.8594
Q16.7031 27.0938 16.7031 20.5156
Q16.7031 13.9219 20.7188 10.1562
Q24.75 6.39062 31.7812 6.39062
Q38.8125 6.39062 42.8594 10.1719
Q46.9219 13.9688 46.9219 20.5156
Q46.9219 27.0938 42.8906 30.8594
Q38.875 34.625 31.7812 34.625
M21.9219 38.8125
Q15.5781 40.375 12.0312 44.7188
Q8.5 49.0781 8.5 55.3281
Q8.5 64.0625 14.7188 69.1406
Q20.9531 74.2188 31.7812 74.2188
Q42.6719 74.2188 48.875 69.1406
Q55.0781 64.0625 55.0781 55.3281
Q55.0781 49.0781 51.5312 44.7188
Q48 40.375 41.7031 38.8125
Q48.8281 37.1562 52.7969 32.3125
Q56.7812 27.4844 56.7812 20.5156
Q56.7812 9.90625 50.3125 4.23438
Q43.8438 -1.42188 31.7812 -1.42188
Q19.7344 -1.42188 13.25 4.23438
Q6.78125 9.90625 6.78125 20.5156
Q6.78125 27.4844 10.7812 32.3125
Q14.7969 37.1562 21.9219 38.8125
M18.3125 54.3906
Q18.3125 48.7344 21.8438 45.5625
Q25.3906 42.3906 31.7812 42.3906
Q38.1406 42.3906 41.7188 45.5625
Q45.3125 48.7344 45.3125 54.3906
Q45.3125 60.0625 41.7188 63.2344
Q38.1406 66.4062 31.7812 66.4062
Q25.3906 66.4062 21.8438 63.2344
Q18.3125 60.0625 18.3125 54.3906" id="BitstreamVeraSans-Roman-38"/>
      </defs>
      <g transform="translate(67.5476923077 16.1290745192)scale(0.1 -0.1)">
       <use xlink:href="#BitstreamVeraSans-Roman-38"/>
      </g>
     </g>
    </g>
    <g id="ytick_6">
     <g id="line2d_34">
      <defs>
       <path d="
M0 0
L2 0" id="ma4822e3922"/>
      </defs>
      <g>
       <use style="stroke:#000000;stroke-linecap:butt;stroke-width:0.5;" x="76.5476923077" xlink:href="#ma4822e3922" y="276.950769231"/>
      </g>
     </g>
    </g>
    <g id="ytick_7">
     <g id="line2d_35">
      <defs>
       <path d="
M0 0
L2 0" id="ma4822e3922"/>
      </defs>
      <g>
       <use style="stroke:#000000;stroke-linecap:butt;stroke-width:0.5;" x="76.5476923077" xlink:href="#ma4822e3922" y="262.258461538"/>
      </g>
     </g>
    </g>
    <g id="ytick_8">
     <g id="line2d_36">
      <defs>
       <path d="
M0 0
L2 0" id="ma4822e3922"/>
      </defs>
      <g>
       <use style="stroke:#000000;stroke-linecap:butt;stroke-width:0.5;" x="76.5476923077" xlink:href="#ma4822e3922" y="232.873846154"/>
      </g>
     </g>
    </g>
    <g id="ytick_9">
     <g id="line2d_37">
      <defs>
       <path d="
M0 0
L2 0" id="ma4822e3922"/>
      </defs>
      <g>
       <use style="stroke:#000000;stroke-linecap:butt;stroke-width:0.5;" x="76.5476923077" xlink:href="#ma4822e3922" y="218.181538462"/>
      </g>
     </g>
    </g>
    <g id="ytick_10">
     <g id="line2d_38">
      <defs>
       <path d="
M0 0
L2 0" id="ma4822e3922"/>
      </defs>
      <g>
       <use style="stroke:#000000;stroke-linecap:butt;stroke-width:0.5;" x="76.5476923077" xlink:href="#ma4822e3922" y="203.489230769"/>
      </g>
     </g>
    </g>
    <g id="ytick_11">
     <g id="line2d_39">
      <defs>
       <path d="
M0 0
L2 0" id="ma4822e3922"/>
      </defs>
      <g>
       <use style="stroke:#000000;stroke-linecap:butt;stroke-width:0.5;" x="76.5476923077" xlink:href="#ma4822e3922" y="174.104615385"/>
      </g>
     </g>
    </g>
    <g id="ytick_12">
     <g id="line2d_40">
      <defs>
       <path d="
M0 0
L2 0" id="ma4822e3922"/>
      </defs>
      <g>
       <use style="stroke:#000000;stroke-linecap:butt;stroke-width:0.5;" x="76.5476923077" xlink:href="#ma4822e3922" y="159.412307692"/>
      </g>
     </g>
    </g>
    <g id="ytick_13">
     <g id="line2d_41">
      <defs>
       <path d="
M0 0
L2 0" id="ma4822e3922"/>
      </defs>
      <g>
       <use style="stroke:#000000;stroke-linecap:butt;stroke-width:0.5;" x="76.5476923077" xlink:href="#ma4822e3922" y="144.72"/>
      </g>
     </g>
    </g>
    <g id="ytick_14">
     <g id="line2d_42">
      <defs>
       <path d="
M0 0
L2 0" id="ma4822e3922"/>
      </defs>
      <g>
       <use style="stroke:#000000;stroke-linecap:butt;stroke-width:0.5;" x="76.5476923077" xlink:href="#ma4822e3922" y="115.335384615"/>
      </g>
     </g>
    </g>
    <g id="ytick_15">
     <g id="line2d_43">
      <defs>
       <path d="
M0 0
L2 0" id="ma4822e3922"/>
      </defs>
      <g>
       <use style="stroke:#000000;stroke-linecap:butt;stroke-width:0.5;" x="76.5476923077" xlink:href="#ma4822e3922" y="100.643076923"/>
      </g>
     </g>
    </g>
    <g id="ytick_16">
     <g id="line2d_44">
      <defs>
       <path d="
M0 0
L2 0" id="ma4822e3922"/>
      </defs>
      <g>
       <use style="stroke:#000000;stroke-linecap:butt;stroke-width:0.5;" x="76.5476923077" xlink:href="#ma4822e3922" y="85.9507692308"/>
      </g>
     </g>
    </g>
    <g id="ytick_17">
     <g id="line2d_45">
      <defs>
       <path d="
M0 0
L2 0" id="ma4822e3922"/>
      </defs>
      <g>
       <use style="stroke:#000000;stroke-linecap:butt;stroke-width:0.5;" x="76.5476923077" xlink:href="#ma4822e3922" y="56.5661538462"/>
      </g>
     </g>
    </g>
    <g id="ytick_18">
     <g id="line2d_46">
      <defs>
       <path d="
M0 0
L2 0" id="ma4822e3922"/>
      </defs>
      <g>
       <use style="stroke:#000000;stroke-linecap:butt;stroke-width:0.5;" x="76.5476923077" xlink:href="#ma4822e3922" y="41.8738461538"/>
      </g>
     </g>
    </g>
    <g id="ytick_19">
     <g id="line2d_47">
      <defs>
       <path d="
M0 0
L2 0" id="ma4822e3922"/>
      </defs>
      <g>
       <use style="stroke:#000000;stroke-linecap:butt;stroke-width:0.5;" x="76.5476923077" xlink:href="#ma4822e3922" y="27.1815384615"/>
      </g>
     </g>
    </g>
   </g>
   <g id="patch_11">
    <path d="
M7.2 247.566
L557.28 247.566" style="fill:none;stroke:#000000;stroke-width:0.8;"/>
   </g>
   <g id="patch_12">
    <path d="
M76.5477 282.24
L76.5477 7.2" style="fill:none;stroke:#000000;stroke-width:0.8;"/>
   </g>
  </g>
 </g>
 <defs>
  <clipPath id="p4c9e24ada2">
   <rect height="275.04" width="550.08" x="7.2" y="7.2"/>
  </clipPath>
 </defs>
</svg>
