<?xml version="1.0" encoding="utf-8" standalone="no"?>
<!DOCTYPE svg PUBLIC "-//W3C//DTD SVG 1.1//EN"
  "http://www.w3.org/Graphics/SVG/1.1/DTD/svg11.dtd">
<!-- Created with matplotlib (http://matplotlib.sourceforge.net/) -->
<svg height="289pt" version="1.1" viewBox="0 0 564 289" width="564pt" xmlns="http://www.w3.org/2000/svg" xmlns:xlink="http://www.w3.org/1999/xlink">
 <defs>
  <style type="text/css">
*{stroke-linecap:square;stroke-linejoin:round;}
  </style>
 </defs>
 <g id="figure_1">
  <g id="patch_1">
   <path d="
M0 289.44
L564.48 289.44
L564.48 0
L0 0
z
" style="fill:#ffffff;"/>
  </g>
  <g id="axes_1">
   <g id="patch_2">
    <path d="
M7.2 282.24
L557.28 282.24
L557.28 7.2
L7.2 7.2
z
" style="fill:#ffffff;"/>
   </g>
   <g id="patch_3">
    <path clip-path="url(#p4c9e24ada2)" d="
M517.317 130.028
L517.313 129.332
L517.308 129.025
L517.298 128.522
L517.292 128.333
L517.265 127.563
L517.245 127.129
L517.22 126.657
L517.207 126.442
L517.152 125.629
L517.127 125.312
L517.094 124.916
L517.068 124.624
L516.996 123.894
L516.949 123.462
L516.932 123.31
L516.835 122.514
L516.778 122.09
L516.718 121.659
L516.668 121.315
L516.611 120.946
L516.52 120.385
L516.436 119.887
L516.373 119.535
L516.255 118.904
L516.136 118.305
L516.095 118.104
L515.971 117.521
L515.853 116.993
L515.822 116.857
L515.696 116.32
L515.596 115.909
L515.431 115.258
L515.371 115.029
L515.222 114.478
L515.149 114.211
L514.91 113.38
L514.836 113.133
L514.75 112.849
L514.485 112.003
L514.386 111.698
L514.197 111.133
L514.111 110.883
L513.897 110.271
L513.757 109.885
L513.723 109.791
L513.549 109.324
L513.264 108.581
L513.097 108.159
L513 107.92
L512.739 107.287
L512.536 106.809
L512.445 106.599
L512.188 106.017
L511.974 105.543
L511.941 105.471
L511.686 104.924
L511.37 104.268
L511.231 103.983
L511.039 103.599
L510.889 103.302
L510.535 102.62
L510.325 102.227
L510.093 101.798
L510.049 101.718
L509.814 101.294
L509.564 100.854
L509.393 100.557
L508.933 99.7771
L508.791 99.5404
L508.624 99.2683
L508.205 98.596
L508.157 98.5201
L507.845 98.0334
L507.616 97.6844
L507.427 97.3996
L506.945 96.6877
L506.876 96.5886
L506.445 95.9744
L506.384 95.8877
L506.083 95.4702
L505.769 95.0422
L505.512 94.6984
L505.121 94.1845
L504.73 93.6825
L504.569 93.4786
L504.145 92.9506
L504.088 92.8806
L503.699 92.4087
L503.432 92.0907
L502.963 91.5428
L502.761 91.311
L502.539 91.0586
L502.204 90.6834
L501.861 90.3068
L501.622 90.0476
L501.378 89.7857
L501.025 89.414
L500.61 88.9837
L500.219 88.5867
L499.796 88.1661
L499.676 88.0478
L499.342 87.7238
L498.878 87.2809
L498.667 87.0825
L498.246 86.6929
L497.974 86.4454
L497.648 86.153
L497.304 85.8486
L497.01 85.5923
L496.462 85.1243
L496.259 84.9536
L495.642 84.4442
L495.502 84.331
L494.91 83.8585
L494.642 83.6489
L494.465 83.5113
L493.854 83.046
L493.5 82.7822
L493.19 82.5545
L492.732 82.2232
L492.534 82.0826
L491.949 81.6727
L491.8 81.5701
L491.197 81.1624
L490.95 80.9981
L490.637 80.7926
L490.197 80.5087
L489.785 80.2477
L489.572 80.1145
L489.075 79.809
L488.62 79.5352
L488.397 79.4033
L487.742 79.0228
L487.556 78.9167
L487.009 78.6101
L486.679 78.4288
L485.991 78.0595
L485.96 78.043
L485.507 77.807
L485.109 77.6035
L484.569 77.333
L484.223 77.1635
L483.66 76.8937
L483.227 76.6915
L482.945 76.5621
L482.463 76.3446
L481.856 76.0781
L481.404 75.8853
L481.357 75.8656
L480.714 75.5992
L480.123 75.362
L480.033 75.3267
L479.461 75.1055
L478.827 74.8681
L478.344 74.6929
L477.988 74.5668
L477.459 74.3843
L477.168 74.2864
L476.745 74.1468
L476.404 74.0368
L475.804 73.849
L475.283 73.6917
L475.192 73.6648
L474.672 73.5136
L474.074 73.3466
L473.715 73.2495
L473.3 73.1402
L472.629 72.9703
L472.116 72.8462
L471.951 72.8074
L471.578 72.7212
L470.994 72.5914
L470.59 72.5055
L470.003 72.3857
L469.681 72.3226
L468.991 72.1938
L468.832 72.1652
L468.261 72.0667
L467.577 71.9562
L467.111 71.8858
L466.996 71.8689
L466.26 71.7667
L465.721 71.6979
L465.298 71.6475
L465.069 71.6214
L464.343 71.5449
L464.113 71.5225
L463.709 71.4855
L463.189 71.442
L462.819 71.4139
L462.061 71.3636
L461.566 71.336
L461.53 71.3342
L460.998 71.3096
L460.367 71.2866
L460.001 71.2764
L459.605 71.268
L459.182 71.2619
L458.548 71.2585
L517.317 130.028" style="fill:#008000;opacity:0.5;"/>
   </g>
   <g id="patch_4">
    <path clip-path="url(#p4c9e24ada2)" d="
M458.548 130.028
L517.317 130.028
L458.548 71.2585
L458.548 130.028" style="fill:#008000;opacity:0.5;"/>
   </g>
   <g id="patch_5">
    <path clip-path="url(#p4c9e24ada2)" d="
M399.778 130.028
L399.779 130.32
L399.789 131.117
L399.791 131.264
L399.806 131.813
L399.817 132.169
L399.836 132.636
L399.88 133.485
L399.901 133.818
L399.935 134.318
L399.952 134.542
L399.983 134.926
L400.047 135.639
L400.083 136.005
L400.132 136.465
L400.208 137.117
L400.266 137.579
L400.335 138.098
L400.402 138.563
L400.441 138.83
L400.492 139.159
L400.603 139.836
L400.663 140.183
L400.727 140.543
L400.827 141.078
L400.952 141.714
L400.981 141.854
L401.145 142.627
L401.209 142.915
L401.27 143.185
L401.399 143.733
L401.568 144.421
L401.633 144.673
L401.795 145.29
L401.91 145.712
L401.995 146.016
L402.154 146.568
L402.312 147.098
L402.372 147.295
L402.582 147.963
L402.736 148.435
L402.877 148.86
L402.946 149.06
L403.165 149.688
L403.342 150.18
L403.51 150.634
L403.55 150.741
L403.769 151.313
L403.993 151.881
L404.161 152.296
L404.367 152.794
L404.532 153.182
L404.615 153.375
L404.766 153.72
L404.971 154.181
L405.195 154.671
L405.358 155.021
L405.612 155.555
L405.743 155.824
L406.1 156.542
L406.308 156.95
L406.554 157.422
L406.661 157.624
L406.899 158.068
L407.073 158.385
L407.42 159.007
L407.515 159.173
L407.839 159.734
L407.982 159.977
L408.19 160.326
L408.406 160.681
L408.731 161.207
L408.987 161.612
L409.279 162.066
L409.535 162.456
L409.869 162.955
L409.989 163.131
L410.391 163.714
L410.541 163.928
L410.859 164.373
L410.979 164.539
L411.327 165.014
L411.708 165.522
L412.04 165.956
L412.321 166.317
L412.467 166.503
L412.684 166.775
L413.162 167.363
L413.348 167.588
L413.723 168.035
L414.046 168.413
L414.155 168.538
L414.617 169.065
L414.798 169.267
L415.205 169.717
L415.479 170.014
L415.949 170.515
L416.155 170.73
L416.533 171.12
L416.931 171.524
L417.22 171.811
L417.476 172.063
L417.91 172.482
L418.092 172.656
L418.569 173.104
L418.791 173.308
L419.098 173.589
L419.548 173.992
L419.8 174.214
L420.105 174.479
L420.699 174.986
L421.004 175.242
L421.156 175.368
L421.548 175.688
L422.077 176.112
L422.342 176.32
L422.793 176.669
L423.107 176.908
L423.541 177.233
L423.717 177.363
L424.048 177.605
L424.552 177.966
L424.871 178.191
L425.504 178.627
L425.856 178.865
L426.143 179.056
L426.402 179.226
L426.86 179.522
L427.278 179.787
L427.898 180.172
L428.123 180.308
L428.568 180.575
L429.074 180.872
L429.425 181.074
L429.512 181.123
L430.189 181.502
L430.477 181.66
L430.972 181.926
L431.373 182.137
L431.924 182.42
L431.975 182.446
L432.754 182.834
L432.963 182.936
L433.566 183.223
L433.663 183.268
L434.172 183.503
L434.59 183.692
L435.043 183.892
L435.372 184.034
L435.913 184.263
L436.391 184.46
L436.917 184.671
L437.151 184.763
L437.761 184.998
L438.074 185.115
L438.371 185.225
L439.029 185.461
L439.299 185.555
L439.994 185.791
L440.121 185.833
L440.545 185.972
L441.18 186.172
L441.751 186.346
L442.187 186.474
L442.382 186.53
L442.997 186.702
L443.284 186.78
L443.784 186.912
L444.527 187.1
L444.82 187.171
L445.334 187.292
L445.749 187.386
L446.304 187.507
L446.656 187.581
L446.916 187.634
L447.584 187.765
L447.873 187.819
L448.465 187.925
L448.959 188.009
L449.404 188.081
L449.578 188.108
L450.069 188.182
L450.692 188.269
L451.173 188.332
L451.795 188.408
L452.279 188.462
L452.573 188.492
L453.093 188.543
L453.324 188.564
L453.915 188.614
L454.221 188.637
L454.827 188.679
L455.101 188.696
L455.642 188.725
L456.244 188.752
L456.491 188.761
L457.152 188.78
L457.7 188.791
L458.251 188.796
L458.548 188.797
L399.778 130.028" style="fill:#008000;opacity:0.5;"/>
   </g>
   <g id="patch_6">
    <path clip-path="url(#p4c9e24ada2)" d="
M458.548 130.028
L399.778 130.028
L458.548 188.797
L458.548 130.028" style="fill:#008000;opacity:0.5;"/>
   </g>
   <g id="patch_7">
    <path clip-path="url(#p4c9e24ada2)" d="
M118.104 206.01
L117.924 205.831
L117.552 205.465
L117.232 205.157
L116.925 204.864
L116.453 204.422
L115.927 203.942
L115.621 203.667
L115.314 203.396
L115.211 203.306
L114.688 202.855
L114.45 202.653
L114.076 202.339
L113.706 202.035
L113.17 201.603
L113.018 201.482
L112.618 201.168
L112.004 200.697
L111.916 200.631
L111.531 200.344
L111.152 200.065
L110.599 199.667
L110.475 199.579
L110 199.247
L109.527 198.923
L109.076 198.62
L108.576 198.291
L108.205 198.052
L108.021 197.935
L107.406 197.55
L107.114 197.371
L106.896 197.239
L106.496 197
L106.081 196.757
L105.563 196.459
L105.181 196.244
L104.826 196.048
L104.191 195.704
L104.028 195.617
L103.357 195.268
L103.155 195.165
L102.837 195.005
L102.484 194.83
L101.807 194.502
L101.281 194.255
L101.208 194.221
L100.49 193.895
L100.01 193.683
L99.7627 193.576
L99.3225 193.389
L98.7623 193.157
L98.3714 192.999
L97.899 192.813
L97.5934 192.694
L97.0645 192.495
L96.5829 192.317
L96.489 192.284
L95.7256 192.014
L95.6422 191.985
L95.0926 191.8
L94.6297 191.648
L94.1412 191.492
L93.5766 191.318
L93.1952 191.204
L92.8545 191.105
L92.4263 190.983
L91.728 190.791
L91.5273 190.738
L90.9376 190.586
L90.7606 190.541
L90.1586 190.395
L89.4456 190.23
L89.0764 190.148
L88.7279 190.073
L88.21 189.966
L87.828 189.89
L87.2439 189.778
L86.7178 189.684
L86.362 189.622
L86.1517 189.587
L85.4055 189.468
L85.2281 189.442
L84.7831 189.377
L84.1569 189.292
L83.888 189.257
L83.411 189.199
L82.8231 189.133
L82.2438 189.074
L81.7207 189.025
L81.1939 188.981
L80.7599 188.948
L80.3162 188.918
L80.1969 188.91
L79.3435 188.863
L78.9033 188.844
L78.8619 188.843
L77.9562 188.814
L77.7348 188.809
L77.4364 188.804
L76.6711 188.797
L76.3949 188.797
L75.9187 188.8
L75.3502 188.809
L75.1399 188.814
L74.6885 188.826
L73.9766 188.853
L73.365 188.883
L72.8773 188.912
L72.6688 188.925
L72.3154 188.95
L71.6913 188.998
L71.3943 189.023
L70.7825 189.08
L70.4074 189.119
L69.777 189.188
L69.5502 189.215
L68.7362 189.318
L68.2968 189.379
L67.9138 189.435
L67.5204 189.494
L67.2812 189.532
L66.4931 189.663
L66.1432 189.725
L65.5666 189.832
L65.37 189.87
L64.9019 189.962
L64.2004 190.109
L64.0594 190.139
L63.6187 190.237
L63.2029 190.332
L62.71 190.449
L62.0594 190.611
L61.4327 190.774
L61.1996 190.836
L60.8308 190.938
L60.4635 191.041
L60.0045 191.173
L59.3427 191.372
L59.1354 191.436
L58.5354 191.625
L57.9266 191.825
L57.6804 191.908
L57.2643 192.051
L56.7102 192.246
L56.4849 192.328
L55.8575 192.559
L55.2464 192.793
L54.813 192.964
L54.3942 193.132
L53.9532 193.314
L53.924 193.326
L53.264 193.606
L53.037 193.705
L52.5144 193.936
L51.8797 194.225
L51.4154 194.442
L51.051 194.616
L50.7112 194.781
L50.3777 194.945
L50.0079 195.131
L49.5822 195.348
L48.9406 195.685
L48.5871 195.875
L48.2079 196.081
L48.0528 196.167
L47.4638 196.498
L46.9462 196.796
L46.8861 196.831
L46.1472 197.271
L45.7965 197.484
L45.6725 197.561
L45.0101 197.976
L44.7762 198.125
L44.2912 198.44
L43.7791 198.78
L43.4492 199.004
L43.2176 199.162
L42.8852 199.393
L42.3922 199.741
L42.0631 199.978
L41.7704 200.191
L41.1135 200.681
L40.9305 200.82
L40.6118 201.064
L40.0994 201.465
L39.7567 201.738
L39.2972 202.11
L39.0923 202.279
L38.7931 202.528
L38.4673 202.803
L38.079 203.137
L37.8043 203.376
L37.2739 203.847
L36.929 204.159
L36.6174 204.445
L36.1988 204.837
L36.0057 205.02
L35.5012 205.507
L35.3632 205.642
L34.9916 206.01
L118.104 206.01" style="fill:#008000;opacity:0.5;"/>
   </g>
   <g id="patch_8">
    <path clip-path="url(#p4c9e24ada2)" d="
M76.5477 247.566
L118.104 206.01
L34.9916 206.01
L76.5477 247.566" style="fill:#008000;opacity:0.5;"/>
   </g>
   <g id="patch_9">
    <path clip-path="url(#p4c9e24ada2)" d="
M201.216 206.01
L200.801 205.6
L200.537 205.342
L200.207 205.025
L199.932 204.764
L199.689 204.537
L199.214 204.101
L198.736 203.67
L198.466 203.431
L198.288 203.275
L197.792 202.847
L197.426 202.538
L196.98 202.168
L196.69 201.931
L196.522 201.795
L195.91 201.308
L195.503 200.992
L195.237 200.789
L194.907 200.54
L194.538 200.266
L194.296 200.088
L193.664 199.633
L193.6 199.588
L193.154 199.276
L192.502 198.83
L192.189 198.621
L192.024 198.511
L191.376 198.09
L191.245 198.006
L190.551 197.57
L190.48 197.526
L190.037 197.256
L189.631 197.014
L189.127 196.718
L188.582 196.406
L188.166 196.173
L187.958 196.058
L187.671 195.902
L186.972 195.529
L186.483 195.275
L186.142 195.102
L185.694 194.878
L185.592 194.828
L184.95 194.517
L184.734 194.415
L184.056 194.1
L183.956 194.054
L183.157 193.698
L183.098 193.673
L182.582 193.452
L181.837 193.142
L181.704 193.088
L181.197 192.885
L180.722 192.701
L180.419 192.585
L179.981 192.422
L179.469 192.236
L178.894 192.033
L178.646 191.948
L177.95 191.716
L177.751 191.651
L177.441 191.551
L176.823 191.359
L176.455 191.248
L176.099 191.143
L175.669 191.019
L174.89 190.805
L174.407 190.677
L173.951 190.561
L173.557 190.464
L173.164 190.369
L172.81 190.287
L172.431 190.201
L172.089 190.126
L171.547 190.012
L170.903 189.882
L170.37 189.781
L170.156 189.742
L169.638 189.65
L169.012 189.546
L168.554 189.474
L168.147 189.413
L167.946 189.384
L167.163 189.278
L166.624 189.211
L166.337 189.177
L166.104 189.151
L165.44 189.082
L164.866 189.028
L164.341 188.984
L164.227 188.975
L163.482 188.921
L163.072 188.896
L162.813 188.882
L162.35 188.859
L161.842 188.837
L161.136 188.815
L160.609 188.805
L160.375 188.801
L159.908 188.797
L159.327 188.798
L159.117 188.799
L158.31 188.812
L157.876 188.824
L157.468 188.838
L157.087 188.853
L156.841 188.865
L156.274 188.895
L155.879 188.919
L155.1 188.974
L154.887 188.991
L154.221 189.049
L153.822 189.088
L153.595 189.111
L152.957 189.18
L152.557 189.228
L151.885 189.313
L151.724 189.335
L151.229 189.405
L150.444 189.524
L150.035 189.59
L149.649 189.656
L149.31 189.715
L148.732 189.822
L148.465 189.873
L148.059 189.953
L147.458 190.077
L146.9 190.199
L146.351 190.324
L146.039 190.397
L145.828 190.448
L145.018 190.65
L144.899 190.681
L144.151 190.88
L143.942 190.938
L143.622 191.028
L143.028 191.2
L142.458 191.371
L142.069 191.491
L141.495 191.675
L141.324 191.731
L140.554 191.989
L140.475 192.017
L139.902 192.218
L139.318 192.43
L138.955 192.565
L138.483 192.745
L138.221 192.847
L137.677 193.063
L137.346 193.198
L136.776 193.435
L136.369 193.609
L136.187 193.688
L135.548 193.971
L135.332 194.069
L134.815 194.307
L134.232 194.583
L133.925 194.731
L133.51 194.935
L133.197 195.092
L132.795 195.296
L132.057 195.683
L131.685 195.882
L131.329 196.077
L130.854 196.341
L130.786 196.379
L130.294 196.66
L129.628 197.05
L129.336 197.224
L129.192 197.312
L128.471 197.755
L128.238 197.903
L128.008 198.049
L127.561 198.337
L127.155 198.604
L126.554 199.009
L126.404 199.112
L125.726 199.584
L125.612 199.665
L125.322 199.872
L124.96 200.135
L124.554 200.434
L123.874 200.949
L123.775 201.025
L123.367 201.343
L122.816 201.78
L122.642 201.921
L122.195 202.287
L122.016 202.436
L121.63 202.76
L121.184 203.143
L120.924 203.369
L120.43 203.807
L120.024 204.174
L119.7 204.473
L119.33 204.819
L119.07 205.065
L118.632 205.488
L118.546 205.573
L118.104 206.01
L201.216 206.01" style="fill:#008000;opacity:0.5;"/>
   </g>
   <g id="patch_10">
    <path clip-path="url(#p4c9e24ada2)" d="
M159.66 247.566
L201.216 206.01
L118.104 206.01
L159.66 247.566" style="fill:#008000;opacity:0.5;"/>
   </g>
   <g id="line2d_1">
    <path clip-path="url(#p4c9e24ada2)" d="
M517.317 130.028
L517.207 126.442
L516.835 122.514
L516.255 118.904
L515.431 115.258
L514.386 111.698
L513.097 108.159
L511.686 104.924
L510.049 101.718
L508.157 98.5201
L506.083 95.4702
L503.699 92.4087
L501.378 89.7857
L498.667 87.0825
L496.259 84.9536
L493.19 82.5545
L490.197 80.5087
L487.009 78.6101
L483.66 76.8937
L480.123 75.362
L476.745 74.1468
L473.3 73.1402
L469.681 72.3226
L466.26 71.7667
L462.819 71.4139
L459.182 71.2619
L458.548 71.2585
L458.548 71.2585" style="fill:none;stroke:#008000;stroke-width:2.0;"/>
   </g>
   <g id="line2d_2">
    <path clip-path="url(#p4c9e24ada2)" d="
M399.778 130.028
L399.88 133.485
L400.208 137.117
L400.727 140.543
L401.399 143.733
L402.372 147.295
L403.55 150.741
L404.971 154.181
L406.661 157.624
L408.406 160.681
L410.541 163.928
L412.684 166.775
L415.205 169.717
L417.476 172.063
L420.105 174.479
L423.107 176.908
L426.143 179.056
L429.074 180.872
L431.975 182.446
L435.372 184.034
L438.371 185.225
L441.751 186.346
L445.334 187.292
L448.959 188.009
L452.573 188.492
L456.244 188.752
L458.548 188.797
L458.548 188.797" style="fill:none;stroke:#008000;stroke-width:2.0;"/>
   </g>
   <g id="line2d_3">
    <path clip-path="url(#p4c9e24ada2)" d="
M458.548 71.2585
L454.809 71.3775
L450.978 71.748
L447.418 72.3219
L443.932 73.105
L440.341 74.1497
L436.779 75.4388
L433.856 76.6972
L430.41 78.4324
L427.461 80.1536
L424.255 82.3013
L421.311 84.5608
L418.593 86.9295
L416.218 89.2597
L413.609 92.1556
L411.412 94.927
L409.393 97.8158
L407.486 100.932
L405.898 103.916
L404.236 107.576
L403.002 110.832
L401.95 114.2
L401.087 117.694
L400.429 121.306
L399.992 125.017
L399.798 128.497
L399.778 130.028
L399.778 130.028" style="fill:none;stroke:#ff0000;stroke-width:2.0;"/>
   </g>
   <g id="line2d_4">
    <path clip-path="url(#p4c9e24ada2)" d="
M458.548 188.797
L462.322 188.676
L465.903 188.335
L469.638 187.741
L473.194 186.943
L476.903 185.857
L480.427 184.573
L483.915 183.04
L487.212 181.332
L490.568 179.308
L493.523 177.257
L496.422 174.965
L498.866 172.786
L501.423 170.221
L503.951 167.342
L506.122 164.531
L508.249 161.391
L510.216 158.031
L511.888 154.698
L513.381 151.173
L514.551 147.844
L515.516 144.465
L516.336 140.718
L516.897 137.04
L517.231 133.206
L517.317 130.028
L517.317 130.028" style="fill:none;stroke:#ff0000;stroke-width:2.0;"/>
   </g>
   <g id="line2d_5">
    <path clip-path="url(#p4c9e24ada2)" d="
M118.104 206.01
L115.621 203.667
L113.018 201.482
L110 199.247
L106.896 197.239
L104.028 195.617
L100.49 193.895
L97.0645 192.495
L93.5766 191.318
L90.1586 190.395
L86.362 189.622
L82.8231 189.133
L79.3435 188.863
L75.9187 188.8
L72.3154 188.95
L68.7362 189.318
L65.37 189.87
L62.0594 190.611
L58.5354 191.625
L55.2464 192.793
L51.8797 194.225
L48.5871 195.875
L45.6725 197.561
L42.3922 199.741
L39.7567 201.738
L36.929 204.159
L34.9916 206.01
L34.9916 206.01" style="fill:none;stroke:#008000;stroke-width:2.0;"/>
   </g>
   <g id="line2d_6">
    <path clip-path="url(#p4c9e24ada2)" d="
M201.216 206.01
L198.466 203.431
L195.91 201.308
L193.154 199.276
L190.037 197.256
L186.972 195.529
L183.956 194.054
L180.419 192.585
L176.823 191.359
L173.164 190.369
L169.638 189.65
L166.104 189.151
L162.35 188.859
L159.117 188.799
L155.1 188.974
L151.724 189.335
L148.059 189.953
L144.899 190.681
L141.324 191.731
L137.677 193.063
L134.232 194.583
L131.329 196.077
L128.008 198.049
L124.96 200.135
L122.016 202.436
L119.33 204.819
L118.104 206.01
L118.104 206.01" style="fill:none;stroke:#008000;stroke-width:2.0;"/>
   </g>
   <g id="line2d_7">
    <path clip-path="url(#p4c9e24ada2)" d="
M76.5477 247.566
L79.1015 249.972
L81.9477 252.341
L84.7341 254.387
L87.8827 256.413
L91.057 258.186
L94.1813 259.69
L97.5392 261.064
L100.796 262.173
L104.614 263.21
L108.219 263.942
L111.768 264.437
L115.423 264.718
L118.847 264.775
L122.592 264.608
L126.205 264.218
L129.948 263.573
L133.32 262.775
L136.63 261.783
L140.103 260.506
L143.579 258.971
L146.78 257.308
L150.093 255.31
L152.954 253.331
L155.79 251.105
L158.511 248.684
L159.66 247.566
L159.66 247.566" style="fill:none;stroke:#ff0000;stroke-width:2.0;"/>
   </g>
   <g id="line2d_8">
    <path clip-path="url(#p4c9e24ada2)" d="
M159.66 247.566
L162.195 249.955
L165.068 252.347
L168.263 254.671
L171.213 256.544
L174.5 258.356
L177.828 259.925
L181.432 261.349
L185.011 262.501
L188.481 263.383
L192.184 264.081
L195.224 264.473
L198.922 264.734
L202.593 264.763
L206.375 264.552
L210.406 264.056
L213.939 263.386
L217.576 262.456
L221.074 261.323
L224.313 260.05
L227.678 258.485
L231.055 256.641
L234.137 254.693
L237.222 252.458
L239.625 250.491
L242.305 248.028
L242.772 247.566
L242.772 247.566" style="fill:none;stroke:#ff0000;stroke-width:2.0;"/>
   </g>
   <g id="line2d_9">
    <path clip-path="url(#p4c9e24ada2)" d="
M201.216 206.01
L242.772 247.566" style="fill:none;stroke:#000000;stroke-width:2.0;"/>
   </g>
   <g id="line2d_10">
    <path clip-path="url(#p4c9e24ada2)" d="
M458.548 130.028
L517.317 130.028" style="fill:none;stroke:#000000;stroke-width:2.0;"/>
   </g>
   <g id="matplotlib.axis_1">
    <g id="xtick_1">
     <g id="line2d_11">
      <defs>
       <path d="
M0 0
L0 -4" id="m5cd03fd396"/>
      </defs>
      <g>
       <use style="stroke:#000000;stroke-linecap:butt;stroke-width:0.5;" x="76.5476923077" xlink:href="#m5cd03fd396" y="247.566153846"/>
      </g>
     </g>
    </g>
    <g id="xtick_2">
     <g id="line2d_12">
      <defs>
       <path d="
M0 0
L0 -4" id="m5cd03fd396"/>
      </defs>
      <g>
       <use style="stroke:#000000;stroke-linecap:butt;stroke-width:0.5;" x="223.470769231" xlink:href="#m5cd03fd396" y="247.566153846"/>
      </g>
     </g>
     <g id="text_1">
      <!-- 5 -->
      <defs>
       <path d="
M10.7969 72.9062
L49.5156 72.9062
L49.5156 64.5938
L19.8281 64.5938
L19.8281 46.7344
Q21.9688 47.4688 24.1094 47.8281
Q26.2656 48.1875 28.4219 48.1875
Q40.625 48.1875 47.75 41.5
Q54.8906 34.8125 54.8906 23.3906
Q54.8906 11.625 47.5625 5.09375
Q40.2344 -1.42188 26.9062 -1.42188
Q22.3125 -1.42188 17.5469 -0.640625
Q12.7969 0.140625 7.71875 1.70312
L7.71875 11.625
Q12.1094 9.23438 16.7969 8.0625
Q21.4844 6.89062 26.7031 6.89062
Q35.1562 6.89062 40.0781 11.3281
Q45.0156 15.7656 45.0156 23.3906
Q45.0156 31 40.0781 35.4375
Q35.1562 39.8906 26.7031 39.8906
Q22.75 39.8906 18.8125 39.0156
Q14.8906 38.1406 10.7969 36.2812
z
" id="BitstreamVeraSans-Roman-35"/>
      </defs>
      <g transform="translate(221.112175481 258.856778846)scale(0.1 -0.1)">
       <use xlink:href="#BitstreamVeraSans-Roman-35"/>
      </g>
     </g>
    </g>
    <g id="xtick_3">
     <g id="line2d_13">
      <defs>
       <path d="
M0 0
L0 -4" id="m5cd03fd396"/>
      </defs>
      <g>
       <use style="stroke:#000000;stroke-linecap:butt;stroke-width:0.5;" x="370.393846154" xlink:href="#m5cd03fd396" y="247.566153846"/>
      </g>
     </g>
     <g id="text_2">
      <!-- 10 -->
      <defs>
       <path d="
M31.7812 66.4062
Q24.1719 66.4062 20.3281 58.9062
Q16.5 51.4219 16.5 36.375
Q16.5 21.3906 20.3281 13.8906
Q24.1719 6.39062 31.7812 6.39062
Q39.4531 6.39062 43.2812 13.8906
Q47.125 21.3906 47.125 36.375
Q47.125 51.4219 43.2812 58.9062
Q39.4531 66.4062 31.7812 66.4062
M31.7812 74.2188
Q44.0469 74.2188 50.5156 64.5156
Q56.9844 54.8281 56.9844 36.375
Q56.9844 17.9688 50.5156 8.26562
Q44.0469 -1.42188 31.7812 -1.42188
Q19.5312 -1.42188 13.0625 8.26562
Q6.59375 17.9688 6.59375 36.375
Q6.59375 54.8281 13.0625 64.5156
Q19.5312 74.2188 31.7812 74.2188" id="BitstreamVeraSans-Roman-30"/>
       <path d="
M12.4062 8.29688
L28.5156 8.29688
L28.5156 63.9219
L10.9844 60.4062
L10.9844 69.3906
L28.4219 72.9062
L38.2812 72.9062
L38.2812 8.29688
L54.3906 8.29688
L54.3906 0
L12.4062 0
z
" id="BitstreamVeraSans-Roman-31"/>
      </defs>
      <g transform="translate(364.912596154 258.988028846)scale(0.1 -0.1)">
       <use xlink:href="#BitstreamVeraSans-Roman-31"/>
       <use x="63.623046875" xlink:href="#BitstreamVeraSans-Roman-30"/>
      </g>
     </g>
    </g>
    <g id="xtick_4">
     <g id="line2d_14">
      <defs>
       <path d="
M0 0
L0 -4" id="m5cd03fd396"/>
      </defs>
      <g>
       <use style="stroke:#000000;stroke-linecap:butt;stroke-width:0.5;" x="517.316923077" xlink:href="#m5cd03fd396" y="247.566153846"/>
      </g>
     </g>
     <g id="text_3">
      <!-- 15 -->
      <g transform="translate(511.940360577 258.856778846)scale(0.1 -0.1)">
       <use xlink:href="#BitstreamVeraSans-Roman-31"/>
       <use x="63.623046875" xlink:href="#BitstreamVeraSans-Roman-35"/>
      </g>
     </g>
    </g>
    <g id="xtick_5">
     <g id="line2d_15">
      <defs>
       <path d="
M0 0
L0 -2" id="m4c2fcf32ba"/>
      </defs>
      <g>
       <use style="stroke:#000000;stroke-linecap:butt;stroke-width:0.5;" x="17.7784615385" xlink:href="#m4c2fcf32ba" y="247.566153846"/>
      </g>
     </g>
    </g>
    <g id="xtick_6">
     <g id="line2d_16">
      <defs>
       <path d="
M0 0
L0 -2" id="m4c2fcf32ba"/>
      </defs>
      <g>
       <use style="stroke:#000000;stroke-linecap:butt;stroke-width:0.5;" x="47.1630769231" xlink:href="#m4c2fcf32ba" y="247.566153846"/>
      </g>
     </g>
    </g>
    <g id="xtick_7">
     <g id="line2d_17">
      <defs>
       <path d="
M0 0
L0 -2" id="m4c2fcf32ba"/>
      </defs>
      <g>
       <use style="stroke:#000000;stroke-linecap:butt;stroke-width:0.5;" x="105.932307692" xlink:href="#m4c2fcf32ba" y="247.566153846"/>
      </g>
     </g>
    </g>
    <g id="xtick_8">
     <g id="line2d_18">
      <defs>
       <path d="
M0 0
L0 -2" id="m4c2fcf32ba"/>
      </defs>
      <g>
       <use style="stroke:#000000;stroke-linecap:butt;stroke-width:0.5;" x="135.316923077" xlink:href="#m4c2fcf32ba" y="247.566153846"/>
      </g>
     </g>
    </g>
    <g id="xtick_9">
     <g id="line2d_19">
      <defs>
       <path d="
M0 0
L0 -2" id="m4c2fcf32ba"/>
      </defs>
      <g>
       <use style="stroke:#000000;stroke-linecap:butt;stroke-width:0.5;" x="164.701538462" xlink:href="#m4c2fcf32ba" y="247.566153846"/>
      </g>
     </g>
    </g>
    <g id="xtick_10">
     <g id="line2d_20">
      <defs>
       <path d="
M0 0
L0 -2" id="m4c2fcf32ba"/>
      </defs>
      <g>
       <use style="stroke:#000000;stroke-linecap:butt;stroke-width:0.5;" x="194.086153846" xlink:href="#m4c2fcf32ba" y="247.566153846"/>
      </g>
     </g>
    </g>
    <g id="xtick_11">
     <g id="line2d_21">
      <defs>
       <path d="
M0 0
L0 -2" id="m4c2fcf32ba"/>
      </defs>
      <g>
       <use style="stroke:#000000;stroke-linecap:butt;stroke-width:0.5;" x="252.855384615" xlink:href="#m4c2fcf32ba" y="247.566153846"/>
      </g>
     </g>
    </g>
    <g id="xtick_12">
     <g id="line2d_22">
      <defs>
       <path d="
M0 0
L0 -2" id="m4c2fcf32ba"/>
      </defs>
      <g>
       <use style="stroke:#000000;stroke-linecap:butt;stroke-width:0.5;" x="282.24" xlink:href="#m4c2fcf32ba" y="247.566153846"/>
      </g>
     </g>
    </g>
    <g id="xtick_13">
     <g id="line2d_23">
      <defs>
       <path d="
M0 0
L0 -2" id="m4c2fcf32ba"/>
      </defs>
      <g>
       <use style="stroke:#000000;stroke-linecap:butt;stroke-width:0.5;" x="311.624615385" xlink:href="#m4c2fcf32ba" y="247.566153846"/>
      </g>
     </g>
    </g>
    <g id="xtick_14">
     <g id="line2d_24">
      <defs>
       <path d="
M0 0
L0 -2" id="m4c2fcf32ba"/>
      </defs>
      <g>
       <use style="stroke:#000000;stroke-linecap:butt;stroke-width:0.5;" x="341.009230769" xlink:href="#m4c2fcf32ba" y="247.566153846"/>
      </g>
     </g>
    </g>
    <g id="xtick_15">
     <g id="line2d_25">
      <defs>
       <path d="
M0 0
L0 -2" id="m4c2fcf32ba"/>
      </defs>
      <g>
       <use style="stroke:#000000;stroke-linecap:butt;stroke-width:0.5;" x="399.778461538" xlink:href="#m4c2fcf32ba" y="247.566153846"/>
      </g>
     </g>
    </g>
    <g id="xtick_16">
     <g id="line2d_26">
      <defs>
       <path d="
M0 0
L0 -2" id="m4c2fcf32ba"/>
      </defs>
      <g>
       <use style="stroke:#000000;stroke-linecap:butt;stroke-width:0.5;" x="429.163076923" xlink:href="#m4c2fcf32ba" y="247.566153846"/>
      </g>
     </g>
    </g>
    <g id="xtick_17">
     <g id="line2d_27">
      <defs>
       <path d="
M0 0
L0 -2" id="m4c2fcf32ba"/>
      </defs>
      <g>
       <use style="stroke:#000000;stroke-linecap:butt;stroke-width:0.5;" x="458.547692308" xlink:href="#m4c2fcf32ba" y="247.566153846"/>
      </g>
     </g>
    </g>
    <g id="xtick_18">
     <g id="line2d_28">
      <defs>
       <path d="
M0 0
L0 -2" id="m4c2fcf32ba"/>
      </defs>
      <g>
       <use style="stroke:#000000;stroke-linecap:butt;stroke-width:0.5;" x="487.932307692" xlink:href="#m4c2fcf32ba" y="247.566153846"/>
      </g>
     </g>
    </g>
   </g>
   <g id="matplotlib.axis_2">
    <g id="ytick_1">
     <g id="line2d_29">
      <defs>
       <path d="
M0 0
L4 0" id="m1ac1477bef"/>
      </defs>
      <g>
       <use style="stroke:#000000;stroke-linecap:butt;stroke-width:0.5;" x="76.5476923077" xlink:href="#m1ac1477bef" y="247.566153846"/>
      </g>
     </g>
    </g>
    <g id="ytick_2">
     <g id="line2d_30">
      <defs>
       <path d="
M0 0
L4 0" id="m1ac1477bef"/>
      </defs>
      <g>
       <use style="stroke:#000000;stroke-linecap:butt;stroke-width:0.5;" x="76.5476923077" xlink:href="#m1ac1477bef" y="188.796923077"/>
      </g>
     </g>
     <g id="text_4">
      <!-- 2 -->
      <defs>
       <path d="
M19.1875 8.29688
L53.6094 8.29688
L53.6094 0
L7.32812 0
L7.32812 8.29688
Q12.9375 14.1094 22.625 23.8906
Q32.3281 33.6875 34.8125 36.5312
Q39.5469 41.8438 41.4219 45.5312
Q43.3125 49.2188 43.3125 52.7812
Q43.3125 58.5938 39.2344 62.25
Q35.1562 65.9219 28.6094 65.9219
Q23.9688 65.9219 18.8125 64.3125
Q13.6719 62.7031 7.8125 59.4219
L7.8125 69.3906
Q13.7656 71.7812 18.9375 73
Q24.125 74.2188 28.4219 74.2188
Q39.75 74.2188 46.4844 68.5469
Q53.2188 62.8906 53.2188 53.4219
Q53.2188 48.9219 51.5312 44.8906
Q49.8594 40.875 45.4062 35.4062
Q44.1875 33.9844 37.6406 27.2188
Q31.1094 20.4531 19.1875 8.29688" id="BitstreamVeraSans-Roman-32"/>
      </defs>
      <g transform="translate(67.9195673077 192.507860577)scale(0.1 -0.1)">
       <use xlink:href="#BitstreamVeraSans-Roman-32"/>
      </g>
     </g>
    </g>
    <g id="ytick_3">
     <g id="line2d_31">
      <defs>
       <path d="
M0 0
L4 0" id="m1ac1477bef"/>
      </defs>
      <g>
       <use style="stroke:#000000;stroke-linecap:butt;stroke-width:0.5;" x="76.5476923077" xlink:href="#m1ac1477bef" y="130.027692308"/>
      </g>
     </g>
     <g id="text_5">
      <!-- 4 -->
      <defs>
       <path d="
M37.7969 64.3125
L12.8906 25.3906
L37.7969 25.3906
z

M35.2031 72.9062
L47.6094 72.9062
L47.6094 25.3906
L58.0156 25.3906
L58.0156 17.1875
L47.6094 17.1875
L47.6094 0
L37.7969 0
L37.7969 17.1875
L4.89062 17.1875
L4.89062 26.7031
z
" id="BitstreamVeraSans-Roman-34"/>
      </defs>
      <g transform="translate(67.2351923077 133.673004808)scale(0.1 -0.1)">
       <use xlink:href="#BitstreamVeraSans-Roman-34"/>
      </g>
     </g>
    </g>
    <g id="ytick_4">
     <g id="line2d_32">
      <defs>
       <path d="
M0 0
L4 0" id="m1ac1477bef"/>
      </defs>
      <g>
       <use style="stroke:#000000;stroke-linecap:butt;stroke-width:0.5;" x="76.5476923077" xlink:href="#m1ac1477bef" y="71.2584615385"/>
      </g>
     </g>
     <g id="text_6">
      <!-- 6 -->
      <defs>
       <path d="
M33.0156 40.375
Q26.375 40.375 22.4844 35.8281
Q18.6094 31.2969 18.6094 23.3906
Q18.6094 15.5312 22.4844 10.9531
Q26.375 6.39062 33.0156 6.39062
Q39.6562 6.39062 43.5312 10.9531
Q47.4062 15.5312 47.4062 23.3906
Q47.4062 31.2969 43.5312 35.8281
Q39.6562 40.375 33.0156 40.375
M52.5938 71.2969
L52.5938 62.3125
Q48.875 64.0625 45.0938 64.9844
Q41.3125 65.9219 37.5938 65.9219
Q27.8281 65.9219 22.6719 59.3281
Q17.5312 52.7344 16.7969 39.4062
Q19.6719 43.6562 24.0156 45.9219
Q28.375 48.1875 33.5938 48.1875
Q44.5781 48.1875 50.9531 41.5156
Q57.3281 34.8594 57.3281 23.3906
Q57.3281 12.1562 50.6875 5.35938
Q44.0469 -1.42188 33.0156 -1.42188
Q20.3594 -1.42188 13.6719 8.26562
Q6.98438 17.9688 6.98438 36.375
Q6.98438 53.6562 15.1875 63.9375
Q23.3906 74.2188 37.2031 74.2188
Q40.9219 74.2188 44.7031 73.4844
Q48.4844 72.75 52.5938 71.2969" id="BitstreamVeraSans-Roman-36"/>
      </defs>
      <g transform="translate(67.5133173077 74.8983052885)scale(0.1 -0.1)">
       <use xlink:href="#BitstreamVeraSans-Roman-36"/>
      </g>
     </g>
    </g>
    <g id="ytick_5">
     <g id="line2d_33">
      <defs>
       <path d="
M0 0
L4 0" id="m1ac1477bef"/>
      </defs>
      <g>
       <use style="stroke:#000000;stroke-linecap:butt;stroke-width:0.5;" x="76.5476923077" xlink:href="#m1ac1477bef" y="12.4892307692"/>
      </g>
     </g>
     <g id="text_7">
      <!-- 8 -->
      <defs>
       <path d="
M31.7812 34.625
Q24.75 34.625 20.7188 30.8594
Q16.7031 27.0938 16.7031 20.5156
Q16.7031 13.9219 20.7188 10.1562
Q24.75 6.39062 31.7812 6.39062
Q38.8125 6.39062 42.8594 10.1719
Q46.9219 13.9688 46.9219 20.5156
Q46.9219 27.0938 42.8906 30.8594
Q38.875 34.625 31.7812 34.625
M21.9219 38.8125
Q15.5781 40.375 12.0312 44.7188
Q8.5 49.0781 8.5 55.3281
Q8.5 64.0625 14.7188 69.1406
Q20.9531 74.2188 31.7812 74.2188
Q42.6719 74.2188 48.875 69.1406
Q55.0781 64.0625 55.0781 55.3281
Q55.0781 49.0781 51.5312 44.7188
Q48 40.375 41.7031 38.8125
Q48.8281 37.1562 52.7969 32.3125
Q56.7812 27.4844 56.7812 20.5156
Q56.7812 9.90625 50.3125 4.23438
Q43.8438 -1.42188 31.7812 -1.42188
Q19.7344 -1.42188 13.25 4.23438
Q6.78125 9.90625 6.78125 20.5156
Q6.78125 27.4844 10.7812 32.3125
Q14.7969 37.1562 21.9219 38.8125
M18.3125 54.3906
Q18.3125 48.7344 21.8438 45.5625
Q25.3906 42.3906 31.7812 42.3906
Q38.1406 42.3906 41.7188 45.5625
Q45.3125 48.7344 45.3125 54.3906
Q45.3125 60.0625 41.7188 63.2344
Q38.1406 66.4062 31.7812 66.4062
Q25.3906 66.4062 21.8438 63.2344
Q18.3125 60.0625 18.3125 54.3906" id="BitstreamVeraSans-Roman-38"/>
      </defs>
      <g transform="translate(67.5476923077 16.1290745192)scale(0.1 -0.1)">
       <use xlink:href="#BitstreamVeraSans-Roman-38"/>
      </g>
     </g>
    </g>
    <g id="ytick_6">
     <g id="line2d_34">
      <defs>
       <path d="
M0 0
L2 0" id="ma4822e3922"/>
      </defs>
      <g>
       <use style="stroke:#000000;stroke-linecap:butt;stroke-width:0.5;" x="76.5476923077" xlink:href="#ma4822e3922" y="276.950769231"/>
      </g>
     </g>
    </g>
    <g id="ytick_7">
     <g id="line2d_35">
      <defs>
       <path d="
M0 0
L2 0" id="ma4822e3922"/>
      </defs>
      <g>
       <use style="stroke:#000000;stroke-linecap:butt;stroke-width:0.5;" x="76.5476923077" xlink:href="#ma4822e3922" y="262.258461538"/>
      </g>
     </g>
    </g>
    <g id="ytick_8">
     <g id="line2d_36">
      <defs>
       <path d="
M0 0
L2 0" id="ma4822e3922"/>
      </defs>
      <g>
       <use style="stroke:#000000;stroke-linecap:butt;stroke-width:0.5;" x="76.5476923077" xlink:href="#ma4822e3922" y="232.873846154"/>
      </g>
     </g>
    </g>
    <g id="ytick_9">
     <g id="line2d_37">
      <defs>
       <path d="
M0 0
L2 0" id="ma4822e3922"/>
      </defs>
      <g>
       <use style="stroke:#000000;stroke-linecap:butt;stroke-width:0.5;" x="76.5476923077" xlink:href="#ma4822e3922" y="218.181538462"/>
      </g>
     </g>
    </g>
    <g id="ytick_10">
     <g id="line2d_38">
      <defs>
       <path d="
M0 0
L2 0" id="ma4822e3922"/>
      </defs>
      <g>
       <use style="stroke:#000000;stroke-linecap:butt;stroke-width:0.5;" x="76.5476923077" xlink:href="#ma4822e3922" y="203.489230769"/>
      </g>
     </g>
    </g>
    <g id="ytick_11">
     <g id="line2d_39">
      <defs>
       <path d="
M0 0
L2 0" id="ma4822e3922"/>
      </defs>
      <g>
       <use style="stroke:#000000;stroke-linecap:butt;stroke-width:0.5;" x="76.5476923077" xlink:href="#ma4822e3922" y="174.104615385"/>
      </g>
     </g>
    </g>
    <g id="ytick_12">
     <g id="line2d_40">
      <defs>
       <path d="
M0 0
L2 0" id="ma4822e3922"/>
      </defs>
      <g>
       <use style="stroke:#000000;stroke-linecap:butt;stroke-width:0.5;" x="76.5476923077" xlink:href="#ma4822e3922" y="159.412307692"/>
      </g>
     </g>
    </g>
    <g id="ytick_13">
     <g id="line2d_41">
      <defs>
       <path d="
M0 0
L2 0" id="ma4822e3922"/>
      </defs>
      <g>
       <use style="stroke:#000000;stroke-linecap:butt;stroke-width:0.5;" x="76.5476923077" xlink:href="#ma4822e3922" y="144.72"/>
      </g>
     </g>
    </g>
    <g id="ytick_14">
     <g id="line2d_42">
      <defs>
       <path d="
M0 0
L2 0" id="ma4822e3922"/>
      </defs>
      <g>
       <use style="stroke:#000000;stroke-linecap:butt;stroke-width:0.5;" x="76.5476923077" xlink:href="#ma4822e3922" y="115.335384615"/>
      </g>
     </g>
    </g>
    <g id="ytick_15">
     <g id="line2d_43">
      <defs>
       <path d="
M0 0
L2 0" id="ma4822e3922"/>
      </defs>
      <g>
       <use style="stroke:#000000;stroke-linecap:butt;stroke-width:0.5;" x="76.5476923077" xlink:href="#ma4822e3922" y="100.643076923"/>
      </g>
     </g>
    </g>
    <g id="ytick_16">
     <g id="line2d_44">
      <defs>
       <path d="
M0 0
L2 0" id="ma4822e3922"/>
      </defs>
      <g>
       <use style="stroke:#000000;stroke-linecap:butt;stroke-width:0.5;" x="76.5476923077" xlink:href="#ma4822e3922" y="85.9507692308"/>
      </g>
     </g>
    </g>
    <g id="ytick_17">
     <g id="line2d_45">
      <defs>
       <path d="
M0 0
L2 0" id="ma4822e3922"/>
      </defs>
      <g>
       <use style="stroke:#000000;stroke-linecap:butt;stroke-width:0.5;" x="76.5476923077" xlink:href="#ma4822e3922" y="56.5661538462"/>
      </g>
     </g>
    </g>
    <g id="ytick_18">
     <g id="line2d_46">
      <defs>
       <path d="
M0 0
L2 0" id="ma4822e3922"/>
      </defs>
      <g>
       <use style="stroke:#000000;stroke-linecap:butt;stroke-width:0.5;" x="76.5476923077" xlink:href="#ma4822e3922" y="41.8738461538"/>
      </g>
     </g>
    </g>
    <g id="ytick_19">
     <g id="line2d_47">
      <defs>
       <path d="
M0 0
L2 0" id="ma4822e3922"/>
      </defs>
      <g>
       <use style="stroke:#000000;stroke-linecap:butt;stroke-width:0.5;" x="76.5476923077" xlink:href="#ma4822e3922" y="27.1815384615"/>
      </g>
     </g>
    </g>
   </g>
   <g id="patch_11">
    <path d="
M7.2 247.566
L557.28 247.566" style="fill:none;stroke:#000000;stroke-width:0.8;"/>
   </g>
   <g id="patch_12">
    <path d="
M76.5477 282.24
L76.5477 7.2" style="fill:none;stroke:#000000;stroke-width:0.8;"/>
   </g>
  </g>
 </g>
 <defs>
  <clipPath id="p4c9e24ada2">
   <rect height="275.04" width="550.08" x="7.2" y="7.2"/>
  </clipPath>
 </defs>
</svg>
