<?xml version="1.0" encoding="utf-8" standalone="no"?>
<!DOCTYPE svg PUBLIC "-//W3C//DTD SVG 1.1//EN"
  "http://www.w3.org/Graphics/SVG/1.1/DTD/svg11.dtd">
<!-- Created with matplotlib (http://matplotlib.sourceforge.net/) -->
<svg height="204pt" version="1.1" viewBox="0 0 564 204" width="564pt" xmlns="http://www.w3.org/2000/svg" xmlns:xlink="http://www.w3.org/1999/xlink">
 <defs>
  <style type="text/css">
*{stroke-linecap:square;stroke-linejoin:round;}
  </style>
 </defs>
 <g id="figure_1">
  <g id="patch_1">
   <path d="
M0 204.201
L564.48 204.201
L564.48 0
L0 0
z
" style="fill:#ffffff;"/>
  </g>
  <g id="axes_1">
   <g id="patch_2">
    <path d="
M7.2 196.863
L557.28 196.863
L557.28 7.3373
L7.2 7.3373
z
" style="fill:#ffffff;"/>
   </g>
   <g id="patch_3">
    <path clip-path="url(#p192cf5743b)" d="
M17.7785 102.1
L17.7785 102.1
L20.3416 102.129
L23.0005 102.217
L25.0577 102.328
L27.1541 102.478
L29.2505 102.666
L30.1762 102.762
L32.2472 103.002
L34.3183 103.281
L35.9124 103.521
L37.5065 103.784
L38.3558 103.934
L40.1922 104.28
L42.0287 104.657
L44.7439 105.273
L46.2705 105.65
L47.7381 106.034
L49.2058 106.439
L51.1584 107.012
L53.111 107.624
L54.4602 108.069
L55.8094 108.535
L57.0155 108.967
L59.1259 109.763
L61.4516 110.699
L63.7774 111.7
L64.4086 111.983
L66.3205 112.87
L68.2325 113.806
L70.0769 114.755
L71.9213 115.753
L73.7473 116.79
L74.9544 117.504
L76.1616 118.241
L78.106 119.48
L80.0503 120.785
L82.017 122.177
L83.6545 123.395
L85.3642 124.726
L87.0739 126.123
L88.7112 127.526
L90.3486 128.997
L91.8224 130.384
L93.2963 131.834
L94.8046 133.389
L95.596 134.234
L96.3875 135.102
L97.1789 135.992
L97.9704 136.905
L98.7914 137.879
L99.6125 138.88
L100.306 139.747
L100.999 140.636
L101.692 141.547
L102.385 142.481
L103.473 143.996
L104.561 145.574
L105.649 147.219
L106.737 148.937
L107.783 150.662
L108.306 151.553
L108.829 152.464
L109.47 153.608
L110.111 154.785
L110.632 155.766
L111.152 156.77
L111.673 157.798
L112.194 158.851
L112.831 160.177
L113.468 161.543
L114.105 162.953
L114.742 164.408
L115.379 165.912
L116.016 167.466
L116.654 169.074
L117.291 170.739
L117.78 172.057
L118.269 173.412
L118.758 174.805
L119.247 176.239
L119.65 177.456
L120.054 178.703
L120.458 179.981
L120.862 181.291
L121.348 182.913
L121.834 184.587
L122.32 186.315
L122.806 188.101
L123.292 189.947
L123.778 191.856
L124.264 193.833
L124.75 195.881
L125.031 197.098
L125.312 198.341
L125.592 199.611
L125.873 200.908
L126.154 202.235
L126.434 203.591
L126.715 204.978
L126.996 206.397
L127.283 207.881
L127.57 209.402
L127.856 210.959
L128.143 212.556
L128.453 214.323
L128.762 216.139
L129.071 218.006
L129.381 219.926
L129.69 221.903
L129.999 223.937
L130.309 226.033
L130.618 228.193
L130.927 230.421
L131.237 232.719
L131.546 235.091
L131.701 236.306
L131.856 237.54
L132.01 238.796
L132.165 240.072
L132.32 241.37
L132.474 242.69
L132.629 244.033
L132.784 245.399
L132.938 246.789
L133.093 248.204
L133.258 249.743
L133.423 251.312
L133.589 252.912
L133.754 254.543
L133.919 256.207
L134.084 257.904
L134.25 259.636
L134.415 261.404
L134.642 263.89
L134.868 266.449
L134.982 267.757
L135.095 269.084
L135.209 270.431
L135.322 271.798
L135.435 273.186
L135.549 274.595
L135.662 276.026
L135.776 277.48
L135.889 278.956
L136.002 280.455
L136.116 281.979
L136.229 283.527
L136.343 285.1
L136.456 286.699
L136.569 288.324
L136.683 289.976
L136.796 291.657
L136.91 293.365
L137.023 295.103
L137.136 296.871
L137.25 298.67
L137.363 300.501
L137.477 302.364
L137.59 304.26
L137.703 306.191
L137.817 308.157
L137.93 310.16
L138.044 312.199
L138.158 314.295
L138.272 316.431
L138.387 318.608
L138.501 320.828
L138.615 323.092
L138.73 325.401
L138.844 327.757
L138.959 330.16
L139.043 331.976
L139.128 333.819
L139.213 335.691
L139.298 337.592
L139.383 339.523
L139.468 341.485
L139.552 343.478
L139.637 345.504
L139.722 347.562
L139.807 349.654
L139.892 351.781
L139.977 353.944
L140.062 356.143
L140.146 358.379
L140.231 360.654
L140.316 362.968
L140.401 365.322
L140.486 367.718
L140.571 370.157
L140.655 372.639
L140.74 375.167
L140.825 377.741
L140.91 380.362
L140.995 383.032
L141.08 385.752
L141.165 388.524
L141.249 391.349
L141.334 394.229
L141.419 397.166
L141.504 400.16
L141.589 403.215
L141.674 406.331
L141.802 411.183
L141.931 416.189
L142.06 421.356
L142.189 426.692
L142.318 432.206
L142.446 437.906
L142.575 443.802
L142.704 449.905
L142.833 456.225
L142.962 462.775
L143.09 469.568
L143.219 476.616
L143.348 483.936
L143.477 491.543
L143.606 499.455
L143.734 507.689
L143.863 516.267
L143.992 525.211
L144.121 534.545
L144.25 544.294
L144.378 554.487
L144.507 565.156
L144.636 576.335
L144.765 588.061
L144.894 600.375
L145.022 613.323
L145.151 626.956
L145.28 641.33
L145.409 656.506
L145.538 672.555
L145.667 689.553
L145.795 707.588
L145.867 718.064
L145.938 728.906
L146.009 740.135
L146.081 751.771
L146.152 763.837
L146.224 776.357
L146.295 789.358
L146.366 802.867
L146.438 816.915
L146.509 831.535
L146.58 846.763
L146.652 862.638
L146.723 879.201
L146.795 896.499
L146.866 914.582
L146.937 933.504
L147.009 953.325
L147.08 974.111
L147.151 995.935
L147.223 1018.88
L147.294 1043.02
L147.366 1068.47
L147.437 1095.33
L147.508 1123.72
L147.58 1153.78
L147.651 1185.65
L147.723 1219.52
L147.794 1255.57
L147.865 1294.01
L147.937 1335.1
L148.008 1379.12
L148.079 1426.4
L148.122 1456.05
L148.164 1487.05
L148.206 1519.51
L148.248 1553.52
L148.291 1589.2
L148.333 1626.68
L148.375 1666.1
L148.417 1707.61
L148.459 1751.37
L148.502 1797.59
L148.544 1846.47
L148.586 1898.25
L148.628 1953.2
L148.671 2011.61
L148.713 2073.82
L148.755 2140.23
L148.797 2211.26
L148.839 2287.41
L148.882 2369.27
L148.924 2457.5
L148.966 2552.87
L149.008 2656.28
L149.051 2768.8
L149.093 2891.69
L149.135 3026.45
L149.177 3174.88
L149.219 3339.19
L149.262 3522.05
L149.304 3726.81
L149.346 3957.64
L149.388 4219.86
L149.431 4520.35
L149.545 5605.52
L149.659 7397.2
L149.773 10918.4
L149.887 21010.4
L150.001 312247
L150.115 -24040.4
L150.229 -11519.7
L150.343 -7550.72
L150.457 -5602.49
L150.572 -4444.89
L150.686 -3677.82
L150.8 -3132.17
L150.914 -2724.16
L151.028 -2407.54
L151.142 -2154.7
L151.256 -1948.12
L151.37 -1776.18
L151.484 -1630.82
L151.598 -1506.34
L151.712 -1398.53
L151.827 -1304.25
L151.941 -1221.11
L152.055 -1147.23
L152.169 -1081.16
L152.283 -1021.72
L152.397 -967.954
L152.511 -919.089
L152.625 -874.483
L152.739 -833.603
L152.853 -796
L152.968 -761.295
L153.082 -729.165
L153.152 -710.628
L153.221 -692.898
L153.291 -675.923
L153.361 -659.654
L153.431 -644.05
L153.501 -629.069
L153.571 -614.676
L153.641 -600.836
L153.711 -587.518
L153.781 -574.693
L153.851 -562.334
L153.921 -550.416
L153.99 -538.916
L154.06 -527.813
L154.13 -517.085
L154.2 -506.714
L154.27 -496.683
L154.34 -486.976
L154.41 -477.576
L154.48 -468.469
L154.55 -459.642
L154.62 -451.082
L154.69 -442.778
L154.759 -434.717
L154.829 -426.889
L154.899 -419.285
L154.969 -411.894
L155.039 -404.708
L155.109 -397.719
L155.179 -390.918
L155.249 -384.298
L155.319 -377.852
L155.456 -365.656
L155.594 -354.058
L155.731 -343.016
L155.869 -332.49
L156.006 -322.445
L156.144 -312.848
L156.281 -303.67
L156.419 -294.884
L156.556 -286.466
L156.694 -278.392
L156.831 -270.642
L156.969 -263.196
L157.106 -256.037
L157.244 -249.149
L157.381 -242.517
L157.519 -236.125
L157.656 -229.962
L157.794 -224.016
L157.931 -218.274
L158.069 -212.727
L158.206 -207.365
L158.344 -202.178
L158.481 -197.158
L158.619 -192.297
L158.756 -187.588
L158.894 -183.023
L159.031 -178.596
L159.169 -174.301
L159.306 -170.132
L159.444 -166.083
L159.581 -162.149
L159.719 -158.325
L159.8 -156.107
L159.882 -153.926
L159.963 -151.78
L160.045 -149.668
L160.126 -147.59
L160.208 -145.545
L160.289 -143.532
L160.371 -141.55
L160.452 -139.599
L160.534 -137.678
L160.616 -135.786
L160.697 -133.922
L160.779 -132.086
L160.86 -130.278
L160.942 -128.496
L161.023 -126.74
L161.105 -125.01
L161.186 -123.304
L161.268 -121.623
L161.35 -119.966
L161.431 -118.332
L161.513 -116.72
L161.594 -115.132
L161.676 -113.565
L161.757 -112.019
L161.839 -110.495
L161.92 -108.991
L162.002 -107.507
L162.083 -106.043
L162.165 -104.598
L162.328 -101.765
L162.494 -98.9588
L162.66 -96.2253
L162.826 -93.5612
L162.991 -90.964
L163.157 -88.4311
L163.323 -85.9601
L163.489 -83.5486
L163.655 -81.1946
L163.842 -78.5957
L164.03 -76.0649
L164.218 -73.5996
L164.406 -71.1972
L164.594 -68.8552
L164.781 -66.5714
L164.969 -64.3436
L165.157 -62.1697
L165.345 -60.0477
L165.532 -57.9757
L165.72 -55.9519
L165.908 -53.9747
L166.096 -52.0424
L166.284 -50.1535
L166.471 -48.3064
L166.659 -46.4997
L166.915 -44.1052
L167.17 -41.7798
L167.425 -39.5205
L167.681 -37.3244
L167.936 -35.1887
L168.191 -33.1111
L168.447 -31.089
L168.702 -29.1202
L168.865 -27.8917
L169.028 -26.6835
L169.191 -25.4951
L169.353 -24.3258
L169.679 -22.0432
L170.005 -19.8319
L170.33 -17.6887
L170.656 -15.6101
L170.982 -13.5934
L171.307 -11.6355
L171.59 -9.97981
L171.873 -8.36494
L172.156 -6.78936
L172.439 -5.2516
L172.722 -3.75023
L173.005 -2.28393
L173.288 -0.851416
L173.571 0.548519
L173.874 2.01109
L174.177 3.43905
L174.48 4.83369
L174.782 6.19623
L175.085 7.52781
L175.388 8.82954
L175.69 10.1025
L175.993 11.3476
L176.289 12.5375
L176.584 13.7026
L176.88 14.8437
L177.175 15.9617
L177.471 17.0573
L177.766 18.1312
L178.062 19.1841
L178.358 20.2165
L178.949 22.2229
L179.54 24.1548
L180.131 26.0168
L180.722 27.8129
L181.138 29.0404
L181.555 30.2383
L182.169 31.953
L182.783 33.609
L183.397 35.2096
L184.011 36.7576
L184.479 37.9028
L184.946 39.0203
L185.414 40.1111
L185.882 41.1763
L186.349 42.2168
L186.817 43.2336
L187.284 44.2276
L187.752 45.1995
L188.236 46.1842
L188.721 47.1469
L189.206 48.0885
L189.69 49.0096
L190.659 50.7932
L191.628 52.5032
L192.244 53.5534
L192.86 54.5769
L193.475 55.5749
L194.091 56.5484
L194.847 57.7127
L195.604 58.843
L196.503 60.145
L197.403 61.4037
L198.302 62.6215
L199.202 63.8003
L200.261 65.1408
L201.405 66.5352
L202.549 67.8766
L203.863 69.3555
L205.177 70.7727
L206.49 72.1322
L207.804 73.4374
L207.959 73.5881
L208.93 74.5147
L209.9 75.4147
L210.87 76.2892
L211.841 77.1393
L212.994 78.1198
L214.148 79.0685
L215.223 79.9247
L216.298 80.7556
L217.372 81.5622
L218.447 82.3452
L219.217 82.8927
L221.106 84.1875
L222.995 85.4181
L224.462 86.3321
L225.93 87.211
L227.109 87.8928
L228.288 88.5535
L230.49 89.7327
L232.446 90.7235
L233.678 91.3209
L234.91 91.8986
L236.44 92.5895
L237.971 93.2514
L239.986 94.0803
L242.002 94.8621
L243.334 95.3538
L244.667 95.8261
L247.281 96.6974
L249.411 97.3541
L250.639 97.7119
L252.655 98.2664
L254.671 98.7811
L256.421 99.1962
L258.172 99.5823
L259.695 99.8948
L261.878 100.305
L263.482 100.58
L265.087 100.83
L266.572 101.042
L268.058 101.234
L269.525 101.405
L271.794 101.631
L274.303 101.83
L276.813 101.974
L277.952 102.022
L280.155 102.082
L282.38 102.1
L284.605 102.076
L285.059 102.066
L287.31 101.99
L289.56 101.87
L290.357 101.818
L293.077 101.596
L294.631 101.44
L296.185 101.263
L298.07 101.02
L299.955 100.745
L301.656 100.47
L303.357 100.168
L305.762 99.6968
L306.17 99.6114
L307.753 99.2658
L309.335 98.8964
L312.005 98.2186
L314.234 97.5991
L316.463 96.9296
L318.982 96.1112
L320.319 95.649
L321.657 95.1674
L323.06 94.6411
L324.463 94.0924
L325.197 93.7965
L326.803 93.1263
L328.41 92.4251
L329.897 91.7473
L331.384 91.0411
L333.28 90.0981
L335.177 89.1057
L336.449 88.4114
L337.72 87.6932
L338.879 87.017
L340.038 86.3196
L341.299 85.536
L342.56 84.7255
L344.499 83.4245
L346.132 82.2742
L347.765 81.0715
L349.008 80.1194
L350.251 79.1338
L351.887 77.7825
L353.523 76.3663
L354.696 75.308
L355.87 74.2123
L356.716 73.398
L357.562 72.5624
L358.409 71.7047
L359.255 70.8241
L359.564 70.4965
L361.004 68.9265
L361.724 68.1136
L362.444 67.2811
L363.726 65.7494
L365.007 64.1489
L365.87 63.0288
L366.734 61.8735
L367.597 60.6812
L368.461 59.45
L369.479 57.9443
L370.498 56.3778
L371.374 54.9791
L372.25 53.5296
L373.126 52.0261
L374.002 50.4653
L374.766 49.0544
L375.53 47.5945
L376.294 46.0827
L377.058 44.5161
L377.735 43.0795
L378.412 41.5947
L379.089 40.059
L379.765 38.4695
L380.335 37.0891
L380.904 35.6664
L381.473 34.1993
L382.042 32.6854
L382.737 30.7706
L383.084 29.7842
L383.432 28.7777
L383.779 27.7503
L384.126 26.7013
L384.474 25.63
L384.821 24.5357
L385.223 23.2394
L385.625 21.9098
L386.027 20.5455
L386.429 19.145
L386.939 17.3128
L387.45 15.4165
L387.96 13.4522
L388.47 11.416
L388.725 10.3697
L388.98 9.30375
L389.235 8.21761
L389.491 7.11067
L389.746 5.98228
L390.001 4.83177
L390.256 3.65846
L390.511 2.46161
L390.852 0.825354
L391.192 -0.856112
L391.533 -2.58479
L391.874 -4.36282
L392.084 -5.48588
L392.294 -6.62915
L392.505 -7.79321
L392.715 -8.97867
L392.925 -10.1861
L393.136 -11.4163
L393.346 -12.6697
L393.556 -13.9473
L393.766 -15.2496
L393.977 -16.5774
L394.187 -17.9315
L394.397 -19.3128
L394.608 -20.7221
L394.818 -22.1603
L395.028 -23.6284
L395.238 -25.1272
L395.444 -26.6248
L395.65 -28.1538
L395.856 -29.7153
L396.062 -31.3105
L396.267 -32.9404
L396.473 -34.6062
L396.679 -36.3093
L396.885 -38.0508
L397.09 -39.8322
L397.296 -41.6549
L397.502 -43.5203
L397.708 -45.4302
L397.913 -47.386
L398.119 -49.3896
L398.325 -51.4428
L398.531 -53.5474
L398.739 -55.7269
L398.946 -57.9631
L399.154 -60.2584
L399.362 -62.6151
L399.561 -64.9386
L399.761 -67.3236
L399.961 -69.7725
L400.16 -72.2882
L400.36 -74.8733
L400.559 -77.531
L400.659 -78.888
L400.759 -80.2643
L400.858 -81.6603
L400.958 -83.0766
L401.058 -84.5135
L401.158 -85.9715
L401.257 -87.4511
L401.357 -88.9527
L401.457 -90.4769
L401.557 -92.0243
L401.657 -93.5952
L401.756 -95.1904
L401.856 -96.8104
L401.956 -98.4557
L402.056 -100.127
L402.155 -101.825
L402.255 -103.55
L402.355 -105.303
L402.455 -107.085
L402.554 -108.896
L402.677 -111.156
L402.799 -113.464
L402.921 -115.819
L403.044 -118.224
L403.166 -120.681
L403.288 -123.19
L403.41 -125.754
L403.533 -128.374
L403.655 -131.053
L403.777 -133.792
L403.899 -136.594
L404.022 -139.461
L404.144 -142.394
L404.266 -145.397
L404.389 -148.472
L404.511 -151.622
L404.633 -154.849
L404.755 -158.156
L404.878 -161.547
L405 -165.024
L405.122 -168.592
L405.244 -172.253
L405.367 -176.011
L405.489 -179.871
L405.611 -183.836
L405.734 -187.911
L405.856 -192.101
L405.978 -196.41
L406.1 -200.844
L406.223 -205.409
L406.345 -210.11
L406.467 -214.953
L406.518 -217.028
L406.57 -219.13
L406.621 -221.259
L406.672 -223.416
L406.724 -225.602
L406.775 -227.816
L406.826 -230.06
L406.877 -232.333
L406.929 -234.638
L406.98 -236.974
L407.031 -239.342
L407.082 -241.742
L407.134 -244.176
L407.185 -246.644
L407.236 -249.146
L407.288 -251.685
L407.339 -254.259
L407.39 -256.87
L407.441 -259.52
L407.493 -262.208
L407.544 -264.936
L407.595 -267.704
L407.646 -270.513
L407.698 -273.365
L407.749 -276.26
L407.8 -279.199
L407.852 -282.184
L407.903 -285.215
L407.954 -288.293
L408.005 -291.421
L408.057 -294.597
L408.108 -297.825
L408.182 -302.567
L408.256 -307.421
L408.33 -312.391
L408.403 -317.481
L408.477 -322.697
L408.551 -328.042
L408.625 -333.522
L408.699 -339.141
L408.773 -344.905
L408.847 -350.821
L408.92 -356.893
L408.994 -363.128
L409.068 -369.533
L409.142 -376.115
L409.216 -382.882
L409.29 -389.841
L409.364 -397
L409.438 -404.369
L409.511 -411.957
L409.585 -419.774
L409.659 -427.83
L409.733 -436.136
L409.807 -444.705
L409.881 -453.549
L409.955 -462.682
L410.028 -472.117
L410.102 -481.871
L410.176 -491.959
L410.25 -502.4
L410.324 -513.212
L410.398 -524.415
L410.472 -536.032
L410.537 -546.628
L410.602 -557.58
L410.667 -568.905
L410.732 -580.625
L410.797 -592.759
L410.862 -605.33
L410.927 -618.362
L410.992 -631.881
L411.057 -645.915
L411.122 -660.493
L411.187 -675.649
L411.253 -691.417
L411.318 -707.834
L411.383 -724.944
L411.448 -742.789
L411.513 -761.418
L411.578 -780.885
L411.643 -801.247
L411.708 -822.567
L411.773 -844.915
L411.838 -868.368
L411.903 -893.008
L411.968 -918.929
L412.034 -946.233
L412.099 -975.035
L412.164 -1005.46
L412.229 -1037.65
L412.294 -1071.76
L412.359 -1107.98
L412.424 -1146.5
L412.489 -1187.54
L412.554 -1231.38
L412.69 -1333.42
L412.826 -1452.35
L412.963 -1592.74
L413.099 -1760.98
L413.235 -1966.28
L413.371 -2222.39
L413.507 -2550.85
L413.643 -2987.35
L413.779 -3595.73
L413.916 -4502.4
L414.052 -5998
L414.188 -8932.4
L414.324 -17306.3
L414.46 -237945
L414.596 20492.9
L414.732 9878.71
L414.868 6531.75
L415.005 4891.92
L415.141 3918.52
L415.277 3273.9
L415.413 2815.55
L415.549 2472.91
L415.685 2207.08
L415.821 1994.83
L415.957 1821.44
L416.094 1677.14
L416.23 1555.16
L416.366 1450.71
L416.502 1360.24
L416.638 1281.14
L416.774 1211.38
L416.91 1149.4
L417 1112.44
L417.089 1077.99
L417.178 1045.8
L417.267 1015.67
L417.356 987.397
L417.445 960.816
L417.534 935.78
L417.623 912.159
L417.713 889.834
L417.802 868.703
L417.891 848.672
L417.98 829.658
L418.069 811.583
L418.158 794.382
L418.247 777.99
L418.336 762.354
L418.426 747.421
L418.515 733.145
L418.604 719.484
L418.693 706.398
L418.782 693.853
L418.871 681.814
L418.96 670.252
L419.049 659.14
L419.139 648.451
L419.228 638.161
L419.317 628.249
L419.406 618.694
L419.495 609.477
L419.584 600.58
L419.673 591.987
L419.762 583.683
L419.826 577.897
L419.89 572.247
L419.954 566.728
L420.018 561.336
L420.082 556.067
L420.146 550.916
L420.21 545.879
L420.274 540.952
L420.338 536.133
L420.402 531.417
L420.466 526.801
L420.53 522.282
L420.593 517.857
L420.657 513.523
L420.721 509.278
L420.785 505.118
L420.849 501.041
L420.913 497.044
L420.977 493.126
L421.041 489.283
L421.105 485.515
L421.169 481.817
L421.233 478.19
L421.297 474.63
L421.361 471.135
L421.424 467.705
L421.488 464.336
L421.552 461.028
L421.616 457.779
L421.68 454.588
L421.744 451.452
L421.808 448.37
L421.866 445.632
L421.923 442.937
L421.981 440.283
L422.039 437.668
L422.097 435.094
L422.154 432.557
L422.212 430.059
L422.27 427.597
L422.328 425.171
L422.385 422.78
L422.443 420.423
L422.501 418.1
L422.558 415.81
L422.616 413.552
L422.674 411.326
L422.732 409.131
L422.789 406.965
L422.847 404.83
L422.905 402.723
L422.963 400.645
L423.02 398.595
L423.078 396.572
L423.136 394.576
L423.193 392.606
L423.251 390.661
L423.309 388.742
L423.367 386.847
L423.424 384.977
L423.482 383.13
L423.54 381.307
L423.598 379.507
L423.655 377.729
L423.783 373.859
L423.912 370.093
L424.04 366.427
L424.168 362.857
L424.296 359.379
L424.424 355.99
L424.553 352.686
L424.681 349.464
L424.809 346.321
L424.937 343.254
L425.065 340.261
L425.193 337.337
L425.322 334.483
L425.45 331.694
L425.578 328.968
L425.706 326.304
L425.834 323.699
L425.962 321.151
L426.091 318.659
L426.219 316.22
L426.347 313.833
L426.475 311.496
L426.603 309.208
L426.732 306.967
L426.86 304.772
L426.988 302.62
L427.116 300.512
L427.244 298.445
L427.372 296.418
L427.501 294.431
L427.629 292.481
L427.757 290.569
L427.876 288.818
L427.996 287.096
L428.116 285.405
L428.235 283.742
L428.355 282.108
L428.474 280.5
L428.594 278.919
L428.713 277.365
L428.833 275.835
L428.952 274.33
L429.072 272.85
L429.191 271.392
L429.311 269.958
L429.431 268.546
L429.55 267.156
L429.67 265.787
L429.799 264.324
L429.929 262.885
L430.059 261.47
L430.189 260.077
L430.319 258.707
L430.449 257.358
L430.578 256.03
L430.708 254.723
L430.838 253.436
L430.968 252.169
L431.227 249.691
L431.487 247.287
L431.747 244.953
L432.018 242.583
L432.29 240.282
L432.562 238.048
L432.833 235.878
L433.105 233.769
L433.377 231.718
L433.648 229.724
L433.92 227.783
L434.192 225.893
L434.463 224.053
L434.735 222.26
L435.007 220.512
L435.278 218.808
L435.55 217.146
L435.822 215.524
L436.093 213.942
L436.321 212.642
L436.55 211.368
L436.778 210.118
L437.006 208.893
L437.234 207.69
L437.462 206.511
L437.69 205.353
L437.918 204.217
L438.35 202.121
L438.782 200.095
L439.214 198.137
L439.646 196.241
L440.078 194.406
L440.51 192.627
L440.942 190.903
L441.374 189.231
L441.9 187.263
L442.207 186.146
L442.513 185.052
L442.82 183.98
L443.127 182.93
L443.434 181.899
L443.741 180.889
L444.354 178.926
L444.968 177.036
L445.581 175.215
L446.195 173.458
L446.808 171.762
L447.223 170.65
L447.637 169.564
L448.051 168.502
L448.465 167.463
L449.028 166.086
L449.592 164.748
L450.155 163.449
L450.719 162.186
L451.212 161.11
L451.705 160.06
L452.197 159.034
L452.69 158.032
L453.183 157.053
L453.676 156.095
L454.169 155.159
L454.662 154.243
L455.203 153.26
L455.744 152.3
L456.285 151.362
L456.826 150.446
L457.48 149.364
L458.134 148.311
L458.788 147.285
L459.443 146.286
L460.303 145.009
L461.164 143.774
L462.114 142.455
L463.065 141.18
L464.016 139.949
L464.966 138.758
L465.706 137.858
L466.446 136.98
L467.186 136.123
L467.925 135.287
L468.711 134.422
L469.497 133.578
L470.515 132.514
L471.534 131.484
L472.403 130.63
L473.272 129.799
L474.141 128.989
L475.01 128.199
L476.224 127.129
L477.438 126.096
L478.386 125.314
L479.334 124.553
L480.282 123.811
L481.23 123.089
L482.39 122.231
L483.549 121.399
L485.36 120.153
L486.739 119.243
L488.119 118.365
L490.199 117.103
L491.88 116.132
L493.562 115.204
L495.425 114.223
L497.288 113.291
L498.793 112.571
L500.784 111.664
L502.849 110.774
L504.915 109.935
L506.864 109.189
L508.523 108.587
L510.182 108.015
L512.455 107.278
L513.711 106.895
L516.007 106.234
L518.303 105.626
L519.851 105.246
L521.605 104.842
L523.359 104.467
L524.192 104.299
L526.349 103.894
L528.505 103.531
L531.094 103.151
L533.275 102.876
L535.6 102.63
L537.958 102.429
L539.608 102.316
L541.259 102.227
L542.855 102.164
L544.778 102.116
L546.702 102.1
L546.702 102.1
L17.7785 102.1" style="fill:#808080;opacity:0.5;"/>
   </g>
   <g id="line2d_1">
    <path clip-path="url(#p192cf5743b)" d="
M17.7785 102.1
L23.0005 102.217
L27.1541 102.478
L32.2472 103.002
L38.3558 103.934
L42.0287 104.657
L47.7381 106.034
L53.111 107.624
L57.0155 108.967
L61.4516 110.699
L66.3205 112.87
L70.0769 114.755
L74.9544 117.504
L78.106 119.48
L82.017 122.177
L85.3642 124.726
L88.7112 127.526
L91.8224 130.384
L95.596 134.234
L98.7914 137.879
L101.692 141.547
L104.561 145.574
L106.737 148.937
L109.47 153.608
L111.673 157.798
L114.105 162.953
L116.016 167.466
L118.269 173.412
L120.458 179.981
L122.32 186.315
L124.264 193.833
L126.154 202.235
L126.759 205.201
M150.107 205.201
L150.107 -1
M173.259 -1
L174.782 6.19623
L176.584 13.7026
L178.358 20.2165
L180.131 26.0168
L182.169 31.953
L184.479 37.9028
L186.817 43.2336
L189.206 48.0885
L191.628 52.5032
L194.091 56.5484
L196.503 60.145
L199.202 63.8003
L202.549 67.8766
L205.177 70.7727
L208.93 74.5147
L211.841 77.1393
L215.223 79.9247
L219.217 82.8927
L222.995 85.4181
L227.109 87.8928
L230.49 89.7327
L234.91 91.8986
L239.986 94.0803
L244.667 95.8261
L250.639 97.7119
L256.421 99.1962
L261.878 100.305
L266.572 101.042
L271.794 101.631
L277.952 102.022
L282.38 102.1
L287.31 101.99
L293.077 101.596
L298.07 101.02
L303.357 100.168
L309.335 98.8964
L314.234 97.5991
L318.982 96.1112
L323.06 94.6411
L326.803 93.1263
L331.384 91.0411
L336.449 88.4114
L340.038 86.3196
L344.499 83.4245
L349.008 80.1194
L351.887 77.7825
L355.87 74.2123
L359.255 70.8241
L361.724 68.1136
L363.726 65.7494
L366.734 61.8735
L369.479 57.9443
L372.25 53.5296
L374.766 49.0544
L377.058 44.5161
L379.089 40.059
L381.473 34.1993
L383.779 27.7503
L385.625 21.9098
L387.45 15.4165
L389.235 8.21761
L390.852 0.825354
L391.221 -1
M414.585 -1
L414.585 205.201
M437.721 205.201
L439.214 198.137
L440.942 190.903
L442.82 183.98
L444.354 178.926
L446.195 173.458
L448.465 167.463
L450.719 162.186
L453.183 157.053
L455.744 152.3
L458.134 148.311
L460.303 145.009
L463.065 141.18
L466.446 136.98
L469.497 133.578
L472.403 130.63
L475.01 128.199
L478.386 125.314
L482.39 122.231
L486.739 119.243
L490.199 117.103
L493.562 115.204
L498.793 112.571
L502.849 110.774
L508.523 108.587
L513.711 106.895
L518.303 105.626
L523.359 104.467
L528.505 103.531
L533.275 102.876
L539.608 102.316
L544.778 102.116
L546.702 102.1
L546.702 102.1" style="fill:none;stroke:#0000ff;"/>
   </g>
   <g id="matplotlib.axis_1">
    <g id="xtick_1">
     <g id="line2d_2">
      <path d="
M29.6978 196.863
L29.6978 7.3373" style="fill:none;stroke:#000000;stroke-dasharray:1.000000,3.000000;stroke-dashoffset:0.0;stroke-linecap:butt;stroke-width:0.5;"/>
     </g>
     <g id="line2d_3">
      <defs>
       <path d="
M0 0
L0 -4" id="m8d42aa9c00"/>
      </defs>
      <g>
       <use style="stroke:#000000;stroke-linecap:butt;stroke-width:0.5;" x="29.697833377" xlink:href="#m8d42aa9c00" y="102.100374445"/>
      </g>
     </g>
     <g id="text_1">
      <!-- -3 -->
      <defs>
       <path d="
M40.5781 39.3125
Q47.6562 37.7969 51.625 33
Q55.6094 28.2188 55.6094 21.1875
Q55.6094 10.4062 48.1875 4.48438
Q40.7656 -1.42188 27.0938 -1.42188
Q22.5156 -1.42188 17.6562 -0.515625
Q12.7969 0.390625 7.625 2.20312
L7.625 11.7188
Q11.7188 9.32812 16.5938 8.10938
Q21.4844 6.89062 26.8125 6.89062
Q36.0781 6.89062 40.9375 10.5469
Q45.7969 14.2031 45.7969 21.1875
Q45.7969 27.6406 41.2812 31.2656
Q36.7656 34.9062 28.7188 34.9062
L20.2188 34.9062
L20.2188 43.0156
L29.1094 43.0156
Q36.375 43.0156 40.2344 45.9219
Q44.0938 48.8281 44.0938 54.2969
Q44.0938 59.9062 40.1094 62.9062
Q36.1406 65.9219 28.7188 65.9219
Q24.6562 65.9219 20.0156 65.0312
Q15.375 64.1562 9.8125 62.3125
L9.8125 71.0938
Q15.4375 72.6562 20.3438 73.4375
Q25.25 74.2188 29.5938 74.2188
Q40.8281 74.2188 47.3594 69.1094
Q53.9062 64.0156 53.9062 55.3281
Q53.9062 49.2656 50.4375 45.0938
Q46.9688 40.9219 40.5781 39.3125" id="BitstreamVeraSans-Roman-33"/>
       <path d="
M4.89062 31.3906
L31.2031 31.3906
L31.2031 23.3906
L4.89062 23.3906
z
" id="BitstreamVeraSans-Roman-2d"/>
      </defs>
      <g transform="translate(25.357989627 113.522249445)scale(0.1 -0.1)">
       <use xlink:href="#BitstreamVeraSans-Roman-2d"/>
       <use x="36.083984375" xlink:href="#BitstreamVeraSans-Roman-33"/>
      </g>
     </g>
    </g>
    <g id="xtick_2">
     <g id="line2d_4">
      <path d="
M113.879 196.863
L113.879 7.3373" style="fill:none;stroke:#000000;stroke-dasharray:1.000000,3.000000;stroke-dashoffset:0.0;stroke-linecap:butt;stroke-width:0.5;"/>
     </g>
     <g id="line2d_5">
      <defs>
       <path d="
M0 0
L0 -4" id="m8d42aa9c00"/>
      </defs>
      <g>
       <use style="stroke:#000000;stroke-linecap:butt;stroke-width:0.5;" x="113.878555585" xlink:href="#m8d42aa9c00" y="102.100374445"/>
      </g>
     </g>
     <g id="text_2">
      <!-- -2 -->
      <defs>
       <path d="
M19.1875 8.29688
L53.6094 8.29688
L53.6094 0
L7.32812 0
L7.32812 8.29688
Q12.9375 14.1094 22.625 23.8906
Q32.3281 33.6875 34.8125 36.5312
Q39.5469 41.8438 41.4219 45.5312
Q43.3125 49.2188 43.3125 52.7812
Q43.3125 58.5938 39.2344 62.25
Q35.1562 65.9219 28.6094 65.9219
Q23.9688 65.9219 18.8125 64.3125
Q13.6719 62.7031 7.8125 59.4219
L7.8125 69.3906
Q13.7656 71.7812 18.9375 73
Q24.125 74.2188 28.4219 74.2188
Q39.75 74.2188 46.4844 68.5469
Q53.2188 62.8906 53.2188 53.4219
Q53.2188 48.9219 51.5312 44.8906
Q49.8594 40.875 45.4062 35.4062
Q44.1875 33.9844 37.6406 27.2188
Q31.1094 20.4531 19.1875 8.29688" id="BitstreamVeraSans-Roman-32"/>
      </defs>
      <g transform="translate(109.638711835 113.522249445)scale(0.1 -0.1)">
       <use xlink:href="#BitstreamVeraSans-Roman-2d"/>
       <use x="36.083984375" xlink:href="#BitstreamVeraSans-Roman-32"/>
      </g>
     </g>
    </g>
    <g id="xtick_3">
     <g id="line2d_6">
      <path d="
M198.059 196.863
L198.059 7.3373" style="fill:none;stroke:#000000;stroke-dasharray:1.000000,3.000000;stroke-dashoffset:0.0;stroke-linecap:butt;stroke-width:0.5;"/>
     </g>
     <g id="line2d_7">
      <defs>
       <path d="
M0 0
L0 -4" id="m8d42aa9c00"/>
      </defs>
      <g>
       <use style="stroke:#000000;stroke-linecap:butt;stroke-width:0.5;" x="198.059277792" xlink:href="#m8d42aa9c00" y="102.100374445"/>
      </g>
     </g>
     <g id="text_3">
      <!-- -1 -->
      <defs>
       <path d="
M12.4062 8.29688
L28.5156 8.29688
L28.5156 63.9219
L10.9844 60.4062
L10.9844 69.3906
L28.4219 72.9062
L38.2812 72.9062
L38.2812 8.29688
L54.3906 8.29688
L54.3906 0
L12.4062 0
z
" id="BitstreamVeraSans-Roman-31"/>
      </defs>
      <g transform="translate(193.780371542 113.390999445)scale(0.1 -0.1)">
       <use xlink:href="#BitstreamVeraSans-Roman-2d"/>
       <use x="36.083984375" xlink:href="#BitstreamVeraSans-Roman-31"/>
      </g>
     </g>
    </g>
    <g id="xtick_4">
     <g id="line2d_8">
      <path d="
M282.24 196.863
L282.24 7.3373" style="fill:none;stroke:#000000;stroke-dasharray:1.000000,3.000000;stroke-dashoffset:0.0;stroke-linecap:butt;stroke-width:0.5;"/>
     </g>
     <g id="line2d_9">
      <defs>
       <path d="
M0 0
L0 -4" id="m8d42aa9c00"/>
      </defs>
      <g>
       <use style="stroke:#000000;stroke-linecap:butt;stroke-width:0.5;" x="282.24" xlink:href="#m8d42aa9c00" y="102.100374445"/>
      </g>
     </g>
    </g>
    <g id="xtick_5">
     <g id="line2d_10">
      <path d="
M366.421 196.863
L366.421 7.3373" style="fill:none;stroke:#000000;stroke-dasharray:1.000000,3.000000;stroke-dashoffset:0.0;stroke-linecap:butt;stroke-width:0.5;"/>
     </g>
     <g id="line2d_11">
      <defs>
       <path d="
M0 0
L0 -4" id="m8d42aa9c00"/>
      </defs>
      <g>
       <use style="stroke:#000000;stroke-linecap:butt;stroke-width:0.5;" x="366.420722208" xlink:href="#m8d42aa9c00" y="102.100374445"/>
      </g>
     </g>
     <g id="text_4">
      <!-- 1 -->
      <g transform="translate(364.250409708 113.390999445)scale(0.1 -0.1)">
       <use xlink:href="#BitstreamVeraSans-Roman-31"/>
      </g>
     </g>
    </g>
    <g id="xtick_6">
     <g id="line2d_12">
      <path d="
M450.601 196.863
L450.601 7.3373" style="fill:none;stroke:#000000;stroke-dasharray:1.000000,3.000000;stroke-dashoffset:0.0;stroke-linecap:butt;stroke-width:0.5;"/>
     </g>
     <g id="line2d_13">
      <defs>
       <path d="
M0 0
L0 -4" id="m8d42aa9c00"/>
      </defs>
      <g>
       <use style="stroke:#000000;stroke-linecap:butt;stroke-width:0.5;" x="450.601444415" xlink:href="#m8d42aa9c00" y="102.100374445"/>
      </g>
     </g>
     <g id="text_5">
      <!-- 2 -->
      <g transform="translate(448.287381915 113.522249445)scale(0.1 -0.1)">
       <use xlink:href="#BitstreamVeraSans-Roman-32"/>
      </g>
     </g>
    </g>
    <g id="xtick_7">
     <g id="line2d_14">
      <path d="
M534.782 196.863
L534.782 7.3373" style="fill:none;stroke:#000000;stroke-dasharray:1.000000,3.000000;stroke-dashoffset:0.0;stroke-linecap:butt;stroke-width:0.5;"/>
     </g>
     <g id="line2d_15">
      <defs>
       <path d="
M0 0
L0 -4" id="m8d42aa9c00"/>
      </defs>
      <g>
       <use style="stroke:#000000;stroke-linecap:butt;stroke-width:0.5;" x="534.782166623" xlink:href="#m8d42aa9c00" y="102.100374445"/>
      </g>
     </g>
     <g id="text_6">
      <!-- 3 -->
      <g transform="translate(532.382947873 113.522249445)scale(0.1 -0.1)">
       <use xlink:href="#BitstreamVeraSans-Roman-33"/>
      </g>
     </g>
    </g>
    <g id="xtick_8">
     <g id="line2d_16">
      <defs>
       <path d="
M0 0
L0 -2" id="m15274a46c0"/>
      </defs>
      <g>
       <use style="stroke:#000000;stroke-linecap:butt;stroke-width:0.5;" x="12.8616889354" xlink:href="#m15274a46c0" y="102.100374445"/>
      </g>
     </g>
    </g>
    <g id="xtick_9">
     <g id="line2d_17">
      <defs>
       <path d="
M0 0
L0 -2" id="m15274a46c0"/>
      </defs>
      <g>
       <use style="stroke:#000000;stroke-linecap:butt;stroke-width:0.5;" x="46.5339778185" xlink:href="#m15274a46c0" y="102.100374445"/>
      </g>
     </g>
    </g>
    <g id="xtick_10">
     <g id="line2d_18">
      <defs>
       <path d="
M0 0
L0 -2" id="m15274a46c0"/>
      </defs>
      <g>
       <use style="stroke:#000000;stroke-linecap:butt;stroke-width:0.5;" x="63.37012226" xlink:href="#m15274a46c0" y="102.100374445"/>
      </g>
     </g>
    </g>
    <g id="xtick_11">
     <g id="line2d_19">
      <defs>
       <path d="
M0 0
L0 -2" id="m15274a46c0"/>
      </defs>
      <g>
       <use style="stroke:#000000;stroke-linecap:butt;stroke-width:0.5;" x="80.2062667016" xlink:href="#m15274a46c0" y="102.100374445"/>
      </g>
     </g>
    </g>
    <g id="xtick_12">
     <g id="line2d_20">
      <defs>
       <path d="
M0 0
L0 -2" id="m15274a46c0"/>
      </defs>
      <g>
       <use style="stroke:#000000;stroke-linecap:butt;stroke-width:0.5;" x="97.0424111431" xlink:href="#m15274a46c0" y="102.100374445"/>
      </g>
     </g>
    </g>
    <g id="xtick_13">
     <g id="line2d_21">
      <defs>
       <path d="
M0 0
L0 -2" id="m15274a46c0"/>
      </defs>
      <g>
       <use style="stroke:#000000;stroke-linecap:butt;stroke-width:0.5;" x="130.714700026" xlink:href="#m15274a46c0" y="102.100374445"/>
      </g>
     </g>
    </g>
    <g id="xtick_14">
     <g id="line2d_22">
      <defs>
       <path d="
M0 0
L0 -2" id="m15274a46c0"/>
      </defs>
      <g>
       <use style="stroke:#000000;stroke-linecap:butt;stroke-width:0.5;" x="147.550844468" xlink:href="#m15274a46c0" y="102.100374445"/>
      </g>
     </g>
    </g>
    <g id="xtick_15">
     <g id="line2d_23">
      <defs>
       <path d="
M0 0
L0 -2" id="m15274a46c0"/>
      </defs>
      <g>
       <use style="stroke:#000000;stroke-linecap:butt;stroke-width:0.5;" x="164.386988909" xlink:href="#m15274a46c0" y="102.100374445"/>
      </g>
     </g>
    </g>
    <g id="xtick_16">
     <g id="line2d_24">
      <defs>
       <path d="
M0 0
L0 -2" id="m15274a46c0"/>
      </defs>
      <g>
       <use style="stroke:#000000;stroke-linecap:butt;stroke-width:0.5;" x="181.223133351" xlink:href="#m15274a46c0" y="102.100374445"/>
      </g>
     </g>
    </g>
    <g id="xtick_17">
     <g id="line2d_25">
      <defs>
       <path d="
M0 0
L0 -2" id="m15274a46c0"/>
      </defs>
      <g>
       <use style="stroke:#000000;stroke-linecap:butt;stroke-width:0.5;" x="198.059277792" xlink:href="#m15274a46c0" y="102.100374445"/>
      </g>
     </g>
    </g>
    <g id="xtick_18">
     <g id="line2d_26">
      <defs>
       <path d="
M0 0
L0 -2" id="m15274a46c0"/>
      </defs>
      <g>
       <use style="stroke:#000000;stroke-linecap:butt;stroke-width:0.5;" x="214.895422234" xlink:href="#m15274a46c0" y="102.100374445"/>
      </g>
     </g>
    </g>
    <g id="xtick_19">
     <g id="line2d_27">
      <defs>
       <path d="
M0 0
L0 -2" id="m15274a46c0"/>
      </defs>
      <g>
       <use style="stroke:#000000;stroke-linecap:butt;stroke-width:0.5;" x="231.731566675" xlink:href="#m15274a46c0" y="102.100374445"/>
      </g>
     </g>
    </g>
    <g id="xtick_20">
     <g id="line2d_28">
      <defs>
       <path d="
M0 0
L0 -2" id="m15274a46c0"/>
      </defs>
      <g>
       <use style="stroke:#000000;stroke-linecap:butt;stroke-width:0.5;" x="248.567711117" xlink:href="#m15274a46c0" y="102.100374445"/>
      </g>
     </g>
    </g>
    <g id="xtick_21">
     <g id="line2d_29">
      <defs>
       <path d="
M0 0
L0 -2" id="m15274a46c0"/>
      </defs>
      <g>
       <use style="stroke:#000000;stroke-linecap:butt;stroke-width:0.5;" x="265.403855558" xlink:href="#m15274a46c0" y="102.100374445"/>
      </g>
     </g>
    </g>
    <g id="xtick_22">
     <g id="line2d_30">
      <defs>
       <path d="
M0 0
L0 -2" id="m15274a46c0"/>
      </defs>
      <g>
       <use style="stroke:#000000;stroke-linecap:butt;stroke-width:0.5;" x="282.24" xlink:href="#m15274a46c0" y="102.100374445"/>
      </g>
     </g>
    </g>
    <g id="xtick_23">
     <g id="line2d_31">
      <defs>
       <path d="
M0 0
L0 -2" id="m15274a46c0"/>
      </defs>
      <g>
       <use style="stroke:#000000;stroke-linecap:butt;stroke-width:0.5;" x="299.076144442" xlink:href="#m15274a46c0" y="102.100374445"/>
      </g>
     </g>
    </g>
    <g id="xtick_24">
     <g id="line2d_32">
      <defs>
       <path d="
M0 0
L0 -2" id="m15274a46c0"/>
      </defs>
      <g>
       <use style="stroke:#000000;stroke-linecap:butt;stroke-width:0.5;" x="315.912288883" xlink:href="#m15274a46c0" y="102.100374445"/>
      </g>
     </g>
    </g>
    <g id="xtick_25">
     <g id="line2d_33">
      <defs>
       <path d="
M0 0
L0 -2" id="m15274a46c0"/>
      </defs>
      <g>
       <use style="stroke:#000000;stroke-linecap:butt;stroke-width:0.5;" x="332.748433325" xlink:href="#m15274a46c0" y="102.100374445"/>
      </g>
     </g>
    </g>
    <g id="xtick_26">
     <g id="line2d_34">
      <defs>
       <path d="
M0 0
L0 -2" id="m15274a46c0"/>
      </defs>
      <g>
       <use style="stroke:#000000;stroke-linecap:butt;stroke-width:0.5;" x="349.584577766" xlink:href="#m15274a46c0" y="102.100374445"/>
      </g>
     </g>
    </g>
    <g id="xtick_27">
     <g id="line2d_35">
      <defs>
       <path d="
M0 0
L0 -2" id="m15274a46c0"/>
      </defs>
      <g>
       <use style="stroke:#000000;stroke-linecap:butt;stroke-width:0.5;" x="366.420722208" xlink:href="#m15274a46c0" y="102.100374445"/>
      </g>
     </g>
    </g>
    <g id="xtick_28">
     <g id="line2d_36">
      <defs>
       <path d="
M0 0
L0 -2" id="m15274a46c0"/>
      </defs>
      <g>
       <use style="stroke:#000000;stroke-linecap:butt;stroke-width:0.5;" x="383.256866649" xlink:href="#m15274a46c0" y="102.100374445"/>
      </g>
     </g>
    </g>
    <g id="xtick_29">
     <g id="line2d_37">
      <defs>
       <path d="
M0 0
L0 -2" id="m15274a46c0"/>
      </defs>
      <g>
       <use style="stroke:#000000;stroke-linecap:butt;stroke-width:0.5;" x="400.093011091" xlink:href="#m15274a46c0" y="102.100374445"/>
      </g>
     </g>
    </g>
    <g id="xtick_30">
     <g id="line2d_38">
      <defs>
       <path d="
M0 0
L0 -2" id="m15274a46c0"/>
      </defs>
      <g>
       <use style="stroke:#000000;stroke-linecap:butt;stroke-width:0.5;" x="416.929155532" xlink:href="#m15274a46c0" y="102.100374445"/>
      </g>
     </g>
    </g>
    <g id="xtick_31">
     <g id="line2d_39">
      <defs>
       <path d="
M0 0
L0 -2" id="m15274a46c0"/>
      </defs>
      <g>
       <use style="stroke:#000000;stroke-linecap:butt;stroke-width:0.5;" x="433.765299974" xlink:href="#m15274a46c0" y="102.100374445"/>
      </g>
     </g>
    </g>
    <g id="xtick_32">
     <g id="line2d_40">
      <defs>
       <path d="
M0 0
L0 -2" id="m15274a46c0"/>
      </defs>
      <g>
       <use style="stroke:#000000;stroke-linecap:butt;stroke-width:0.5;" x="450.601444415" xlink:href="#m15274a46c0" y="102.100374445"/>
      </g>
     </g>
    </g>
    <g id="xtick_33">
     <g id="line2d_41">
      <defs>
       <path d="
M0 0
L0 -2" id="m15274a46c0"/>
      </defs>
      <g>
       <use style="stroke:#000000;stroke-linecap:butt;stroke-width:0.5;" x="467.437588857" xlink:href="#m15274a46c0" y="102.100374445"/>
      </g>
     </g>
    </g>
    <g id="xtick_34">
     <g id="line2d_42">
      <defs>
       <path d="
M0 0
L0 -2" id="m15274a46c0"/>
      </defs>
      <g>
       <use style="stroke:#000000;stroke-linecap:butt;stroke-width:0.5;" x="484.273733298" xlink:href="#m15274a46c0" y="102.100374445"/>
      </g>
     </g>
    </g>
    <g id="xtick_35">
     <g id="line2d_43">
      <defs>
       <path d="
M0 0
L0 -2" id="m15274a46c0"/>
      </defs>
      <g>
       <use style="stroke:#000000;stroke-linecap:butt;stroke-width:0.5;" x="501.10987774" xlink:href="#m15274a46c0" y="102.100374445"/>
      </g>
     </g>
    </g>
    <g id="xtick_36">
     <g id="line2d_44">
      <defs>
       <path d="
M0 0
L0 -2" id="m15274a46c0"/>
      </defs>
      <g>
       <use style="stroke:#000000;stroke-linecap:butt;stroke-width:0.5;" x="517.946022182" xlink:href="#m15274a46c0" y="102.100374445"/>
      </g>
     </g>
    </g>
    <g id="xtick_37">
     <g id="line2d_45">
      <defs>
       <path d="
M0 0
L0 -2" id="m15274a46c0"/>
      </defs>
      <g>
       <use style="stroke:#000000;stroke-linecap:butt;stroke-width:0.5;" x="534.782166623" xlink:href="#m15274a46c0" y="102.100374445"/>
      </g>
     </g>
    </g>
   </g>
   <g id="matplotlib.axis_2">
    <g id="ytick_1">
     <g id="line2d_46">
      <path d="
M7.2 193.219
L557.28 193.219" style="fill:none;stroke:#000000;stroke-dasharray:1.000000,3.000000;stroke-dashoffset:0.0;stroke-linecap:butt;stroke-width:0.5;"/>
     </g>
     <g id="line2d_47">
      <defs>
       <path d="
M0 0
L4 0" id="mddf9476eba"/>
      </defs>
      <g>
       <use style="stroke:#000000;stroke-linecap:butt;stroke-width:0.5;" x="282.24" xlink:href="#mddf9476eba" y="193.218717641"/>
      </g>
     </g>
     <g id="text_7">
      <!-- -3 -->
      <g transform="translate(269.5603125 196.858561391)scale(0.1 -0.1)">
       <use xlink:href="#BitstreamVeraSans-Roman-2d"/>
       <use x="36.083984375" xlink:href="#BitstreamVeraSans-Roman-33"/>
      </g>
     </g>
    </g>
    <g id="ytick_2">
     <g id="line2d_48">
      <path d="
M7.2 162.846
L557.28 162.846" style="fill:none;stroke:#000000;stroke-dasharray:1.000000,3.000000;stroke-dashoffset:0.0;stroke-linecap:butt;stroke-width:0.5;"/>
     </g>
     <g id="line2d_49">
      <defs>
       <path d="
M0 0
L4 0" id="mddf9476eba"/>
      </defs>
      <g>
       <use style="stroke:#000000;stroke-linecap:butt;stroke-width:0.5;" x="282.24" xlink:href="#mddf9476eba" y="162.845936575"/>
      </g>
     </g>
     <g id="text_8">
      <!-- -2 -->
      <g transform="translate(269.7603125 166.556874075)scale(0.1 -0.1)">
       <use xlink:href="#BitstreamVeraSans-Roman-2d"/>
       <use x="36.083984375" xlink:href="#BitstreamVeraSans-Roman-32"/>
      </g>
     </g>
    </g>
    <g id="ytick_3">
     <g id="line2d_50">
      <path d="
M7.2 132.473
L557.28 132.473" style="fill:none;stroke:#000000;stroke-dasharray:1.000000,3.000000;stroke-dashoffset:0.0;stroke-linecap:butt;stroke-width:0.5;"/>
     </g>
     <g id="line2d_51">
      <defs>
       <path d="
M0 0
L4 0" id="mddf9476eba"/>
      </defs>
      <g>
       <use style="stroke:#000000;stroke-linecap:butt;stroke-width:0.5;" x="282.24" xlink:href="#mddf9476eba" y="132.47315551"/>
      </g>
     </g>
     <g id="text_9">
      <!-- -1 -->
      <g transform="translate(269.6821875 136.11846801)scale(0.1 -0.1)">
       <use xlink:href="#BitstreamVeraSans-Roman-2d"/>
       <use x="36.083984375" xlink:href="#BitstreamVeraSans-Roman-31"/>
      </g>
     </g>
    </g>
    <g id="ytick_4">
     <g id="line2d_52">
      <path d="
M7.2 102.1
L557.28 102.1" style="fill:none;stroke:#000000;stroke-dasharray:1.000000,3.000000;stroke-dashoffset:0.0;stroke-linecap:butt;stroke-width:0.5;"/>
     </g>
     <g id="line2d_53">
      <defs>
       <path d="
M0 0
L4 0" id="mddf9476eba"/>
      </defs>
      <g>
       <use style="stroke:#000000;stroke-linecap:butt;stroke-width:0.5;" x="282.24" xlink:href="#mddf9476eba" y="102.100374445"/>
      </g>
     </g>
    </g>
    <g id="ytick_5">
     <g id="line2d_54">
      <path d="
M7.2 71.7276
L557.28 71.7276" style="fill:none;stroke:#000000;stroke-dasharray:1.000000,3.000000;stroke-dashoffset:0.0;stroke-linecap:butt;stroke-width:0.5;"/>
     </g>
     <g id="line2d_55">
      <defs>
       <path d="
M0 0
L4 0" id="mddf9476eba"/>
      </defs>
      <g>
       <use style="stroke:#000000;stroke-linecap:butt;stroke-width:0.5;" x="282.24" xlink:href="#mddf9476eba" y="71.7275933802"/>
      </g>
     </g>
     <g id="text_10">
      <!-- 1 -->
      <g transform="translate(273.899375 75.3729058802)scale(0.1 -0.1)">
       <use xlink:href="#BitstreamVeraSans-Roman-31"/>
      </g>
     </g>
    </g>
    <g id="ytick_6">
     <g id="line2d_56">
      <path d="
M7.2 41.3548
L557.28 41.3548" style="fill:none;stroke:#000000;stroke-dasharray:1.000000,3.000000;stroke-dashoffset:0.0;stroke-linecap:butt;stroke-width:0.5;"/>
     </g>
     <g id="line2d_57">
      <defs>
       <path d="
M0 0
L4 0" id="mddf9476eba"/>
      </defs>
      <g>
       <use style="stroke:#000000;stroke-linecap:butt;stroke-width:0.5;" x="282.24" xlink:href="#mddf9476eba" y="41.3548123151"/>
      </g>
     </g>
     <g id="text_11">
      <!-- 2 -->
      <g transform="translate(273.611875 45.0657498151)scale(0.1 -0.1)">
       <use xlink:href="#BitstreamVeraSans-Roman-32"/>
      </g>
     </g>
    </g>
    <g id="ytick_7">
     <g id="line2d_58">
      <path d="
M7.2 10.982
L557.28 10.982" style="fill:none;stroke:#000000;stroke-dasharray:1.000000,3.000000;stroke-dashoffset:0.0;stroke-linecap:butt;stroke-width:0.5;"/>
     </g>
     <g id="line2d_59">
      <defs>
       <path d="
M0 0
L4 0" id="mddf9476eba"/>
      </defs>
      <g>
       <use style="stroke:#000000;stroke-linecap:butt;stroke-width:0.5;" x="282.24" xlink:href="#mddf9476eba" y="10.98203125"/>
      </g>
     </g>
     <g id="text_12">
      <!-- 3 -->
      <g transform="translate(273.4415625 14.621875)scale(0.1 -0.1)">
       <use xlink:href="#BitstreamVeraSans-Roman-33"/>
      </g>
     </g>
    </g>
    <g id="ytick_8">
     <g id="line2d_60">
      <defs>
       <path d="
M0 0
L2 0" id="mec8d718f1e"/>
      </defs>
      <g>
       <use style="stroke:#000000;stroke-linecap:butt;stroke-width:0.5;" x="282.24" xlink:href="#mec8d718f1e" y="187.144161428"/>
      </g>
     </g>
    </g>
    <g id="ytick_9">
     <g id="line2d_61">
      <defs>
       <path d="
M0 0
L2 0" id="mec8d718f1e"/>
      </defs>
      <g>
       <use style="stroke:#000000;stroke-linecap:butt;stroke-width:0.5;" x="282.24" xlink:href="#mec8d718f1e" y="181.069605214"/>
      </g>
     </g>
    </g>
    <g id="ytick_10">
     <g id="line2d_62">
      <defs>
       <path d="
M0 0
L2 0" id="mec8d718f1e"/>
      </defs>
      <g>
       <use style="stroke:#000000;stroke-linecap:butt;stroke-width:0.5;" x="282.24" xlink:href="#mec8d718f1e" y="174.995049001"/>
      </g>
     </g>
    </g>
    <g id="ytick_11">
     <g id="line2d_63">
      <defs>
       <path d="
M0 0
L2 0" id="mec8d718f1e"/>
      </defs>
      <g>
       <use style="stroke:#000000;stroke-linecap:butt;stroke-width:0.5;" x="282.24" xlink:href="#mec8d718f1e" y="168.920492788"/>
      </g>
     </g>
    </g>
    <g id="ytick_12">
     <g id="line2d_64">
      <defs>
       <path d="
M0 0
L2 0" id="mec8d718f1e"/>
      </defs>
      <g>
       <use style="stroke:#000000;stroke-linecap:butt;stroke-width:0.5;" x="282.24" xlink:href="#mec8d718f1e" y="156.771380362"/>
      </g>
     </g>
    </g>
    <g id="ytick_13">
     <g id="line2d_65">
      <defs>
       <path d="
M0 0
L2 0" id="mec8d718f1e"/>
      </defs>
      <g>
       <use style="stroke:#000000;stroke-linecap:butt;stroke-width:0.5;" x="282.24" xlink:href="#mec8d718f1e" y="150.696824149"/>
      </g>
     </g>
    </g>
    <g id="ytick_14">
     <g id="line2d_66">
      <defs>
       <path d="
M0 0
L2 0" id="mec8d718f1e"/>
      </defs>
      <g>
       <use style="stroke:#000000;stroke-linecap:butt;stroke-width:0.5;" x="282.24" xlink:href="#mec8d718f1e" y="144.622267936"/>
      </g>
     </g>
    </g>
    <g id="ytick_15">
     <g id="line2d_67">
      <defs>
       <path d="
M0 0
L2 0" id="mec8d718f1e"/>
      </defs>
      <g>
       <use style="stroke:#000000;stroke-linecap:butt;stroke-width:0.5;" x="282.24" xlink:href="#mec8d718f1e" y="138.547711723"/>
      </g>
     </g>
    </g>
    <g id="ytick_16">
     <g id="line2d_68">
      <defs>
       <path d="
M0 0
L2 0" id="mec8d718f1e"/>
      </defs>
      <g>
       <use style="stroke:#000000;stroke-linecap:butt;stroke-width:0.5;" x="282.24" xlink:href="#mec8d718f1e" y="132.47315551"/>
      </g>
     </g>
    </g>
    <g id="ytick_17">
     <g id="line2d_69">
      <defs>
       <path d="
M0 0
L2 0" id="mec8d718f1e"/>
      </defs>
      <g>
       <use style="stroke:#000000;stroke-linecap:butt;stroke-width:0.5;" x="282.24" xlink:href="#mec8d718f1e" y="126.398599297"/>
      </g>
     </g>
    </g>
    <g id="ytick_18">
     <g id="line2d_70">
      <defs>
       <path d="
M0 0
L2 0" id="mec8d718f1e"/>
      </defs>
      <g>
       <use style="stroke:#000000;stroke-linecap:butt;stroke-width:0.5;" x="282.24" xlink:href="#mec8d718f1e" y="120.324043084"/>
      </g>
     </g>
    </g>
    <g id="ytick_19">
     <g id="line2d_71">
      <defs>
       <path d="
M0 0
L2 0" id="mec8d718f1e"/>
      </defs>
      <g>
       <use style="stroke:#000000;stroke-linecap:butt;stroke-width:0.5;" x="282.24" xlink:href="#mec8d718f1e" y="114.249486871"/>
      </g>
     </g>
    </g>
    <g id="ytick_20">
     <g id="line2d_72">
      <defs>
       <path d="
M0 0
L2 0" id="mec8d718f1e"/>
      </defs>
      <g>
       <use style="stroke:#000000;stroke-linecap:butt;stroke-width:0.5;" x="282.24" xlink:href="#mec8d718f1e" y="108.174930658"/>
      </g>
     </g>
    </g>
    <g id="ytick_21">
     <g id="line2d_73">
      <defs>
       <path d="
M0 0
L2 0" id="mec8d718f1e"/>
      </defs>
      <g>
       <use style="stroke:#000000;stroke-linecap:butt;stroke-width:0.5;" x="282.24" xlink:href="#mec8d718f1e" y="102.100374445"/>
      </g>
     </g>
    </g>
    <g id="ytick_22">
     <g id="line2d_74">
      <defs>
       <path d="
M0 0
L2 0" id="mec8d718f1e"/>
      </defs>
      <g>
       <use style="stroke:#000000;stroke-linecap:butt;stroke-width:0.5;" x="282.24" xlink:href="#mec8d718f1e" y="96.0258182322"/>
      </g>
     </g>
    </g>
    <g id="ytick_23">
     <g id="line2d_75">
      <defs>
       <path d="
M0 0
L2 0" id="mec8d718f1e"/>
      </defs>
      <g>
       <use style="stroke:#000000;stroke-linecap:butt;stroke-width:0.5;" x="282.24" xlink:href="#mec8d718f1e" y="89.9512620192"/>
      </g>
     </g>
    </g>
    <g id="ytick_24">
     <g id="line2d_76">
      <defs>
       <path d="
M0 0
L2 0" id="mec8d718f1e"/>
      </defs>
      <g>
       <use style="stroke:#000000;stroke-linecap:butt;stroke-width:0.5;" x="282.24" xlink:href="#mec8d718f1e" y="83.8767058062"/>
      </g>
     </g>
    </g>
    <g id="ytick_25">
     <g id="line2d_77">
      <defs>
       <path d="
M0 0
L2 0" id="mec8d718f1e"/>
      </defs>
      <g>
       <use style="stroke:#000000;stroke-linecap:butt;stroke-width:0.5;" x="282.24" xlink:href="#mec8d718f1e" y="77.8021495932"/>
      </g>
     </g>
    </g>
    <g id="ytick_26">
     <g id="line2d_78">
      <defs>
       <path d="
M0 0
L2 0" id="mec8d718f1e"/>
      </defs>
      <g>
       <use style="stroke:#000000;stroke-linecap:butt;stroke-width:0.5;" x="282.24" xlink:href="#mec8d718f1e" y="71.7275933802"/>
      </g>
     </g>
    </g>
    <g id="ytick_27">
     <g id="line2d_79">
      <defs>
       <path d="
M0 0
L2 0" id="mec8d718f1e"/>
      </defs>
      <g>
       <use style="stroke:#000000;stroke-linecap:butt;stroke-width:0.5;" x="282.24" xlink:href="#mec8d718f1e" y="65.6530371672"/>
      </g>
     </g>
    </g>
    <g id="ytick_28">
     <g id="line2d_80">
      <defs>
       <path d="
M0 0
L2 0" id="mec8d718f1e"/>
      </defs>
      <g>
       <use style="stroke:#000000;stroke-linecap:butt;stroke-width:0.5;" x="282.24" xlink:href="#mec8d718f1e" y="59.5784809541"/>
      </g>
     </g>
    </g>
    <g id="ytick_29">
     <g id="line2d_81">
      <defs>
       <path d="
M0 0
L2 0" id="mec8d718f1e"/>
      </defs>
      <g>
       <use style="stroke:#000000;stroke-linecap:butt;stroke-width:0.5;" x="282.24" xlink:href="#mec8d718f1e" y="53.5039247411"/>
      </g>
     </g>
    </g>
    <g id="ytick_30">
     <g id="line2d_82">
      <defs>
       <path d="
M0 0
L2 0" id="mec8d718f1e"/>
      </defs>
      <g>
       <use style="stroke:#000000;stroke-linecap:butt;stroke-width:0.5;" x="282.24" xlink:href="#mec8d718f1e" y="47.4293685281"/>
      </g>
     </g>
    </g>
    <g id="ytick_31">
     <g id="line2d_83">
      <defs>
       <path d="
M0 0
L2 0" id="mec8d718f1e"/>
      </defs>
      <g>
       <use style="stroke:#000000;stroke-linecap:butt;stroke-width:0.5;" x="282.24" xlink:href="#mec8d718f1e" y="41.3548123151"/>
      </g>
     </g>
    </g>
    <g id="ytick_32">
     <g id="line2d_84">
      <defs>
       <path d="
M0 0
L2 0" id="mec8d718f1e"/>
      </defs>
      <g>
       <use style="stroke:#000000;stroke-linecap:butt;stroke-width:0.5;" x="282.24" xlink:href="#mec8d718f1e" y="35.2802561021"/>
      </g>
     </g>
    </g>
    <g id="ytick_33">
     <g id="line2d_85">
      <defs>
       <path d="
M0 0
L2 0" id="mec8d718f1e"/>
      </defs>
      <g>
       <use style="stroke:#000000;stroke-linecap:butt;stroke-width:0.5;" x="282.24" xlink:href="#mec8d718f1e" y="29.2056998891"/>
      </g>
     </g>
    </g>
    <g id="ytick_34">
     <g id="line2d_86">
      <defs>
       <path d="
M0 0
L2 0" id="mec8d718f1e"/>
      </defs>
      <g>
       <use style="stroke:#000000;stroke-linecap:butt;stroke-width:0.5;" x="282.24" xlink:href="#mec8d718f1e" y="23.131143676"/>
      </g>
     </g>
    </g>
    <g id="ytick_35">
     <g id="line2d_87">
      <defs>
       <path d="
M0 0
L2 0" id="mec8d718f1e"/>
      </defs>
      <g>
       <use style="stroke:#000000;stroke-linecap:butt;stroke-width:0.5;" x="282.24" xlink:href="#mec8d718f1e" y="17.056587463"/>
      </g>
     </g>
    </g>
   </g>
   <g id="patch_4">
    <path d="
M7.2 102.1
L557.28 102.1" style="fill:none;stroke:#000000;stroke-width:0.8;"/>
   </g>
   <g id="patch_5">
    <path d="
M282.24 196.863
L282.24 7.3373" style="fill:none;stroke:#000000;stroke-width:0.8;"/>
   </g>
  </g>
 </g>
 <defs>
  <clipPath id="p192cf5743b">
   <rect height="189.526153846" width="550.08" x="7.2" y="7.33729752219"/>
  </clipPath>
 </defs>
</svg>
