<?xml version="1.0" encoding="utf-8" standalone="no"?>
<!DOCTYPE svg PUBLIC "-//W3C//DTD SVG 1.1//EN"
  "http://www.w3.org/Graphics/SVG/1.1/DTD/svg11.dtd">
<!-- Created with matplotlib (http://matplotlib.sourceforge.net/) -->
<svg height="204pt" version="1.1" viewBox="0 0 564 204" width="564pt" xmlns="http://www.w3.org/2000/svg" xmlns:xlink="http://www.w3.org/1999/xlink">
 <defs>
  <style type="text/css">
*{stroke-linecap:square;stroke-linejoin:round;}
  </style>
 </defs>
 <g id="figure_1">
  <g id="patch_1">
   <path d="
M0 204.201
L564.48 204.201
L564.48 0
L0 0
z
" style="fill:#ffffff;"/>
  </g>
  <g id="axes_1">
   <g id="patch_2">
    <path d="
M7.2 196.863
L557.28 196.863
L557.28 7.3373
L7.2 7.3373
z
" style="fill:#ffffff;"/>
   </g>
   <g id="patch_3">
    <path clip-path="url(#p192cf5743b)" d="
M17.7785 102.1
L17.7785 102.1
L20.2142 102.126
L22.1735 102.183
L24.1327 102.274
L26.1033 102.398
L27.8863 102.539
L29.815 102.723
L31.7437 102.94
L34.2054 103.264
L36.4997 103.615
L38.5786 103.974
L41.0721 104.457
L43.2268 104.92
L44.6582 105.253
L46.0897 105.604
L47.5158 105.975
L48.9419 106.365
L51.1864 107.02
L53.4308 107.727
L54.4947 108.081
L56.411 108.748
L58.3274 109.456
L59.8617 110.053
L61.3961 110.676
L63.0039 111.36
L64.3688 111.965
L65.7337 112.593
L67.3446 113.365
L68.9555 114.172
L70.0217 114.726
L72.0579 115.829
L74.094 116.993
L75.7526 117.989
L77.4112 119.03
L78.1465 119.507
L79.26 120.247
L80.3736 121.009
L81.5994 121.875
L82.8252 122.771
L84.051 123.698
L85.2768 124.656
L86.4019 125.566
L87.5269 126.504
L88.4882 127.331
L89.6621 128.372
L90.836 129.449
L92.0099 130.565
L93.1838 131.722
L94.6753 133.253
L96.1667 134.857
L96.5788 135.315
L97.7292 136.624
L98.8796 137.985
L99.7707 139.076
L100.662 140.201
L101.553 141.362
L102.444 142.561
L103.446 143.958
L104.449 145.408
L105.452 146.916
L106.454 148.484
L107.357 149.951
L108.261 151.474
L109.03 152.818
L109.799 154.207
L110.568 155.644
L111.337 157.131
L112.09 158.639
L112.842 160.201
L113.586 161.802
L114.33 163.462
L115.074 165.186
L115.818 166.977
L116.277 168.116
L116.735 169.284
L117.194 170.482
L117.652 171.71
L118.111 172.97
L118.569 174.264
L119.028 175.593
L119.486 176.958
L120.032 178.634
L120.578 180.366
L121.032 181.853
L121.486 183.383
L121.94 184.959
L122.394 186.583
L122.848 188.258
L123.302 189.985
L123.756 191.769
L124.21 193.61
L124.656 195.481
L125.103 197.414
L125.549 199.413
L125.995 201.482
L126.237 202.632
L126.478 203.804
L126.719 204.999
L126.961 206.217
L127.202 207.46
L127.443 208.728
L127.685 210.022
L127.926 211.343
L128.167 212.691
L128.409 214.069
L128.65 215.476
L128.891 216.913
L129.133 218.382
L129.374 219.884
L129.615 221.42
L129.857 222.992
L130.139 224.877
L130.422 226.815
L130.704 228.808
L130.987 230.857
L131.269 232.965
L131.552 235.136
L131.835 237.372
L132.117 239.676
L132.318 241.356
L132.519 243.074
L132.719 244.83
L132.92 246.627
L133.121 248.465
L133.322 250.345
L133.523 252.27
L133.724 254.241
L133.924 256.26
L134.125 258.328
L134.326 260.448
L134.527 262.622
L134.728 264.851
L134.928 267.138
L135.129 269.485
L135.33 271.894
L135.527 274.319
L135.724 276.809
L135.92 279.367
L136.117 281.996
L136.314 284.699
L136.412 286.079
L136.511 287.479
L136.609 288.899
L136.708 290.339
L136.806 291.801
L136.904 293.284
L137.029 295.194
L137.153 297.139
L137.278 299.122
L137.403 301.144
L137.527 303.205
L137.652 305.307
L137.776 307.451
L137.901 309.639
L138.026 311.871
L138.15 314.15
L138.275 316.476
L138.399 318.851
L138.524 321.276
L138.649 323.755
L138.773 326.287
L138.898 328.875
L139.022 331.522
L139.147 334.228
L139.271 336.996
L139.396 339.828
L139.521 342.726
L139.645 345.694
L139.77 348.732
L139.894 351.845
L140.019 355.034
L140.144 358.303
L140.268 361.655
L140.393 365.093
L140.517 368.619
L140.642 372.239
L140.766 375.955
L140.891 379.772
L140.951 381.644
L141.011 383.541
L141.071 385.463
L141.131 387.41
L141.19 389.384
L141.25 391.384
L141.31 393.412
L141.37 395.468
L141.43 397.552
L141.49 399.665
L141.55 401.808
L141.61 403.982
L141.67 406.186
L141.73 408.422
L141.789 410.69
L141.849 412.991
L141.909 415.326
L141.969 417.695
L142.029 420.1
L142.089 422.541
L142.149 425.019
L142.209 427.534
L142.269 430.088
L142.329 432.682
L142.388 435.317
L142.448 437.992
L142.508 440.71
L142.568 443.472
L142.628 446.278
L142.688 449.13
L142.748 452.029
L142.808 454.975
L142.915 460.399
L143.023 465.99
L143.131 471.755
L143.239 477.702
L143.346 483.84
L143.454 490.18
L143.562 496.73
L143.67 503.501
L143.777 510.506
L143.885 517.755
L143.993 525.264
L144.101 533.045
L144.208 541.113
L144.316 549.486
L144.424 558.181
L144.531 567.216
L144.639 576.613
L144.747 586.393
L144.855 596.581
L144.962 607.202
L145.07 618.285
L145.178 629.861
L145.286 641.963
L145.393 654.629
L145.501 667.899
L145.609 681.817
L145.717 696.432
L145.824 711.798
L145.932 727.974
L146.04 745.027
L146.148 763.029
L146.255 782.063
L146.309 792.062
L146.364 802.358
L146.418 812.965
L146.472 823.897
L146.526 835.169
L146.581 846.796
L146.635 858.797
L146.689 871.189
L146.743 883.993
L146.798 897.228
L146.852 910.917
L146.906 925.084
L146.96 939.754
L147.014 954.956
L147.069 970.717
L147.123 987.07
L147.177 1004.05
L147.231 1021.69
L147.286 1040.03
L147.34 1059.12
L147.394 1079
L147.448 1099.72
L147.503 1121.33
L147.557 1143.9
L147.611 1167.49
L147.665 1192.17
L147.719 1218.02
L147.774 1245.12
L147.828 1273.57
L147.882 1303.47
L147.936 1334.94
L147.991 1368.09
L148.112 1448.82
L148.232 1540.54
L148.353 1645.65
L148.474 1767.31
L148.595 1909.78
L148.716 2078.87
L148.837 2282.84
L148.958 2533.72
L149.079 2849.79
L149.2 3260.27
L149.321 3814.89
L149.442 4605.74
L149.562 5824.63
L149.683 7948.01
L149.804 12576.6
L149.925 30522.5
L150.046 -69256.8
L150.167 -16103.2
L150.288 -9072.26
L150.409 -6296.19
L150.53 -4809.84
L150.651 -3883.84
L150.772 -3251.58
L150.892 -2792.41
L151.013 -2443.81
L151.134 -2170.13
L151.255 -1949.56
L151.376 -1768.01
L151.497 -1615.95
L151.618 -1486.76
L151.739 -1375.61
L151.86 -1278.99
L151.868 -1272.9
L151.876 -1266.87
L151.884 -1260.89
L151.893 -1254.96
L151.901 -1249.08
L151.909 -1243.25
L151.917 -1237.47
L151.925 -1231.75
L151.933 -1226.07
L151.942 -1220.43
L151.95 -1214.85
L151.958 -1209.31
L151.966 -1203.82
L151.974 -1198.38
L151.983 -1192.98
L151.991 -1187.62
L151.999 -1182.31
L152.007 -1177.04
L152.015 -1171.82
L152.024 -1166.63
L152.032 -1161.49
L152.04 -1156.39
L152.048 -1151.34
L152.056 -1146.32
L152.064 -1141.34
L152.073 -1136.4
L152.081 -1131.5
L152.089 -1126.64
L152.097 -1121.82
L152.105 -1117.03
L152.114 -1112.29
L152.122 -1107.57
L152.22 -1053.73
L152.318 -1004.47
L152.417 -959.232
L152.515 -917.539
L152.613 -878.991
L152.712 -843.246
L152.81 -810.008
L152.908 -779.022
L153.006 -750.066
L153.105 -722.948
L153.203 -697.496
L153.301 -673.563
L153.4 -651.017
L153.498 -629.739
L153.596 -609.625
L153.694 -590.583
L153.793 -572.529
L153.891 -555.388
L153.989 -539.092
L154.088 -523.58
L154.186 -508.796
L154.284 -494.692
L154.383 -481.22
L154.481 -468.338
L154.579 -456.01
L154.677 -444.2
L154.776 -432.876
L154.874 -422.008
L154.972 -411.569
L155.071 -401.535
L155.169 -391.882
L155.267 -382.588
L155.393 -371.17
L155.519 -360.273
L155.645 -349.861
L155.771 -339.903
L155.897 -330.369
L156.023 -321.234
L156.149 -312.471
L156.275 -304.06
L156.401 -295.979
L156.527 -288.208
L156.653 -280.731
L156.779 -273.531
L156.905 -266.593
L157.031 -259.902
L157.157 -253.446
L157.283 -247.213
L157.409 -241.19
L157.535 -235.368
L157.661 -229.736
L157.787 -224.285
L157.913 -219.007
L158.039 -213.894
L158.165 -208.937
L158.291 -204.13
L158.417 -199.466
L158.543 -194.939
L158.669 -190.542
L158.795 -186.27
L158.921 -182.118
L159.047 -178.081
L159.173 -174.154
L159.299 -170.332
L159.37 -168.24
L159.44 -166.178
L159.511 -164.146
L159.581 -162.145
L159.652 -160.172
L159.722 -158.227
L159.793 -156.31
L159.863 -154.421
L159.933 -152.558
L160.004 -150.72
L160.074 -148.909
L160.145 -147.122
L160.215 -145.359
L160.286 -143.621
L160.356 -141.906
L160.427 -140.213
L160.497 -138.543
L160.568 -136.896
L160.638 -135.269
L160.708 -133.664
L160.779 -132.08
L160.849 -130.516
L160.92 -128.972
L160.99 -127.447
L161.131 -124.455
L161.272 -121.537
L161.413 -118.69
L161.554 -115.912
L161.632 -114.403
L161.71 -112.915
L161.866 -109.995
L162.022 -107.15
L162.178 -104.377
L162.333 -101.673
L162.489 -99.0355
L162.645 -96.4618
L162.801 -93.9497
L162.957 -91.497
L163.113 -89.1015
L163.269 -86.7614
L163.425 -84.4745
L163.581 -82.2392
L163.737 -80.0536
L163.892 -77.9161
L164.048 -75.825
L164.198 -73.8586
L164.348 -71.9323
L164.498 -70.0449
L164.647 -68.1953
L164.797 -66.3822
L164.947 -64.6047
L165.097 -62.8616
L165.246 -61.1519
L165.396 -59.4746
L165.546 -57.8289
L165.696 -56.2137
L165.845 -54.6283
L165.995 -53.0718
L166.145 -51.5434
L166.295 -50.0423
L166.445 -48.5678
L166.69 -46.2025
L166.936 -43.9038
L167.182 -41.669
L167.428 -39.4953
L167.674 -37.3802
L167.92 -35.3212
L168.166 -33.3162
L168.412 -31.3629
L168.658 -29.4592
L168.904 -27.6033
L169.15 -25.7934
L169.395 -24.0276
L169.641 -22.3043
L169.887 -20.622
L170.133 -18.9791
L170.379 -17.3742
L170.612 -15.8885
L170.845 -14.4345
L171.066 -13.0823
L171.287 -11.7569
L171.508 -10.4576
L171.729 -9.18344
L171.95 -7.93375
L172.171 -6.70779
L172.392 -5.50485
L172.613 -4.32427
L172.835 -3.1654
L173.056 -2.02761
L173.277 -0.910303
L173.498 0.187091
L173.94 2.32435
L174.382 4.38836
L174.678 5.72969
L174.974 7.04111
L175.269 8.32366
L175.565 9.57834
L175.861 10.8061
L176.156 12.0079
L176.452 13.1845
L176.748 14.3368
L177.046 15.475
L177.344 16.5901
L177.642 17.6828
L177.941 18.7539
L178.239 19.8039
L178.537 20.8335
L179.133 22.8342
L179.627 24.4333
L180.12 25.984
L180.614 27.4887
L181.107 28.9496
L181.601 30.3686
L182.094 31.7476
L182.588 33.0885
L183.081 34.393
L183.709 36.0018
L184.336 37.5572
L184.839 38.765
L185.341 39.9418
L185.843 41.0889
L186.345 42.2074
L186.847 43.2986
L187.349 44.3634
L187.851 45.4029
L188.353 46.4182
L189.067 47.8216
L189.781 49.1802
L190.495 50.4962
L191.209 51.7718
L191.911 52.9886
L192.567 54.0943
L193.224 55.1703
L193.88 56.218
L194.537 57.2386
L195.193 58.2332
L195.849 59.2027
L196.506 60.1484
L197.162 61.071
L197.865 62.0347
L198.568 62.974
L199.716 64.458
L200.864 65.8835
L201.822 67.0307
L202.78 68.1416
L203.738 69.2178
L204.696 70.2612
L205.695 71.3157
L206.75 72.3945
L207.806 73.4388
L208.861 74.45
L209.917 75.4298
L211.071 76.4672
L212.226 77.4703
L213.995 78.944
L215.764 80.3459
L217.18 81.4198
L218.641 82.4844
L219.845 83.3305
L221.049 84.1494
L222.253 84.9422
L223.457 85.7098
L224.597 86.4145
L225.738 87.098
L227.912 88.3451
L229.575 89.2511
L231.238 90.1175
L232.557 90.778
L233.876 91.4152
L234.516 91.7162
L235.89 92.3442
L237.263 92.9487
L239.776 93.9959
L242.288 94.9696
L242.467 95.0359
L244.501 95.7684
L246.535 96.4562
L248.224 96.994
L249.914 97.5024
L251.272 97.8905
L253.306 98.437
L255.34 98.9432
L255.776 99.0465
L257.253 99.3831
L258.729 99.6992
L261.131 100.17
L263.533 100.588
L264.824 100.791
L267.573 101.174
L269.318 101.382
L271.064 101.563
L271.895 101.641
L274.392 101.836
L276.104 101.939
L277.816 102.016
L279.633 102.071
L281.274 102.096
L282.915 102.098
L285.807 102.046
L287.731 101.971
L289.618 101.867
L291.504 101.732
L293.19 101.585
L295.604 101.332
L298.018 101.027
L299.175 100.863
L301.089 100.565
L303.976 100.052
L306.844 99.4671
L308.341 99.1312
L309.838 98.7739
L311.298 98.4049
L312.757 98.0151
L315.465 97.2357
L316.947 96.7774
L318.429 96.2963
L319.852 95.8127
L321.274 95.3073
L322.901 94.7019
L324.528 94.0667
L326.362 93.3133
L327.67 92.7517
L328.978 92.1691
L330.394 91.5145
L331.771 90.8527
L333.148 90.1656
L334.808 89.303
L336.467 88.4011
L338.305 87.3549
L339.823 86.4506
L341.342 85.509
L342.932 84.4809
L344.523 83.4079
L345.888 82.4492
L347.254 81.454
L348.444 80.556
L349.633 79.6279
L350.677 78.7882
L351.72 77.9233
L352.763 77.0322
L353.807 76.1138
L355.092 74.9433
L356.377 73.7271
L357.175 72.9476
L358.166 71.9525
L359.158 70.9261
L360.149 69.8671
L361.141 68.7738
L362.31 67.4384
L363.13 66.4699
L363.95 65.4741
L364.77 64.4498
L365.59 63.3956
L366.635 62.0077
L367.679 60.5661
L368.295 59.6898
L368.91 58.7928
L369.526 57.8744
L370.141 56.9337
L370.757 55.9699
L371.372 54.982
L371.988 53.9689
L372.604 52.9297
L372.69 52.7807
L373.276 51.7639
L373.861 50.7213
L374.446 49.6518
L375.031 48.5542
L375.616 47.4273
L376.201 46.2698
L376.786 45.0804
L377.371 43.8576
L377.997 42.5112
L378.622 41.1228
L379.041 40.1676
L379.461 39.1919
L379.88 38.1948
L380.299 37.1757
L380.719 36.1337
L381.138 35.068
L381.557 33.9777
L381.977 32.8619
L382.4 31.7084
L382.823 30.5269
L383.247 29.3161
L383.67 28.075
L384.093 26.8021
L384.517 25.4962
L384.94 24.156
L385.363 22.7798
L385.822 21.2462
L386.281 19.6664
L386.583 18.5991
L386.885 17.51
L387.188 16.3985
L387.49 15.2639
L387.792 14.1053
L388.094 12.922
L388.397 11.713
L388.699 10.4776
L389.001 9.21474
L389.304 7.92344
L389.606 6.6027
L389.908 5.25142
L390.211 3.86847
L390.513 2.45266
L390.815 1.00274
L391.118 -0.482621
L391.34 -1.59765
L391.562 -2.73314
L391.784 -3.88969
L392.006 -5.06792
L392.229 -6.26848
L392.451 -7.49205
L392.673 -8.73933
L392.895 -10.011
L393.118 -11.314
L393.341 -12.6433
L393.565 -13.9996
L393.788 -15.3838
L394.011 -16.7969
L394.234 -18.2399
L394.458 -19.7136
L394.681 -21.2192
L394.904 -22.7577
L395.127 -24.3302
L395.35 -25.9381
L395.574 -27.5824
L395.797 -29.2646
L396.02 -30.9859
L396.243 -32.7479
L396.466 -34.5519
L396.756 -36.9609
L396.901 -38.1942
L397.046 -39.4473
L397.191 -40.7208
L397.336 -42.0151
L397.481 -43.3308
L397.626 -44.6684
L397.835 -46.6343
L398.044 -48.6487
L398.253 -50.7135
L398.461 -52.8305
L398.67 -55.0019
L398.879 -57.2298
L399.088 -59.5166
L399.296 -61.8646
L399.505 -64.2765
L399.714 -66.7549
L399.923 -69.3027
L400.131 -71.923
L400.236 -73.2613
L400.34 -74.6189
L400.445 -75.9963
L400.549 -77.3938
L400.653 -78.8121
L400.758 -80.2514
L400.862 -81.7124
L400.966 -83.1955
L401.114 -85.3369
L401.262 -87.5254
L401.41 -89.7624
L401.558 -92.0497
L401.706 -94.3891
L401.854 -96.7824
L402.002 -99.2314
L402.15 -101.738
L402.298 -104.305
L402.446 -106.934
L402.594 -109.627
L402.742 -112.387
L402.89 -115.217
L403.038 -118.118
L403.186 -121.095
L403.26 -122.612
L403.334 -124.15
L403.415 -125.853
L403.496 -127.582
L403.577 -129.336
L403.658 -131.115
L403.739 -132.922
L403.819 -134.755
L403.9 -136.616
L403.981 -138.505
L404.062 -140.423
L404.143 -142.371
L404.224 -144.35
L404.305 -146.359
L404.386 -148.4
L404.467 -150.474
L404.547 -152.581
L404.628 -154.723
L404.724 -157.295
L404.819 -159.917
L404.915 -162.591
L405.01 -165.319
L405.106 -168.101
L405.201 -170.941
L405.296 -173.838
L405.392 -176.797
L405.487 -179.817
L405.583 -182.901
L405.678 -186.052
L405.774 -189.272
L405.869 -192.562
L405.964 -195.926
L406.06 -199.365
L406.155 -202.882
L406.251 -206.481
L406.346 -210.163
L406.442 -213.932
L406.537 -217.791
L406.633 -221.744
L406.728 -225.793
L406.823 -229.943
L406.919 -234.196
L407.014 -238.558
L407.11 -243.033
L407.205 -247.624
L407.301 -252.336
L407.396 -257.175
L407.491 -262.146
L407.587 -267.253
L407.682 -272.504
L407.782 -278.151
L407.882 -283.969
L407.982 -289.964
L408.081 -296.146
L408.181 -302.523
L408.281 -309.104
L408.381 -315.9
L408.48 -322.922
L408.58 -330.18
L408.68 -337.687
L408.78 -345.457
L408.879 -353.502
L408.979 -361.839
L409.079 -370.484
L409.179 -379.453
L409.279 -388.765
L409.378 -398.441
L409.478 -408.503
L409.578 -418.974
L409.678 -429.879
L409.777 -441.247
L409.877 -453.107
L409.977 -465.493
L410.077 -478.439
L410.176 -491.986
L410.276 -506.175
L410.376 -521.054
L410.476 -536.675
L410.575 -553.095
L410.675 -570.376
L410.775 -588.588
L410.875 -607.809
L410.993 -631.979
L411.111 -657.845
L411.229 -685.592
L411.347 -715.434
L411.465 -747.617
L411.583 -782.429
L411.701 -820.206
L411.819 -861.344
L411.937 -906.313
L412.055 -955.673
L412.173 -1010.1
L412.291 -1070.43
L412.409 -1137.66
L412.528 -1213.05
L412.646 -1298.2
L412.764 -1395.11
L412.882 -1506.42
L413 -1635.6
L413.118 -1787.31
L413.236 -1968.02
L413.354 -2186.93
L413.472 -2457.59
L413.59 -2800.81
L413.708 -3250.28
L413.826 -3864.4
L413.944 -4753.91
L414.062 -6157.64
L414.18 -8702.78
L414.298 -14735.4
L414.417 -47021
L414.535 40174.8
L414.653 14160.8
L414.683 12145.1
L414.714 10634.9
L414.744 9461.29
L414.774 8522.98
L414.805 7755.66
L414.835 7116.5
L414.866 6575.86
L414.896 6112.6
L414.927 5711.2
L414.957 5360.06
L414.987 5050.29
L415.018 4774.99
L415.048 4528.7
L415.079 4307.07
L415.109 4106.58
L415.14 3924.33
L415.17 3757.94
L415.201 3605.44
L415.231 3465.14
L415.261 3335.65
L415.292 3215.76
L415.322 3104.44
L415.353 3000.8
L415.383 2904.08
L415.414 2813.6
L415.444 2728.78
L415.474 2649.11
L415.505 2574.12
L415.535 2503.42
L415.566 2436.65
L415.596 2373.5
L415.627 2313.66
L415.733 2127.74
L415.839 1970.65
L415.945 1836.15
L416.051 1719.7
L416.157 1617.9
L416.263 1528.14
L416.369 1448.4
L416.475 1377.11
L416.581 1312.97
L416.687 1254.97
L416.793 1202.26
L416.899 1154.16
L417.005 1110.07
L417.111 1069.53
L417.218 1032.11
L417.324 997.476
L417.43 965.32
L417.536 935.387
L417.642 907.454
L417.748 881.328
L417.854 856.837
L417.96 833.833
L418.066 812.185
L418.172 791.775
L418.278 772.501
L418.384 754.27
L418.49 736.999
L418.596 720.614
L418.702 705.049
L418.808 690.244
L418.914 676.144
L419.021 662.7
L419.116 651.151
L419.211 640.064
L419.306 629.413
L419.401 619.173
L419.497 609.319
L419.592 599.831
L419.687 590.688
L419.782 581.872
L419.878 573.366
L419.973 565.153
L420.068 557.218
L420.163 549.548
L420.258 542.13
L420.354 534.951
L420.449 527.999
L420.544 521.265
L420.639 514.737
L420.735 508.408
L420.83 502.267
L420.925 496.306
L421.02 490.518
L421.115 484.895
L421.211 479.43
L421.306 474.116
L421.401 468.948
L421.496 463.919
L421.592 459.024
L421.687 454.257
L421.782 449.614
L421.877 445.089
L421.972 440.679
L422.068 436.378
L422.156 432.503
L422.243 428.715
L422.331 425.011
L422.419 421.389
L422.507 417.845
L422.595 414.377
L422.683 410.983
L422.771 407.661
L422.859 404.407
L422.946 401.22
L423.034 398.098
L423.122 395.04
L423.21 392.042
L423.298 389.103
L423.386 386.221
L423.474 383.396
L423.562 380.624
L423.649 377.905
L423.737 375.237
L423.825 372.619
L423.913 370.049
L424.001 367.526
L424.089 365.049
L424.177 362.616
L424.265 360.226
L424.353 357.878
L424.44 355.571
L424.528 353.304
L424.616 351.076
L424.704 348.886
L424.792 346.732
L424.88 344.615
L424.975 342.37
L425.069 340.164
L425.164 337.997
L425.259 335.868
L425.354 333.776
L425.449 331.719
L425.543 329.697
L425.638 327.708
L425.733 325.753
L425.828 323.83
L425.923 321.938
L426.017 320.077
L426.112 318.245
L426.207 316.443
L426.302 314.67
L426.397 312.924
L426.491 311.205
L426.586 309.512
L426.681 307.846
L426.776 306.204
L426.871 304.588
L426.965 302.995
L427.06 301.426
L427.155 299.88
L427.25 298.357
L427.345 296.856
L427.439 295.376
L427.534 293.917
L427.629 292.479
L427.724 291.061
L427.819 289.663
L427.913 288.284
L428.072 286.024
L428.23 283.816
L428.388 281.657
L428.546 279.545
L428.704 277.479
L428.863 275.458
L429.021 273.479
L429.179 271.542
L429.337 269.646
L429.495 267.788
L429.654 265.968
L429.812 264.185
L429.97 262.437
L430.128 260.724
L430.287 259.044
L430.445 257.396
L430.644 255.368
L430.843 253.387
L431.042 251.453
L431.241 249.564
L431.44 247.717
L431.639 245.912
L431.838 244.147
L432.037 242.421
L432.236 240.732
L432.435 239.08
L432.634 237.462
L432.833 235.878
L433.032 234.327
L433.231 232.808
L433.43 231.319
L433.629 229.86
L433.952 227.558
L434.274 225.328
L434.597 223.167
L434.919 221.071
L435.241 219.037
L435.564 217.062
L435.886 215.145
L436.209 213.281
L436.425 212.057
L436.642 210.856
L436.859 209.677
L437.076 208.52
L437.293 207.383
L437.51 206.267
L437.943 204.093
L438.251 202.595
L438.559 201.134
L438.866 199.708
L439.174 198.315
L439.482 196.955
L439.79 195.625
L440.097 194.326
L440.405 193.055
L440.88 191.148
L441.355 189.305
L441.83 187.521
L442.305 185.794
L442.78 184.121
L443.255 182.499
L443.73 180.925
L444.205 179.398
L444.686 177.895
L445.168 176.435
L445.659 174.989
L446.15 173.584
L446.641 172.218
L447.132 170.89
L447.623 169.598
L448.115 168.34
L448.606 167.114
L449.097 165.921
L449.664 164.58
L450.231 163.278
L450.68 162.271
L451.13 161.287
L451.579 160.324
L452.029 159.382
L452.479 158.46
L452.928 157.557
L453.827 155.806
L454.612 154.335
L455.396 152.915
L456.181 151.541
L456.965 150.213
L457.767 148.899
L458.568 147.628
L459.542 146.136
L460.516 144.7
L461.553 143.228
L462.591 141.81
L463.628 140.445
L464.666 139.13
L465.546 138.05
L466.427 137.002
L467.307 135.984
L468.188 134.996
L469.436 133.642
L470.684 132.341
L471.803 131.217
L472.923 130.13
L474.289 128.852
L475.163 128.062
L476.037 127.292
L477.784 125.808
L479.101 124.737
L480.631 123.543
L482.16 122.398
L483.279 121.59
L484.399 120.807
L485.518 120.046
L486.638 119.308
L487.856 118.53
L489.075 117.777
L491.058 116.602
L492.693 115.678
L494.871 114.51
L497.05 113.407
L498.098 112.9
L500.096 111.971
L502.095 111.093
L503.65 110.443
L505.205 109.821
L506.635 109.274
L508.065 108.75
L509.41 108.277
L511.238 107.666
L513.371 106.997
L515.504 106.374
L517.647 105.795
L519.335 105.37
L521.478 104.87
L523.451 104.448
L525.424 104.062
L527.183 103.748
L528.941 103.463
L530.424 103.243
L531.907 103.043
L533.683 102.83
L535.494 102.64
L537.306 102.48
L539.086 102.349
L540.739 102.253
L542.347 102.182
L543.955 102.133
L546.702 102.1
L546.702 102.1
L17.7785 102.1" style="fill:#808080;opacity:0.5;"/>
   </g>
   <g id="line2d_1">
    <path clip-path="url(#p192cf5743b)" d="
M17.7785 102.1
L24.1327 102.274
L29.815 102.723
L34.2054 103.264
L38.5786 103.974
L44.6582 105.253
L48.9419 106.365
L54.4947 108.081
L59.8617 110.053
L64.3688 111.965
L68.9555 114.172
L72.0579 115.829
L75.7526 117.989
L80.3736 121.009
L84.051 123.698
L87.5269 126.504
L90.836 129.449
L93.1838 131.722
L96.5788 135.315
L99.7707 139.076
L102.444 142.561
L105.452 146.916
L108.261 151.474
L110.568 155.644
L112.842 160.201
L115.074 165.186
L117.194 170.482
L119.028 175.593
L121.032 181.853
L122.848 188.258
L124.656 195.481
L126.478 203.804
L126.759 205.201
M149.962 205.201
L149.962 -1
M173.259 -1
L174.678 5.72969
L176.452 13.1845
L178.239 19.8039
L180.12 25.984
L182.094 31.7476
L184.336 37.5572
L186.345 42.2074
L188.353 46.4182
L190.495 50.4962
L193.224 55.1703
L195.849 59.2027
L198.568 62.974
L201.822 67.0307
L204.696 70.2612
L207.806 73.4388
L211.071 76.4672
L213.995 78.944
L217.18 81.4198
L221.049 84.1494
L224.597 86.4145
L227.912 88.3451
L232.557 90.778
L237.263 92.9487
L242.467 95.0359
L248.224 96.994
L253.306 98.437
L258.729 99.6992
L264.824 100.791
L271.064 101.563
L276.104 101.939
L281.274 102.096
L285.807 102.046
L291.504 101.732
L295.604 101.332
L301.089 100.565
L306.844 99.4671
L311.298 98.4049
L315.465 97.2357
L319.852 95.8127
L324.528 94.0667
L328.978 92.1691
L333.148 90.1656
L336.467 88.4011
L341.342 85.509
L345.888 82.4492
L349.633 79.6279
L352.763 77.0322
L356.377 73.7271
L359.158 70.9261
L362.31 67.4384
L365.59 63.3956
L368.295 59.6898
L370.757 55.9699
L373.276 51.7639
L375.616 47.4273
L377.997 42.5112
L380.299 37.1757
L382.4 31.7084
L384.517 25.4962
L386.583 18.5991
L388.397 11.713
L390.211 3.86847
L391.221 -1
M414.48 -1
L414.48 205.201
M437.722 205.201
L439.174 198.315
L440.88 191.148
L442.78 184.121
L444.686 177.895
L446.641 172.218
L448.606 167.114
L450.68 162.271
L452.928 157.557
L455.396 152.915
L457.767 148.899
L460.516 144.7
L463.628 140.445
L466.427 137.002
L469.436 133.642
L472.923 130.13
L476.037 127.292
L479.101 124.737
L483.279 121.59
L486.638 119.308
L491.058 116.602
L494.871 114.51
L500.096 111.971
L505.205 109.821
L509.41 108.277
L513.371 106.997
L519.335 105.37
L525.424 104.062
L530.424 103.243
L535.494 102.64
L540.739 102.253
L543.955 102.133
L546.702 102.1
L546.702 102.1" style="fill:none;stroke:#0000ff;"/>
   </g>
   <g id="matplotlib.axis_1">
    <g id="xtick_1">
     <g id="line2d_2">
      <path d="
M29.6978 196.863
L29.6978 7.3373" style="fill:none;stroke:#000000;stroke-dasharray:1.000000,3.000000;stroke-dashoffset:0.0;stroke-linecap:butt;stroke-width:0.5;"/>
     </g>
     <g id="line2d_3">
      <defs>
       <path d="
M0 0
L0 -4" id="m8d42aa9c00"/>
      </defs>
      <g>
       <use style="stroke:#000000;stroke-linecap:butt;stroke-width:0.5;" x="29.697833377" xlink:href="#m8d42aa9c00" y="102.100374445"/>
      </g>
     </g>
     <g id="text_1">
      <!-- -3 -->
      <defs>
       <path d="
M40.5781 39.3125
Q47.6562 37.7969 51.625 33
Q55.6094 28.2188 55.6094 21.1875
Q55.6094 10.4062 48.1875 4.48438
Q40.7656 -1.42188 27.0938 -1.42188
Q22.5156 -1.42188 17.6562 -0.515625
Q12.7969 0.390625 7.625 2.20312
L7.625 11.7188
Q11.7188 9.32812 16.5938 8.10938
Q21.4844 6.89062 26.8125 6.89062
Q36.0781 6.89062 40.9375 10.5469
Q45.7969 14.2031 45.7969 21.1875
Q45.7969 27.6406 41.2812 31.2656
Q36.7656 34.9062 28.7188 34.9062
L20.2188 34.9062
L20.2188 43.0156
L29.1094 43.0156
Q36.375 43.0156 40.2344 45.9219
Q44.0938 48.8281 44.0938 54.2969
Q44.0938 59.9062 40.1094 62.9062
Q36.1406 65.9219 28.7188 65.9219
Q24.6562 65.9219 20.0156 65.0312
Q15.375 64.1562 9.8125 62.3125
L9.8125 71.0938
Q15.4375 72.6562 20.3438 73.4375
Q25.25 74.2188 29.5938 74.2188
Q40.8281 74.2188 47.3594 69.1094
Q53.9062 64.0156 53.9062 55.3281
Q53.9062 49.2656 50.4375 45.0938
Q46.9688 40.9219 40.5781 39.3125" id="BitstreamVeraSans-Roman-33"/>
       <path d="
M4.89062 31.3906
L31.2031 31.3906
L31.2031 23.3906
L4.89062 23.3906
z
" id="BitstreamVeraSans-Roman-2d"/>
      </defs>
      <g transform="translate(25.357989627 113.522249445)scale(0.1 -0.1)">
       <use xlink:href="#BitstreamVeraSans-Roman-2d"/>
       <use x="36.083984375" xlink:href="#BitstreamVeraSans-Roman-33"/>
      </g>
     </g>
    </g>
    <g id="xtick_2">
     <g id="line2d_4">
      <path d="
M113.879 196.863
L113.879 7.3373" style="fill:none;stroke:#000000;stroke-dasharray:1.000000,3.000000;stroke-dashoffset:0.0;stroke-linecap:butt;stroke-width:0.5;"/>
     </g>
     <g id="line2d_5">
      <defs>
       <path d="
M0 0
L0 -4" id="m8d42aa9c00"/>
      </defs>
      <g>
       <use style="stroke:#000000;stroke-linecap:butt;stroke-width:0.5;" x="113.878555585" xlink:href="#m8d42aa9c00" y="102.100374445"/>
      </g>
     </g>
     <g id="text_2">
      <!-- -2 -->
      <defs>
       <path d="
M19.1875 8.29688
L53.6094 8.29688
L53.6094 0
L7.32812 0
L7.32812 8.29688
Q12.9375 14.1094 22.625 23.8906
Q32.3281 33.6875 34.8125 36.5312
Q39.5469 41.8438 41.4219 45.5312
Q43.3125 49.2188 43.3125 52.7812
Q43.3125 58.5938 39.2344 62.25
Q35.1562 65.9219 28.6094 65.9219
Q23.9688 65.9219 18.8125 64.3125
Q13.6719 62.7031 7.8125 59.4219
L7.8125 69.3906
Q13.7656 71.7812 18.9375 73
Q24.125 74.2188 28.4219 74.2188
Q39.75 74.2188 46.4844 68.5469
Q53.2188 62.8906 53.2188 53.4219
Q53.2188 48.9219 51.5312 44.8906
Q49.8594 40.875 45.4062 35.4062
Q44.1875 33.9844 37.6406 27.2188
Q31.1094 20.4531 19.1875 8.29688" id="BitstreamVeraSans-Roman-32"/>
      </defs>
      <g transform="translate(109.638711835 113.522249445)scale(0.1 -0.1)">
       <use xlink:href="#BitstreamVeraSans-Roman-2d"/>
       <use x="36.083984375" xlink:href="#BitstreamVeraSans-Roman-32"/>
      </g>
     </g>
    </g>
    <g id="xtick_3">
     <g id="line2d_6">
      <path d="
M198.059 196.863
L198.059 7.3373" style="fill:none;stroke:#000000;stroke-dasharray:1.000000,3.000000;stroke-dashoffset:0.0;stroke-linecap:butt;stroke-width:0.5;"/>
     </g>
     <g id="line2d_7">
      <defs>
       <path d="
M0 0
L0 -4" id="m8d42aa9c00"/>
      </defs>
      <g>
       <use style="stroke:#000000;stroke-linecap:butt;stroke-width:0.5;" x="198.059277792" xlink:href="#m8d42aa9c00" y="102.100374445"/>
      </g>
     </g>
     <g id="text_3">
      <!-- -1 -->
      <defs>
       <path d="
M12.4062 8.29688
L28.5156 8.29688
L28.5156 63.9219
L10.9844 60.4062
L10.9844 69.3906
L28.4219 72.9062
L38.2812 72.9062
L38.2812 8.29688
L54.3906 8.29688
L54.3906 0
L12.4062 0
z
" id="BitstreamVeraSans-Roman-31"/>
      </defs>
      <g transform="translate(193.780371542 113.390999445)scale(0.1 -0.1)">
       <use xlink:href="#BitstreamVeraSans-Roman-2d"/>
       <use x="36.083984375" xlink:href="#BitstreamVeraSans-Roman-31"/>
      </g>
     </g>
    </g>
    <g id="xtick_4">
     <g id="line2d_8">
      <path d="
M282.24 196.863
L282.24 7.3373" style="fill:none;stroke:#000000;stroke-dasharray:1.000000,3.000000;stroke-dashoffset:0.0;stroke-linecap:butt;stroke-width:0.5;"/>
     </g>
     <g id="line2d_9">
      <defs>
       <path d="
M0 0
L0 -4" id="m8d42aa9c00"/>
      </defs>
      <g>
       <use style="stroke:#000000;stroke-linecap:butt;stroke-width:0.5;" x="282.24" xlink:href="#m8d42aa9c00" y="102.100374445"/>
      </g>
     </g>
    </g>
    <g id="xtick_5">
     <g id="line2d_10">
      <path d="
M366.421 196.863
L366.421 7.3373" style="fill:none;stroke:#000000;stroke-dasharray:1.000000,3.000000;stroke-dashoffset:0.0;stroke-linecap:butt;stroke-width:0.5;"/>
     </g>
     <g id="line2d_11">
      <defs>
       <path d="
M0 0
L0 -4" id="m8d42aa9c00"/>
      </defs>
      <g>
       <use style="stroke:#000000;stroke-linecap:butt;stroke-width:0.5;" x="366.420722208" xlink:href="#m8d42aa9c00" y="102.100374445"/>
      </g>
     </g>
     <g id="text_4">
      <!-- 1 -->
      <g transform="translate(364.250409708 113.390999445)scale(0.1 -0.1)">
       <use xlink:href="#BitstreamVeraSans-Roman-31"/>
      </g>
     </g>
    </g>
    <g id="xtick_6">
     <g id="line2d_12">
      <path d="
M450.601 196.863
L450.601 7.3373" style="fill:none;stroke:#000000;stroke-dasharray:1.000000,3.000000;stroke-dashoffset:0.0;stroke-linecap:butt;stroke-width:0.5;"/>
     </g>
     <g id="line2d_13">
      <defs>
       <path d="
M0 0
L0 -4" id="m8d42aa9c00"/>
      </defs>
      <g>
       <use style="stroke:#000000;stroke-linecap:butt;stroke-width:0.5;" x="450.601444415" xlink:href="#m8d42aa9c00" y="102.100374445"/>
      </g>
     </g>
     <g id="text_5">
      <!-- 2 -->
      <g transform="translate(448.287381915 113.522249445)scale(0.1 -0.1)">
       <use xlink:href="#BitstreamVeraSans-Roman-32"/>
      </g>
     </g>
    </g>
    <g id="xtick_7">
     <g id="line2d_14">
      <path d="
M534.782 196.863
L534.782 7.3373" style="fill:none;stroke:#000000;stroke-dasharray:1.000000,3.000000;stroke-dashoffset:0.0;stroke-linecap:butt;stroke-width:0.5;"/>
     </g>
     <g id="line2d_15">
      <defs>
       <path d="
M0 0
L0 -4" id="m8d42aa9c00"/>
      </defs>
      <g>
       <use style="stroke:#000000;stroke-linecap:butt;stroke-width:0.5;" x="534.782166623" xlink:href="#m8d42aa9c00" y="102.100374445"/>
      </g>
     </g>
     <g id="text_6">
      <!-- 3 -->
      <g transform="translate(532.382947873 113.522249445)scale(0.1 -0.1)">
       <use xlink:href="#BitstreamVeraSans-Roman-33"/>
      </g>
     </g>
    </g>
    <g id="xtick_8">
     <g id="line2d_16">
      <defs>
       <path d="
M0 0
L0 -2" id="m15274a46c0"/>
      </defs>
      <g>
       <use style="stroke:#000000;stroke-linecap:butt;stroke-width:0.5;" x="12.8616889354" xlink:href="#m15274a46c0" y="102.100374445"/>
      </g>
     </g>
    </g>
    <g id="xtick_9">
     <g id="line2d_17">
      <defs>
       <path d="
M0 0
L0 -2" id="m15274a46c0"/>
      </defs>
      <g>
       <use style="stroke:#000000;stroke-linecap:butt;stroke-width:0.5;" x="46.5339778185" xlink:href="#m15274a46c0" y="102.100374445"/>
      </g>
     </g>
    </g>
    <g id="xtick_10">
     <g id="line2d_18">
      <defs>
       <path d="
M0 0
L0 -2" id="m15274a46c0"/>
      </defs>
      <g>
       <use style="stroke:#000000;stroke-linecap:butt;stroke-width:0.5;" x="63.37012226" xlink:href="#m15274a46c0" y="102.100374445"/>
      </g>
     </g>
    </g>
    <g id="xtick_11">
     <g id="line2d_19">
      <defs>
       <path d="
M0 0
L0 -2" id="m15274a46c0"/>
      </defs>
      <g>
       <use style="stroke:#000000;stroke-linecap:butt;stroke-width:0.5;" x="80.2062667016" xlink:href="#m15274a46c0" y="102.100374445"/>
      </g>
     </g>
    </g>
    <g id="xtick_12">
     <g id="line2d_20">
      <defs>
       <path d="
M0 0
L0 -2" id="m15274a46c0"/>
      </defs>
      <g>
       <use style="stroke:#000000;stroke-linecap:butt;stroke-width:0.5;" x="97.0424111431" xlink:href="#m15274a46c0" y="102.100374445"/>
      </g>
     </g>
    </g>
    <g id="xtick_13">
     <g id="line2d_21">
      <defs>
       <path d="
M0 0
L0 -2" id="m15274a46c0"/>
      </defs>
      <g>
       <use style="stroke:#000000;stroke-linecap:butt;stroke-width:0.5;" x="130.714700026" xlink:href="#m15274a46c0" y="102.100374445"/>
      </g>
     </g>
    </g>
    <g id="xtick_14">
     <g id="line2d_22">
      <defs>
       <path d="
M0 0
L0 -2" id="m15274a46c0"/>
      </defs>
      <g>
       <use style="stroke:#000000;stroke-linecap:butt;stroke-width:0.5;" x="147.550844468" xlink:href="#m15274a46c0" y="102.100374445"/>
      </g>
     </g>
    </g>
    <g id="xtick_15">
     <g id="line2d_23">
      <defs>
       <path d="
M0 0
L0 -2" id="m15274a46c0"/>
      </defs>
      <g>
       <use style="stroke:#000000;stroke-linecap:butt;stroke-width:0.5;" x="164.386988909" xlink:href="#m15274a46c0" y="102.100374445"/>
      </g>
     </g>
    </g>
    <g id="xtick_16">
     <g id="line2d_24">
      <defs>
       <path d="
M0 0
L0 -2" id="m15274a46c0"/>
      </defs>
      <g>
       <use style="stroke:#000000;stroke-linecap:butt;stroke-width:0.5;" x="181.223133351" xlink:href="#m15274a46c0" y="102.100374445"/>
      </g>
     </g>
    </g>
    <g id="xtick_17">
     <g id="line2d_25">
      <defs>
       <path d="
M0 0
L0 -2" id="m15274a46c0"/>
      </defs>
      <g>
       <use style="stroke:#000000;stroke-linecap:butt;stroke-width:0.5;" x="198.059277792" xlink:href="#m15274a46c0" y="102.100374445"/>
      </g>
     </g>
    </g>
    <g id="xtick_18">
     <g id="line2d_26">
      <defs>
       <path d="
M0 0
L0 -2" id="m15274a46c0"/>
      </defs>
      <g>
       <use style="stroke:#000000;stroke-linecap:butt;stroke-width:0.5;" x="214.895422234" xlink:href="#m15274a46c0" y="102.100374445"/>
      </g>
     </g>
    </g>
    <g id="xtick_19">
     <g id="line2d_27">
      <defs>
       <path d="
M0 0
L0 -2" id="m15274a46c0"/>
      </defs>
      <g>
       <use style="stroke:#000000;stroke-linecap:butt;stroke-width:0.5;" x="231.731566675" xlink:href="#m15274a46c0" y="102.100374445"/>
      </g>
     </g>
    </g>
    <g id="xtick_20">
     <g id="line2d_28">
      <defs>
       <path d="
M0 0
L0 -2" id="m15274a46c0"/>
      </defs>
      <g>
       <use style="stroke:#000000;stroke-linecap:butt;stroke-width:0.5;" x="248.567711117" xlink:href="#m15274a46c0" y="102.100374445"/>
      </g>
     </g>
    </g>
    <g id="xtick_21">
     <g id="line2d_29">
      <defs>
       <path d="
M0 0
L0 -2" id="m15274a46c0"/>
      </defs>
      <g>
       <use style="stroke:#000000;stroke-linecap:butt;stroke-width:0.5;" x="265.403855558" xlink:href="#m15274a46c0" y="102.100374445"/>
      </g>
     </g>
    </g>
    <g id="xtick_22">
     <g id="line2d_30">
      <defs>
       <path d="
M0 0
L0 -2" id="m15274a46c0"/>
      </defs>
      <g>
       <use style="stroke:#000000;stroke-linecap:butt;stroke-width:0.5;" x="282.24" xlink:href="#m15274a46c0" y="102.100374445"/>
      </g>
     </g>
    </g>
    <g id="xtick_23">
     <g id="line2d_31">
      <defs>
       <path d="
M0 0
L0 -2" id="m15274a46c0"/>
      </defs>
      <g>
       <use style="stroke:#000000;stroke-linecap:butt;stroke-width:0.5;" x="299.076144442" xlink:href="#m15274a46c0" y="102.100374445"/>
      </g>
     </g>
    </g>
    <g id="xtick_24">
     <g id="line2d_32">
      <defs>
       <path d="
M0 0
L0 -2" id="m15274a46c0"/>
      </defs>
      <g>
       <use style="stroke:#000000;stroke-linecap:butt;stroke-width:0.5;" x="315.912288883" xlink:href="#m15274a46c0" y="102.100374445"/>
      </g>
     </g>
    </g>
    <g id="xtick_25">
     <g id="line2d_33">
      <defs>
       <path d="
M0 0
L0 -2" id="m15274a46c0"/>
      </defs>
      <g>
       <use style="stroke:#000000;stroke-linecap:butt;stroke-width:0.5;" x="332.748433325" xlink:href="#m15274a46c0" y="102.100374445"/>
      </g>
     </g>
    </g>
    <g id="xtick_26">
     <g id="line2d_34">
      <defs>
       <path d="
M0 0
L0 -2" id="m15274a46c0"/>
      </defs>
      <g>
       <use style="stroke:#000000;stroke-linecap:butt;stroke-width:0.5;" x="349.584577766" xlink:href="#m15274a46c0" y="102.100374445"/>
      </g>
     </g>
    </g>
    <g id="xtick_27">
     <g id="line2d_35">
      <defs>
       <path d="
M0 0
L0 -2" id="m15274a46c0"/>
      </defs>
      <g>
       <use style="stroke:#000000;stroke-linecap:butt;stroke-width:0.5;" x="366.420722208" xlink:href="#m15274a46c0" y="102.100374445"/>
      </g>
     </g>
    </g>
    <g id="xtick_28">
     <g id="line2d_36">
      <defs>
       <path d="
M0 0
L0 -2" id="m15274a46c0"/>
      </defs>
      <g>
       <use style="stroke:#000000;stroke-linecap:butt;stroke-width:0.5;" x="383.256866649" xlink:href="#m15274a46c0" y="102.100374445"/>
      </g>
     </g>
    </g>
    <g id="xtick_29">
     <g id="line2d_37">
      <defs>
       <path d="
M0 0
L0 -2" id="m15274a46c0"/>
      </defs>
      <g>
       <use style="stroke:#000000;stroke-linecap:butt;stroke-width:0.5;" x="400.093011091" xlink:href="#m15274a46c0" y="102.100374445"/>
      </g>
     </g>
    </g>
    <g id="xtick_30">
     <g id="line2d_38">
      <defs>
       <path d="
M0 0
L0 -2" id="m15274a46c0"/>
      </defs>
      <g>
       <use style="stroke:#000000;stroke-linecap:butt;stroke-width:0.5;" x="416.929155532" xlink:href="#m15274a46c0" y="102.100374445"/>
      </g>
     </g>
    </g>
    <g id="xtick_31">
     <g id="line2d_39">
      <defs>
       <path d="
M0 0
L0 -2" id="m15274a46c0"/>
      </defs>
      <g>
       <use style="stroke:#000000;stroke-linecap:butt;stroke-width:0.5;" x="433.765299974" xlink:href="#m15274a46c0" y="102.100374445"/>
      </g>
     </g>
    </g>
    <g id="xtick_32">
     <g id="line2d_40">
      <defs>
       <path d="
M0 0
L0 -2" id="m15274a46c0"/>
      </defs>
      <g>
       <use style="stroke:#000000;stroke-linecap:butt;stroke-width:0.5;" x="450.601444415" xlink:href="#m15274a46c0" y="102.100374445"/>
      </g>
     </g>
    </g>
    <g id="xtick_33">
     <g id="line2d_41">
      <defs>
       <path d="
M0 0
L0 -2" id="m15274a46c0"/>
      </defs>
      <g>
       <use style="stroke:#000000;stroke-linecap:butt;stroke-width:0.5;" x="467.437588857" xlink:href="#m15274a46c0" y="102.100374445"/>
      </g>
     </g>
    </g>
    <g id="xtick_34">
     <g id="line2d_42">
      <defs>
       <path d="
M0 0
L0 -2" id="m15274a46c0"/>
      </defs>
      <g>
       <use style="stroke:#000000;stroke-linecap:butt;stroke-width:0.5;" x="484.273733298" xlink:href="#m15274a46c0" y="102.100374445"/>
      </g>
     </g>
    </g>
    <g id="xtick_35">
     <g id="line2d_43">
      <defs>
       <path d="
M0 0
L0 -2" id="m15274a46c0"/>
      </defs>
      <g>
       <use style="stroke:#000000;stroke-linecap:butt;stroke-width:0.5;" x="501.10987774" xlink:href="#m15274a46c0" y="102.100374445"/>
      </g>
     </g>
    </g>
    <g id="xtick_36">
     <g id="line2d_44">
      <defs>
       <path d="
M0 0
L0 -2" id="m15274a46c0"/>
      </defs>
      <g>
       <use style="stroke:#000000;stroke-linecap:butt;stroke-width:0.5;" x="517.946022182" xlink:href="#m15274a46c0" y="102.100374445"/>
      </g>
     </g>
    </g>
    <g id="xtick_37">
     <g id="line2d_45">
      <defs>
       <path d="
M0 0
L0 -2" id="m15274a46c0"/>
      </defs>
      <g>
       <use style="stroke:#000000;stroke-linecap:butt;stroke-width:0.5;" x="534.782166623" xlink:href="#m15274a46c0" y="102.100374445"/>
      </g>
     </g>
    </g>
   </g>
   <g id="matplotlib.axis_2">
    <g id="ytick_1">
     <g id="line2d_46">
      <path d="
M7.2 193.219
L557.28 193.219" style="fill:none;stroke:#000000;stroke-dasharray:1.000000,3.000000;stroke-dashoffset:0.0;stroke-linecap:butt;stroke-width:0.5;"/>
     </g>
     <g id="line2d_47">
      <defs>
       <path d="
M0 0
L4 0" id="mddf9476eba"/>
      </defs>
      <g>
       <use style="stroke:#000000;stroke-linecap:butt;stroke-width:0.5;" x="282.24" xlink:href="#mddf9476eba" y="193.218717641"/>
      </g>
     </g>
     <g id="text_7">
      <!-- -3 -->
      <g transform="translate(269.5603125 196.858561391)scale(0.1 -0.1)">
       <use xlink:href="#BitstreamVeraSans-Roman-2d"/>
       <use x="36.083984375" xlink:href="#BitstreamVeraSans-Roman-33"/>
      </g>
     </g>
    </g>
    <g id="ytick_2">
     <g id="line2d_48">
      <path d="
M7.2 162.846
L557.28 162.846" style="fill:none;stroke:#000000;stroke-dasharray:1.000000,3.000000;stroke-dashoffset:0.0;stroke-linecap:butt;stroke-width:0.5;"/>
     </g>
     <g id="line2d_49">
      <defs>
       <path d="
M0 0
L4 0" id="mddf9476eba"/>
      </defs>
      <g>
       <use style="stroke:#000000;stroke-linecap:butt;stroke-width:0.5;" x="282.24" xlink:href="#mddf9476eba" y="162.845936575"/>
      </g>
     </g>
     <g id="text_8">
      <!-- -2 -->
      <g transform="translate(269.7603125 166.556874075)scale(0.1 -0.1)">
       <use xlink:href="#BitstreamVeraSans-Roman-2d"/>
       <use x="36.083984375" xlink:href="#BitstreamVeraSans-Roman-32"/>
      </g>
     </g>
    </g>
    <g id="ytick_3">
     <g id="line2d_50">
      <path d="
M7.2 132.473
L557.28 132.473" style="fill:none;stroke:#000000;stroke-dasharray:1.000000,3.000000;stroke-dashoffset:0.0;stroke-linecap:butt;stroke-width:0.5;"/>
     </g>
     <g id="line2d_51">
      <defs>
       <path d="
M0 0
L4 0" id="mddf9476eba"/>
      </defs>
      <g>
       <use style="stroke:#000000;stroke-linecap:butt;stroke-width:0.5;" x="282.24" xlink:href="#mddf9476eba" y="132.47315551"/>
      </g>
     </g>
     <g id="text_9">
      <!-- -1 -->
      <g transform="translate(269.6821875 136.11846801)scale(0.1 -0.1)">
       <use xlink:href="#BitstreamVeraSans-Roman-2d"/>
       <use x="36.083984375" xlink:href="#BitstreamVeraSans-Roman-31"/>
      </g>
     </g>
    </g>
    <g id="ytick_4">
     <g id="line2d_52">
      <path d="
M7.2 102.1
L557.28 102.1" style="fill:none;stroke:#000000;stroke-dasharray:1.000000,3.000000;stroke-dashoffset:0.0;stroke-linecap:butt;stroke-width:0.5;"/>
     </g>
     <g id="line2d_53">
      <defs>
       <path d="
M0 0
L4 0" id="mddf9476eba"/>
      </defs>
      <g>
       <use style="stroke:#000000;stroke-linecap:butt;stroke-width:0.5;" x="282.24" xlink:href="#mddf9476eba" y="102.100374445"/>
      </g>
     </g>
    </g>
    <g id="ytick_5">
     <g id="line2d_54">
      <path d="
M7.2 71.7276
L557.28 71.7276" style="fill:none;stroke:#000000;stroke-dasharray:1.000000,3.000000;stroke-dashoffset:0.0;stroke-linecap:butt;stroke-width:0.5;"/>
     </g>
     <g id="line2d_55">
      <defs>
       <path d="
M0 0
L4 0" id="mddf9476eba"/>
      </defs>
      <g>
       <use style="stroke:#000000;stroke-linecap:butt;stroke-width:0.5;" x="282.24" xlink:href="#mddf9476eba" y="71.7275933802"/>
      </g>
     </g>
     <g id="text_10">
      <!-- 1 -->
      <g transform="translate(273.899375 75.3729058802)scale(0.1 -0.1)">
       <use xlink:href="#BitstreamVeraSans-Roman-31"/>
      </g>
     </g>
    </g>
    <g id="ytick_6">
     <g id="line2d_56">
      <path d="
M7.2 41.3548
L557.28 41.3548" style="fill:none;stroke:#000000;stroke-dasharray:1.000000,3.000000;stroke-dashoffset:0.0;stroke-linecap:butt;stroke-width:0.5;"/>
     </g>
     <g id="line2d_57">
      <defs>
       <path d="
M0 0
L4 0" id="mddf9476eba"/>
      </defs>
      <g>
       <use style="stroke:#000000;stroke-linecap:butt;stroke-width:0.5;" x="282.24" xlink:href="#mddf9476eba" y="41.3548123151"/>
      </g>
     </g>
     <g id="text_11">
      <!-- 2 -->
      <g transform="translate(273.611875 45.0657498151)scale(0.1 -0.1)">
       <use xlink:href="#BitstreamVeraSans-Roman-32"/>
      </g>
     </g>
    </g>
    <g id="ytick_7">
     <g id="line2d_58">
      <path d="
M7.2 10.982
L557.28 10.982" style="fill:none;stroke:#000000;stroke-dasharray:1.000000,3.000000;stroke-dashoffset:0.0;stroke-linecap:butt;stroke-width:0.5;"/>
     </g>
     <g id="line2d_59">
      <defs>
       <path d="
M0 0
L4 0" id="mddf9476eba"/>
      </defs>
      <g>
       <use style="stroke:#000000;stroke-linecap:butt;stroke-width:0.5;" x="282.24" xlink:href="#mddf9476eba" y="10.98203125"/>
      </g>
     </g>
     <g id="text_12">
      <!-- 3 -->
      <g transform="translate(273.4415625 14.621875)scale(0.1 -0.1)">
       <use xlink:href="#BitstreamVeraSans-Roman-33"/>
      </g>
     </g>
    </g>
    <g id="ytick_8">
     <g id="line2d_60">
      <defs>
       <path d="
M0 0
L2 0" id="mec8d718f1e"/>
      </defs>
      <g>
       <use style="stroke:#000000;stroke-linecap:butt;stroke-width:0.5;" x="282.24" xlink:href="#mec8d718f1e" y="187.144161428"/>
      </g>
     </g>
    </g>
    <g id="ytick_9">
     <g id="line2d_61">
      <defs>
       <path d="
M0 0
L2 0" id="mec8d718f1e"/>
      </defs>
      <g>
       <use style="stroke:#000000;stroke-linecap:butt;stroke-width:0.5;" x="282.24" xlink:href="#mec8d718f1e" y="181.069605214"/>
      </g>
     </g>
    </g>
    <g id="ytick_10">
     <g id="line2d_62">
      <defs>
       <path d="
M0 0
L2 0" id="mec8d718f1e"/>
      </defs>
      <g>
       <use style="stroke:#000000;stroke-linecap:butt;stroke-width:0.5;" x="282.24" xlink:href="#mec8d718f1e" y="174.995049001"/>
      </g>
     </g>
    </g>
    <g id="ytick_11">
     <g id="line2d_63">
      <defs>
       <path d="
M0 0
L2 0" id="mec8d718f1e"/>
      </defs>
      <g>
       <use style="stroke:#000000;stroke-linecap:butt;stroke-width:0.5;" x="282.24" xlink:href="#mec8d718f1e" y="168.920492788"/>
      </g>
     </g>
    </g>
    <g id="ytick_12">
     <g id="line2d_64">
      <defs>
       <path d="
M0 0
L2 0" id="mec8d718f1e"/>
      </defs>
      <g>
       <use style="stroke:#000000;stroke-linecap:butt;stroke-width:0.5;" x="282.24" xlink:href="#mec8d718f1e" y="156.771380362"/>
      </g>
     </g>
    </g>
    <g id="ytick_13">
     <g id="line2d_65">
      <defs>
       <path d="
M0 0
L2 0" id="mec8d718f1e"/>
      </defs>
      <g>
       <use style="stroke:#000000;stroke-linecap:butt;stroke-width:0.5;" x="282.24" xlink:href="#mec8d718f1e" y="150.696824149"/>
      </g>
     </g>
    </g>
    <g id="ytick_14">
     <g id="line2d_66">
      <defs>
       <path d="
M0 0
L2 0" id="mec8d718f1e"/>
      </defs>
      <g>
       <use style="stroke:#000000;stroke-linecap:butt;stroke-width:0.5;" x="282.24" xlink:href="#mec8d718f1e" y="144.622267936"/>
      </g>
     </g>
    </g>
    <g id="ytick_15">
     <g id="line2d_67">
      <defs>
       <path d="
M0 0
L2 0" id="mec8d718f1e"/>
      </defs>
      <g>
       <use style="stroke:#000000;stroke-linecap:butt;stroke-width:0.5;" x="282.24" xlink:href="#mec8d718f1e" y="138.547711723"/>
      </g>
     </g>
    </g>
    <g id="ytick_16">
     <g id="line2d_68">
      <defs>
       <path d="
M0 0
L2 0" id="mec8d718f1e"/>
      </defs>
      <g>
       <use style="stroke:#000000;stroke-linecap:butt;stroke-width:0.5;" x="282.24" xlink:href="#mec8d718f1e" y="132.47315551"/>
      </g>
     </g>
    </g>
    <g id="ytick_17">
     <g id="line2d_69">
      <defs>
       <path d="
M0 0
L2 0" id="mec8d718f1e"/>
      </defs>
      <g>
       <use style="stroke:#000000;stroke-linecap:butt;stroke-width:0.5;" x="282.24" xlink:href="#mec8d718f1e" y="126.398599297"/>
      </g>
     </g>
    </g>
    <g id="ytick_18">
     <g id="line2d_70">
      <defs>
       <path d="
M0 0
L2 0" id="mec8d718f1e"/>
      </defs>
      <g>
       <use style="stroke:#000000;stroke-linecap:butt;stroke-width:0.5;" x="282.24" xlink:href="#mec8d718f1e" y="120.324043084"/>
      </g>
     </g>
    </g>
    <g id="ytick_19">
     <g id="line2d_71">
      <defs>
       <path d="
M0 0
L2 0" id="mec8d718f1e"/>
      </defs>
      <g>
       <use style="stroke:#000000;stroke-linecap:butt;stroke-width:0.5;" x="282.24" xlink:href="#mec8d718f1e" y="114.249486871"/>
      </g>
     </g>
    </g>
    <g id="ytick_20">
     <g id="line2d_72">
      <defs>
       <path d="
M0 0
L2 0" id="mec8d718f1e"/>
      </defs>
      <g>
       <use style="stroke:#000000;stroke-linecap:butt;stroke-width:0.5;" x="282.24" xlink:href="#mec8d718f1e" y="108.174930658"/>
      </g>
     </g>
    </g>
    <g id="ytick_21">
     <g id="line2d_73">
      <defs>
       <path d="
M0 0
L2 0" id="mec8d718f1e"/>
      </defs>
      <g>
       <use style="stroke:#000000;stroke-linecap:butt;stroke-width:0.5;" x="282.24" xlink:href="#mec8d718f1e" y="102.100374445"/>
      </g>
     </g>
    </g>
    <g id="ytick_22">
     <g id="line2d_74">
      <defs>
       <path d="
M0 0
L2 0" id="mec8d718f1e"/>
      </defs>
      <g>
       <use style="stroke:#000000;stroke-linecap:butt;stroke-width:0.5;" x="282.24" xlink:href="#mec8d718f1e" y="96.0258182322"/>
      </g>
     </g>
    </g>
    <g id="ytick_23">
     <g id="line2d_75">
      <defs>
       <path d="
M0 0
L2 0" id="mec8d718f1e"/>
      </defs>
      <g>
       <use style="stroke:#000000;stroke-linecap:butt;stroke-width:0.5;" x="282.24" xlink:href="#mec8d718f1e" y="89.9512620192"/>
      </g>
     </g>
    </g>
    <g id="ytick_24">
     <g id="line2d_76">
      <defs>
       <path d="
M0 0
L2 0" id="mec8d718f1e"/>
      </defs>
      <g>
       <use style="stroke:#000000;stroke-linecap:butt;stroke-width:0.5;" x="282.24" xlink:href="#mec8d718f1e" y="83.8767058062"/>
      </g>
     </g>
    </g>
    <g id="ytick_25">
     <g id="line2d_77">
      <defs>
       <path d="
M0 0
L2 0" id="mec8d718f1e"/>
      </defs>
      <g>
       <use style="stroke:#000000;stroke-linecap:butt;stroke-width:0.5;" x="282.24" xlink:href="#mec8d718f1e" y="77.8021495932"/>
      </g>
     </g>
    </g>
    <g id="ytick_26">
     <g id="line2d_78">
      <defs>
       <path d="
M0 0
L2 0" id="mec8d718f1e"/>
      </defs>
      <g>
       <use style="stroke:#000000;stroke-linecap:butt;stroke-width:0.5;" x="282.24" xlink:href="#mec8d718f1e" y="71.7275933802"/>
      </g>
     </g>
    </g>
    <g id="ytick_27">
     <g id="line2d_79">
      <defs>
       <path d="
M0 0
L2 0" id="mec8d718f1e"/>
      </defs>
      <g>
       <use style="stroke:#000000;stroke-linecap:butt;stroke-width:0.5;" x="282.24" xlink:href="#mec8d718f1e" y="65.6530371672"/>
      </g>
     </g>
    </g>
    <g id="ytick_28">
     <g id="line2d_80">
      <defs>
       <path d="
M0 0
L2 0" id="mec8d718f1e"/>
      </defs>
      <g>
       <use style="stroke:#000000;stroke-linecap:butt;stroke-width:0.5;" x="282.24" xlink:href="#mec8d718f1e" y="59.5784809541"/>
      </g>
     </g>
    </g>
    <g id="ytick_29">
     <g id="line2d_81">
      <defs>
       <path d="
M0 0
L2 0" id="mec8d718f1e"/>
      </defs>
      <g>
       <use style="stroke:#000000;stroke-linecap:butt;stroke-width:0.5;" x="282.24" xlink:href="#mec8d718f1e" y="53.5039247411"/>
      </g>
     </g>
    </g>
    <g id="ytick_30">
     <g id="line2d_82">
      <defs>
       <path d="
M0 0
L2 0" id="mec8d718f1e"/>
      </defs>
      <g>
       <use style="stroke:#000000;stroke-linecap:butt;stroke-width:0.5;" x="282.24" xlink:href="#mec8d718f1e" y="47.4293685281"/>
      </g>
     </g>
    </g>
    <g id="ytick_31">
     <g id="line2d_83">
      <defs>
       <path d="
M0 0
L2 0" id="mec8d718f1e"/>
      </defs>
      <g>
       <use style="stroke:#000000;stroke-linecap:butt;stroke-width:0.5;" x="282.24" xlink:href="#mec8d718f1e" y="41.3548123151"/>
      </g>
     </g>
    </g>
    <g id="ytick_32">
     <g id="line2d_84">
      <defs>
       <path d="
M0 0
L2 0" id="mec8d718f1e"/>
      </defs>
      <g>
       <use style="stroke:#000000;stroke-linecap:butt;stroke-width:0.5;" x="282.24" xlink:href="#mec8d718f1e" y="35.2802561021"/>
      </g>
     </g>
    </g>
    <g id="ytick_33">
     <g id="line2d_85">
      <defs>
       <path d="
M0 0
L2 0" id="mec8d718f1e"/>
      </defs>
      <g>
       <use style="stroke:#000000;stroke-linecap:butt;stroke-width:0.5;" x="282.24" xlink:href="#mec8d718f1e" y="29.2056998891"/>
      </g>
     </g>
    </g>
    <g id="ytick_34">
     <g id="line2d_86">
      <defs>
       <path d="
M0 0
L2 0" id="mec8d718f1e"/>
      </defs>
      <g>
       <use style="stroke:#000000;stroke-linecap:butt;stroke-width:0.5;" x="282.24" xlink:href="#mec8d718f1e" y="23.131143676"/>
      </g>
     </g>
    </g>
    <g id="ytick_35">
     <g id="line2d_87">
      <defs>
       <path d="
M0 0
L2 0" id="mec8d718f1e"/>
      </defs>
      <g>
       <use style="stroke:#000000;stroke-linecap:butt;stroke-width:0.5;" x="282.24" xlink:href="#mec8d718f1e" y="17.056587463"/>
      </g>
     </g>
    </g>
   </g>
   <g id="patch_4">
    <path d="
M7.2 102.1
L557.28 102.1" style="fill:none;stroke:#000000;stroke-width:0.8;"/>
   </g>
   <g id="patch_5">
    <path d="
M282.24 196.863
L282.24 7.3373" style="fill:none;stroke:#000000;stroke-width:0.8;"/>
   </g>
  </g>
 </g>
 <defs>
  <clipPath id="p192cf5743b">
   <rect height="189.526153846" width="550.08" x="7.2" y="7.33729752219"/>
  </clipPath>
 </defs>
</svg>
