<?xml version="1.0" encoding="utf-8" standalone="no"?>
<!DOCTYPE svg PUBLIC "-//W3C//DTD SVG 1.1//EN"
  "http://www.w3.org/Graphics/SVG/1.1/DTD/svg11.dtd">
<!-- Created with matplotlib (http://matplotlib.sourceforge.net/) -->
<svg height="132pt" version="1.1" viewBox="0 0 348 132" width="348pt" xmlns="http://www.w3.org/2000/svg" xmlns:xlink="http://www.w3.org/1999/xlink">
 <defs>
  <style type="text/css">
*{stroke-linecap:square;stroke-linejoin:round;}
  </style>
 </defs>
 <g id="figure_1">
  <g id="patch_1">
   <path d="
M4.996e-16 132.48
L348.48 132.48
L348.48 0
L4.996e-16 0
z
" style="fill:#ffffff;"/>
  </g>
  <g id="axes_1">
   <g id="patch_2">
    <path d="
M7.2 125.28
L341.28 125.28
L341.28 7.2
L7.2 7.2
z
" style="fill:#ffffff;"/>
   </g>
   <g id="line2d_1">
    <path clip-path="url(#pcdb00f3afe)" d="
M13.6246 123.009
L24.3578 120.448
L35.023 117.664
L46.5813 114.391
L58.4602 110.768
L71.107 106.644
L84.6349 101.955
L98.4301 96.9137
L113.985 90.9598
L131.191 84.1063
L151.522 75.7504
L226.651 44.6143
L242.754 38.3265
L257.004 32.9943
L269.847 28.4114
L283.505 23.8037
L295.304 20.0689
L306.921 16.635
L318.3 13.5227
L328.41 10.9789
L334.855 9.47077
L334.855 9.47077" style="fill:none;stroke:#0000ff;"/>
   </g>
   <g id="matplotlib.axis_1">
    <g id="xtick_1">
     <g id="line2d_2">
      <defs>
       <path d="
M0 0
L0 -4" id="m199528636d"/>
      </defs>
      <g>
       <use style="stroke:#000000;stroke-linecap:butt;stroke-width:0.5;" x="13.6246153846" xlink:href="#m199528636d" y="66.24"/>
      </g>
     </g>
     <g id="text_1">
      <!-- -1 -->
      <defs>
       <path d="
M12.4062 8.29688
L28.5156 8.29688
L28.5156 63.9219
L10.9844 60.4062
L10.9844 69.3906
L28.4219 72.9062
L38.2812 72.9062
L38.2812 8.29688
L54.3906 8.29688
L54.3906 0
L12.4062 0
z
" id="BitstreamVeraSans-Roman-31"/>
       <path d="
M4.89062 31.3906
L31.2031 31.3906
L31.2031 23.3906
L4.89062 23.3906
z
" id="BitstreamVeraSans-Roman-2d"/>
      </defs>
      <g transform="translate(9.34570913462 77.530625)scale(0.1 -0.1)">
       <use xlink:href="#BitstreamVeraSans-Roman-2d"/>
       <use x="36.083984375" xlink:href="#BitstreamVeraSans-Roman-31"/>
      </g>
     </g>
    </g>
    <g id="xtick_2">
     <g id="line2d_3">
      <defs>
       <path d="
M0 0
L0 -4" id="m199528636d"/>
      </defs>
      <g>
       <use style="stroke:#000000;stroke-linecap:butt;stroke-width:0.5;" x="93.9323076923" xlink:href="#m199528636d" y="66.24"/>
      </g>
     </g>
     <g id="text_2">
      <!-- -0.5 -->
      <defs>
       <path d="
M31.7812 66.4062
Q24.1719 66.4062 20.3281 58.9062
Q16.5 51.4219 16.5 36.375
Q16.5 21.3906 20.3281 13.8906
Q24.1719 6.39062 31.7812 6.39062
Q39.4531 6.39062 43.2812 13.8906
Q47.125 21.3906 47.125 36.375
Q47.125 51.4219 43.2812 58.9062
Q39.4531 66.4062 31.7812 66.4062
M31.7812 74.2188
Q44.0469 74.2188 50.5156 64.5156
Q56.9844 54.8281 56.9844 36.375
Q56.9844 17.9688 50.5156 8.26562
Q44.0469 -1.42188 31.7812 -1.42188
Q19.5312 -1.42188 13.0625 8.26562
Q6.59375 17.9688 6.59375 36.375
Q6.59375 54.8281 13.0625 64.5156
Q19.5312 74.2188 31.7812 74.2188" id="BitstreamVeraSans-Roman-30"/>
       <path d="
M10.6875 12.4062
L21 12.4062
L21 0
L10.6875 0
z
" id="BitstreamVeraSans-Roman-2e"/>
       <path d="
M10.7969 72.9062
L49.5156 72.9062
L49.5156 64.5938
L19.8281 64.5938
L19.8281 46.7344
Q21.9688 47.4688 24.1094 47.8281
Q26.2656 48.1875 28.4219 48.1875
Q40.625 48.1875 47.75 41.5
Q54.8906 34.8125 54.8906 23.3906
Q54.8906 11.625 47.5625 5.09375
Q40.2344 -1.42188 26.9062 -1.42188
Q22.3125 -1.42188 17.5469 -0.640625
Q12.7969 0.140625 7.71875 1.70312
L7.71875 11.625
Q12.1094 9.23438 16.7969 8.0625
Q21.4844 6.89062 26.7031 6.89062
Q35.1562 6.89062 40.0781 11.3281
Q45.0156 15.7656 45.0156 23.3906
Q45.0156 31 40.0781 35.4375
Q35.1562 39.8906 26.7031 39.8906
Q22.75 39.8906 18.8125 39.0156
Q14.8906 38.1406 10.7969 36.2812
z
" id="BitstreamVeraSans-Roman-35"/>
      </defs>
      <g transform="translate(84.8580889423 77.661875)scale(0.1 -0.1)">
       <use xlink:href="#BitstreamVeraSans-Roman-2d"/>
       <use x="36.083984375" xlink:href="#BitstreamVeraSans-Roman-30"/>
       <use x="99.70703125" xlink:href="#BitstreamVeraSans-Roman-2e"/>
       <use x="131.494140625" xlink:href="#BitstreamVeraSans-Roman-35"/>
      </g>
     </g>
    </g>
    <g id="xtick_3">
     <g id="line2d_4">
      <defs>
       <path d="
M0 0
L0 -4" id="m199528636d"/>
      </defs>
      <g>
       <use style="stroke:#000000;stroke-linecap:butt;stroke-width:0.5;" x="174.24" xlink:href="#m199528636d" y="66.24"/>
      </g>
     </g>
    </g>
    <g id="xtick_4">
     <g id="line2d_5">
      <defs>
       <path d="
M0 0
L0 -4" id="m199528636d"/>
      </defs>
      <g>
       <use style="stroke:#000000;stroke-linecap:butt;stroke-width:0.5;" x="254.547692308" xlink:href="#m199528636d" y="66.24"/>
      </g>
     </g>
     <g id="text_3">
      <!-- 0.5 -->
      <g transform="translate(247.362536058 77.661875)scale(0.1 -0.1)">
       <use xlink:href="#BitstreamVeraSans-Roman-30"/>
       <use x="63.623046875" xlink:href="#BitstreamVeraSans-Roman-2e"/>
       <use x="95.41015625" xlink:href="#BitstreamVeraSans-Roman-35"/>
      </g>
     </g>
    </g>
    <g id="xtick_5">
     <g id="line2d_6">
      <defs>
       <path d="
M0 0
L0 -4" id="m199528636d"/>
      </defs>
      <g>
       <use style="stroke:#000000;stroke-linecap:butt;stroke-width:0.5;" x="334.855384615" xlink:href="#m199528636d" y="66.24"/>
      </g>
     </g>
     <g id="text_4">
      <!-- 1 -->
      <g transform="translate(332.685072115 77.530625)scale(0.1 -0.1)">
       <use xlink:href="#BitstreamVeraSans-Roman-31"/>
      </g>
     </g>
    </g>
    <g id="xtick_6">
     <g id="line2d_7">
      <defs>
       <path d="
M0 0
L0 -2" id="m312945e367"/>
      </defs>
      <g>
       <use style="stroke:#000000;stroke-linecap:butt;stroke-width:0.5;" x="29.6861538462" xlink:href="#m312945e367" y="66.24"/>
      </g>
     </g>
    </g>
    <g id="xtick_7">
     <g id="line2d_8">
      <defs>
       <path d="
M0 0
L0 -2" id="m312945e367"/>
      </defs>
      <g>
       <use style="stroke:#000000;stroke-linecap:butt;stroke-width:0.5;" x="45.7476923077" xlink:href="#m312945e367" y="66.24"/>
      </g>
     </g>
    </g>
    <g id="xtick_8">
     <g id="line2d_9">
      <defs>
       <path d="
M0 0
L0 -2" id="m312945e367"/>
      </defs>
      <g>
       <use style="stroke:#000000;stroke-linecap:butt;stroke-width:0.5;" x="61.8092307692" xlink:href="#m312945e367" y="66.24"/>
      </g>
     </g>
    </g>
    <g id="xtick_9">
     <g id="line2d_10">
      <defs>
       <path d="
M0 0
L0 -2" id="m312945e367"/>
      </defs>
      <g>
       <use style="stroke:#000000;stroke-linecap:butt;stroke-width:0.5;" x="77.8707692308" xlink:href="#m312945e367" y="66.24"/>
      </g>
     </g>
    </g>
    <g id="xtick_10">
     <g id="line2d_11">
      <defs>
       <path d="
M0 0
L0 -2" id="m312945e367"/>
      </defs>
      <g>
       <use style="stroke:#000000;stroke-linecap:butt;stroke-width:0.5;" x="93.9323076923" xlink:href="#m312945e367" y="66.24"/>
      </g>
     </g>
    </g>
    <g id="xtick_11">
     <g id="line2d_12">
      <defs>
       <path d="
M0 0
L0 -2" id="m312945e367"/>
      </defs>
      <g>
       <use style="stroke:#000000;stroke-linecap:butt;stroke-width:0.5;" x="109.993846154" xlink:href="#m312945e367" y="66.24"/>
      </g>
     </g>
    </g>
    <g id="xtick_12">
     <g id="line2d_13">
      <defs>
       <path d="
M0 0
L0 -2" id="m312945e367"/>
      </defs>
      <g>
       <use style="stroke:#000000;stroke-linecap:butt;stroke-width:0.5;" x="126.055384615" xlink:href="#m312945e367" y="66.24"/>
      </g>
     </g>
    </g>
    <g id="xtick_13">
     <g id="line2d_14">
      <defs>
       <path d="
M0 0
L0 -2" id="m312945e367"/>
      </defs>
      <g>
       <use style="stroke:#000000;stroke-linecap:butt;stroke-width:0.5;" x="142.116923077" xlink:href="#m312945e367" y="66.24"/>
      </g>
     </g>
    </g>
    <g id="xtick_14">
     <g id="line2d_15">
      <defs>
       <path d="
M0 0
L0 -2" id="m312945e367"/>
      </defs>
      <g>
       <use style="stroke:#000000;stroke-linecap:butt;stroke-width:0.5;" x="158.178461538" xlink:href="#m312945e367" y="66.24"/>
      </g>
     </g>
    </g>
    <g id="xtick_15">
     <g id="line2d_16">
      <defs>
       <path d="
M0 0
L0 -2" id="m312945e367"/>
      </defs>
      <g>
       <use style="stroke:#000000;stroke-linecap:butt;stroke-width:0.5;" x="174.24" xlink:href="#m312945e367" y="66.24"/>
      </g>
     </g>
    </g>
    <g id="xtick_16">
     <g id="line2d_17">
      <defs>
       <path d="
M0 0
L0 -2" id="m312945e367"/>
      </defs>
      <g>
       <use style="stroke:#000000;stroke-linecap:butt;stroke-width:0.5;" x="190.301538462" xlink:href="#m312945e367" y="66.24"/>
      </g>
     </g>
    </g>
    <g id="xtick_17">
     <g id="line2d_18">
      <defs>
       <path d="
M0 0
L0 -2" id="m312945e367"/>
      </defs>
      <g>
       <use style="stroke:#000000;stroke-linecap:butt;stroke-width:0.5;" x="206.363076923" xlink:href="#m312945e367" y="66.24"/>
      </g>
     </g>
    </g>
    <g id="xtick_18">
     <g id="line2d_19">
      <defs>
       <path d="
M0 0
L0 -2" id="m312945e367"/>
      </defs>
      <g>
       <use style="stroke:#000000;stroke-linecap:butt;stroke-width:0.5;" x="222.424615385" xlink:href="#m312945e367" y="66.24"/>
      </g>
     </g>
    </g>
    <g id="xtick_19">
     <g id="line2d_20">
      <defs>
       <path d="
M0 0
L0 -2" id="m312945e367"/>
      </defs>
      <g>
       <use style="stroke:#000000;stroke-linecap:butt;stroke-width:0.5;" x="238.486153846" xlink:href="#m312945e367" y="66.24"/>
      </g>
     </g>
    </g>
    <g id="xtick_20">
     <g id="line2d_21">
      <defs>
       <path d="
M0 0
L0 -2" id="m312945e367"/>
      </defs>
      <g>
       <use style="stroke:#000000;stroke-linecap:butt;stroke-width:0.5;" x="254.547692308" xlink:href="#m312945e367" y="66.24"/>
      </g>
     </g>
    </g>
    <g id="xtick_21">
     <g id="line2d_22">
      <defs>
       <path d="
M0 0
L0 -2" id="m312945e367"/>
      </defs>
      <g>
       <use style="stroke:#000000;stroke-linecap:butt;stroke-width:0.5;" x="270.609230769" xlink:href="#m312945e367" y="66.24"/>
      </g>
     </g>
    </g>
    <g id="xtick_22">
     <g id="line2d_23">
      <defs>
       <path d="
M0 0
L0 -2" id="m312945e367"/>
      </defs>
      <g>
       <use style="stroke:#000000;stroke-linecap:butt;stroke-width:0.5;" x="286.670769231" xlink:href="#m312945e367" y="66.24"/>
      </g>
     </g>
    </g>
    <g id="xtick_23">
     <g id="line2d_24">
      <defs>
       <path d="
M0 0
L0 -2" id="m312945e367"/>
      </defs>
      <g>
       <use style="stroke:#000000;stroke-linecap:butt;stroke-width:0.5;" x="302.732307692" xlink:href="#m312945e367" y="66.24"/>
      </g>
     </g>
    </g>
    <g id="xtick_24">
     <g id="line2d_25">
      <defs>
       <path d="
M0 0
L0 -2" id="m312945e367"/>
      </defs>
      <g>
       <use style="stroke:#000000;stroke-linecap:butt;stroke-width:0.5;" x="318.793846154" xlink:href="#m312945e367" y="66.24"/>
      </g>
     </g>
    </g>
   </g>
   <g id="matplotlib.axis_2">
    <g id="ytick_1">
     <g id="line2d_26">
      <defs>
       <path d="
M0 0
L4 0" id="mab28d5c109"/>
      </defs>
      <g>
       <use style="stroke:#000000;stroke-linecap:butt;stroke-width:0.5;" x="174.24" xlink:href="#mab28d5c109" y="99.9721380025"/>
      </g>
     </g>
     <g id="text_5">
      <!-- -0.5 -->
      <g transform="translate(152.0915625 103.611981752)scale(0.1 -0.1)">
       <use xlink:href="#BitstreamVeraSans-Roman-2d"/>
       <use x="36.083984375" xlink:href="#BitstreamVeraSans-Roman-30"/>
       <use x="99.70703125" xlink:href="#BitstreamVeraSans-Roman-2e"/>
       <use x="131.494140625" xlink:href="#BitstreamVeraSans-Roman-35"/>
      </g>
     </g>
    </g>
    <g id="ytick_2">
     <g id="line2d_27">
      <defs>
       <path d="
M0 0
L4 0" id="mab28d5c109"/>
      </defs>
      <g>
       <use style="stroke:#000000;stroke-linecap:butt;stroke-width:0.5;" x="174.24" xlink:href="#mab28d5c109" y="66.24"/>
      </g>
     </g>
    </g>
    <g id="ytick_3">
     <g id="line2d_28">
      <defs>
       <path d="
M0 0
L4 0" id="mab28d5c109"/>
      </defs>
      <g>
       <use style="stroke:#000000;stroke-linecap:butt;stroke-width:0.5;" x="174.24" xlink:href="#mab28d5c109" y="32.5078619975"/>
      </g>
     </g>
     <g id="text_6">
      <!-- 0.5 -->
      <g transform="translate(155.8696875 36.1477057475)scale(0.1 -0.1)">
       <use xlink:href="#BitstreamVeraSans-Roman-30"/>
       <use x="63.623046875" xlink:href="#BitstreamVeraSans-Roman-2e"/>
       <use x="95.41015625" xlink:href="#BitstreamVeraSans-Roman-35"/>
      </g>
     </g>
    </g>
    <g id="ytick_4">
     <g id="line2d_29">
      <defs>
       <path d="
M0 0
L2 0" id="m45894a6fdd"/>
      </defs>
      <g>
       <use style="stroke:#000000;stroke-linecap:butt;stroke-width:0.5;" x="174.24" xlink:href="#m45894a6fdd" y="120.211420804"/>
      </g>
     </g>
    </g>
    <g id="ytick_5">
     <g id="line2d_30">
      <defs>
       <path d="
M0 0
L2 0" id="m45894a6fdd"/>
      </defs>
      <g>
       <use style="stroke:#000000;stroke-linecap:butt;stroke-width:0.5;" x="174.24" xlink:href="#m45894a6fdd" y="113.464993203"/>
      </g>
     </g>
    </g>
    <g id="ytick_6">
     <g id="line2d_31">
      <defs>
       <path d="
M0 0
L2 0" id="m45894a6fdd"/>
      </defs>
      <g>
       <use style="stroke:#000000;stroke-linecap:butt;stroke-width:0.5;" x="174.24" xlink:href="#m45894a6fdd" y="106.718565603"/>
      </g>
     </g>
    </g>
    <g id="ytick_7">
     <g id="line2d_32">
      <defs>
       <path d="
M0 0
L2 0" id="m45894a6fdd"/>
      </defs>
      <g>
       <use style="stroke:#000000;stroke-linecap:butt;stroke-width:0.5;" x="174.24" xlink:href="#m45894a6fdd" y="93.225710402"/>
      </g>
     </g>
    </g>
    <g id="ytick_8">
     <g id="line2d_33">
      <defs>
       <path d="
M0 0
L2 0" id="m45894a6fdd"/>
      </defs>
      <g>
       <use style="stroke:#000000;stroke-linecap:butt;stroke-width:0.5;" x="174.24" xlink:href="#m45894a6fdd" y="86.4792828015"/>
      </g>
     </g>
    </g>
    <g id="ytick_9">
     <g id="line2d_34">
      <defs>
       <path d="
M0 0
L2 0" id="m45894a6fdd"/>
      </defs>
      <g>
       <use style="stroke:#000000;stroke-linecap:butt;stroke-width:0.5;" x="174.24" xlink:href="#m45894a6fdd" y="79.732855201"/>
      </g>
     </g>
    </g>
    <g id="ytick_10">
     <g id="line2d_35">
      <defs>
       <path d="
M0 0
L2 0" id="m45894a6fdd"/>
      </defs>
      <g>
       <use style="stroke:#000000;stroke-linecap:butt;stroke-width:0.5;" x="174.24" xlink:href="#m45894a6fdd" y="72.9864276005"/>
      </g>
     </g>
    </g>
    <g id="ytick_11">
     <g id="line2d_36">
      <defs>
       <path d="
M0 0
L2 0" id="m45894a6fdd"/>
      </defs>
      <g>
       <use style="stroke:#000000;stroke-linecap:butt;stroke-width:0.5;" x="174.24" xlink:href="#m45894a6fdd" y="59.4935723995"/>
      </g>
     </g>
    </g>
    <g id="ytick_12">
     <g id="line2d_37">
      <defs>
       <path d="
M0 0
L2 0" id="m45894a6fdd"/>
      </defs>
      <g>
       <use style="stroke:#000000;stroke-linecap:butt;stroke-width:0.5;" x="174.24" xlink:href="#m45894a6fdd" y="52.747144799"/>
      </g>
     </g>
    </g>
    <g id="ytick_13">
     <g id="line2d_38">
      <defs>
       <path d="
M0 0
L2 0" id="m45894a6fdd"/>
      </defs>
      <g>
       <use style="stroke:#000000;stroke-linecap:butt;stroke-width:0.5;" x="174.24" xlink:href="#m45894a6fdd" y="46.0007171985"/>
      </g>
     </g>
    </g>
    <g id="ytick_14">
     <g id="line2d_39">
      <defs>
       <path d="
M0 0
L2 0" id="m45894a6fdd"/>
      </defs>
      <g>
       <use style="stroke:#000000;stroke-linecap:butt;stroke-width:0.5;" x="174.24" xlink:href="#m45894a6fdd" y="39.254289598"/>
      </g>
     </g>
    </g>
    <g id="ytick_15">
     <g id="line2d_40">
      <defs>
       <path d="
M0 0
L2 0" id="m45894a6fdd"/>
      </defs>
      <g>
       <use style="stroke:#000000;stroke-linecap:butt;stroke-width:0.5;" x="174.24" xlink:href="#m45894a6fdd" y="25.761434397"/>
      </g>
     </g>
    </g>
    <g id="ytick_16">
     <g id="line2d_41">
      <defs>
       <path d="
M0 0
L2 0" id="m45894a6fdd"/>
      </defs>
      <g>
       <use style="stroke:#000000;stroke-linecap:butt;stroke-width:0.5;" x="174.24" xlink:href="#m45894a6fdd" y="19.0150067965"/>
      </g>
     </g>
    </g>
   </g>
   <g id="patch_3">
    <path d="
M7.2 66.24
L341.28 66.24" style="fill:none;stroke:#000000;stroke-width:0.8;"/>
   </g>
   <g id="patch_4">
    <path d="
M174.24 125.28
L174.24 7.2" style="fill:none;stroke:#000000;stroke-width:0.8;"/>
   </g>
  </g>
 </g>
 <defs>
  <clipPath id="pcdb00f3afe">
   <rect height="118.08" width="334.08" x="7.2" y="7.2"/>
  </clipPath>
 </defs>
</svg>
